{
.appVersion = "3343";
.formatVersion = 3;
DisplayStrings = (
"ÅV",
"AVÁVÂVÄVÀVĄVÅVÃV",
voluminous,
c,
L,
"Ł",
"lľ",
"ł",
$,
"AÁÂÄÀĄÅÃÆBCCĆČÇDĎEÉĚÊËÈĘFGHIÍÎÏÌJKLĹ/caroncomb.alt ĽŁMNŃŇÑOÓÔÖÒŐØÕŒPQRŔŘSŚŠẞTŤUÚÛÜÙŰŮVWXYÝŸZŹŽŻ/K.ss01/R.ss01 aáâäàąåãæbcćčçdďeéěêëèęfghiıíîïìjȷklĺľłmnńňñoóôöòőøõœpqrŕřsśšßtťuúûüùűůvwxyýÿzźžż0123456789 .,:;!¡?¿·•*#///backslash -–—_()„“”‘’«»‹›\"'@&©®™″|$€£+−×÷=><%↑→↓←̈̇̀́̋/caroncomb.alt ̧̨̂̊̃ˇ/_cap.flag/_corner.leftBottomSerif/_corner.rightBottomSerif/equals/adore.stencil/adore.wedge/adore.raw.001/adore.stencil.001",
" ",
")",
"A[Zealot]",
C
);
axes = (
{
name = Weight;
tag = wght;
}
);
date = "2025-02-21 16:21:33 +0000";
familyName = Zeitpunkt;
featurePrefixes = (
{
automatic = 1;
code = "languagesystem DFLT dflt;

languagesystem latn dflt;
";
name = Languagesystems;
}
);
features = (
{
automatic = 1;
code = "sub K by K.ss01;
sub R by R.ss01;
";
labels = (
{
language = dflt;
value = "";
}
);
tag = ss01;
}
);
fontMaster = (
{
axesValues = (
100
);
iconName = Light;
id = m01;
metricValues = (
{
over = 16;
pos = 800;
},
{
over = 16;
pos = 752;
},
{
over = 11;
pos = 494;
},
{
over = -16;
},
{
over = -16;
pos = -254;
},
{
},
{
pos = 708;
}
);
name = Light;
userData = {
GSCornerRadius = 10;
GSExtrudeAngle = 30;
GSExtrudeOffset = 15;
GSOffsetHorizontal = 7;
GSOffsetVertical = 7;
};
},
{
axesValues = (
400
);
iconName = SemiLight_SemiExtended;
id = m003;
metricValues = (
{
over = 16;
pos = 800;
},
{
over = 16;
pos = 752;
},
{
over = 11;
pos = 494;
},
{
over = -16;
},
{
over = -16;
pos = -254;
},
{
},
{
pos = 708;
}
);
name = Book;
userData = {
GSCornerRadius = 10;
GSExtrudeAngle = 30;
GSExtrudeOffset = 15;
GSOffsetHorizontal = 5;
GSOffsetKeepCompatible = 1;
GSOffsetVertical = 10;
};
}
);
glyphs = (
{
glyphname = A;
kernLeft = A;
kernRight = A;
lastChange = "2025-05-17 15:56:00 +0000";
layers = (
{
anchors = (
{
name = bottom;
pos = (407,11);
},
{
name = ogonek;
pos = (732,20);
},
{
name = top;
pos = (364,752);
}
);
background = {
hints = (
{
name = _corner.rightBottomSerif;
origin = (0,0);
scale = (1,-1);
type = Corner;
},
{
name = _corner.leftBottomSerif;
options = 1;
origin = (0,1);
scale = (1,-1);
type = Corner;
},
{
name = _corner.leftBottomSerif;
origin = (0,21);
type = Corner;
},
{
name = _corner.rightBottomSerif;
options = 1;
origin = (0,22);
type = Corner;
}
);
shapes = (
{
closed = 1;
nodes = (
(570,0,l),
(660,0,l),
(444,661,ls),
(425,720,o),
(409,762,o),
(379,762,cs),
(355,762,o),
(352,742,o),
(335,729,cs),
(312,711,o),
(285,708,o),
(274,708,cs),
(264,708,o),
(259,702,o),
(259,695,cs),
(259,689,o),
(264,682,o),
(274,682,cs),
(313,682,o),
(318,665,o),
(312,649,cs),
(64,0,l),
(119,0,l),
(377,689,l),
(351,689,l)
);
},
{
closed = 1;
nodes = (
(193,242,l),
(506,242,l),
(506,281,l),
(193,281,l)
);
}
);
};
hints = (
{
name = _corner.leftBottomSerif;
origin = (0,21);
type = Corner;
},
{
name = _corner.rightBottomSerif;
options = 1;
origin = (0,0);
type = Corner;
},
{
name = _corner.rightBottomSerif;
origin = (0,3);
scale = (1,-1);
type = Corner;
},
{
name = _corner.leftBottomSerif;
options = 1;
origin = (0,4);
scale = (1,-1);
type = Corner;
}
);
layerId = m01;
shapes = (
{
closed = 1;
nodes = (
(122,0,l),
(380,689,l),
(354,689,l),
(573,0,l),
(659,0,l),
(443,661,ls),
(418,736,o),
(407,768,o),
(382,768,cs),
(361,768,o),
(321,729,o),
(279,713,cs),
(271,710,o),
(261,708,o),
(260,700,cs),
(259,692,o),
(265,684,o),
(279,682,cs),
(313,677,o),
(321,664,o),
(315,649,cs),
(67,0,l)
);
},
{
closed = 1;
nodes = (
(196,242,l),
(509,242,l),
(509,281,l),
(196,281,l)
);
}
);
width = 728;
},
{
background = {
hints = (
{
name = _corner.rightBottomSerif;
origin = (0,0);
scale = (1,-1);
type = Corner;
},
{
name = _corner.leftBottomSerif;
options = 1;
origin = (0,1);
scale = (1,-1);
type = Corner;
},
{
name = _corner.leftBottomSerif;
origin = (0,21);
type = Corner;
},
{
name = _corner.rightBottomSerif;
options = 1;
origin = (0,22);
type = Corner;
}
);
shapes = (
{
closed = 1;
nodes = (
(570,0,l),
(660,0,l),
(444,661,ls),
(425,720,o),
(409,762,o),
(379,762,cs),
(355,762,o),
(352,742,o),
(335,729,cs),
(312,711,o),
(285,708,o),
(274,708,cs),
(264,708,o),
(259,702,o),
(259,695,cs),
(259,689,o),
(264,682,o),
(274,682,cs),
(313,682,o),
(318,665,o),
(312,649,cs),
(64,0,l),
(119,0,l),
(377,689,l),
(351,689,l)
);
},
{
closed = 1;
nodes = (
(193,242,l),
(506,242,l),
(506,281,l),
(193,281,l)
);
}
);
};
hints = (
{
name = _corner.leftBottomSerif;
origin = (1,1);
type = Corner;
},
{
name = _corner.rightBottomSerif;
options = 1;
origin = (1,2);
type = Corner;
},
{
name = _corner.rightBottomSerif;
origin = (1,5);
scale = (1,-1);
type = Corner;
},
{
name = _corner.leftBottomSerif;
options = 1;
origin = (1,6);
scale = (1,-1);
type = Corner;
}
);
layerId = m003;
shapes = (
{
closed = 1;
nodes = (
(181,232,l),
(504,232,l),
(504,291,l),
(181,291,l)
);
},
{
closed = 1;
nodes = (
(338,752,l),
(47,0,l),
(114,0,l),
(380,699,l),
(335,699,l),
(560,0,l),
(658,0,l),
(408,752,l)
);
},
{
closed = 1;
nodes = (
(318,617,l),
(334,681,l),
(431,682,l),
(406,760,ls),
(404,765,o),
(399,768,o),
(394,768,cs),
(359,768,l),
(355,768,o),
(351,767,o),
(347,765,c),
(254,733,l),
(249,731,o),
(246,727,o),
(246,722,c),
(246,690,l),
(246,684,o),
(250,680,o),
(256,680,c),
(272,680,o),
(310,679,o),
(296,643,c)
);
}
);
width = 708;
}
);
unicode = 65;
},
{
glyphname = AE;
kernLeft = V;
kernRight = V;
lastChange = "2025-05-17 15:56:00 +0000";
layers = (
{
anchors = (
{
name = bottom;
pos = (730,0);
},
{
name = ogonek;
pos = (1017,10);
},
{
name = top;
pos = (730,752);
},
{
name = topleft;
pos = (391,752);
}
);
hints = (
{
name = _corner.rightBottomSerif;
origin = (0,14);
type = Corner;
},
{
name = _corner.leftBottomSerif;
origin = (0,15);
type = Corner;
},
{
name = _corner.rightBottomSerif;
options = 1;
origin = (2,0);
type = Corner;
},
{
name = _corner.leftBottomSerif;
origin = (2,4);
type = Corner;
}
);
layerId = m01;
shapes = (
{
closed = 1;
nodes = (
(586,712,l),
(862,712,ls),
(892,712,o),
(929,688,o),
(977,627,cs),
(986,615,o),
(1004,627,o),
(998,640,cs),
(983,673,o),
(974,707,o),
(967,744,cs),
(966,749,o),
(962,752,o),
(956,752,c),
(503,752,l),
(500,0,l),
(980,0,ls),
(986,0,o),
(990,3,o),
(991,8,cs),
(1001,53,o),
(1016,99,o),
(1035,140,cs),
(1041,153,o),
(1023,165,o),
(1014,153,cs),
(966,92,o),
(916,40,o),
(896,40,cs),
(583,40,l)
);
},
{
closed = 1;
nodes = (
(795,422,ls),
(850,422,o),
(869,397,o),
(869,361,cs),
(869,345,o),
(894,345,o),
(893,361,cs),
(891,397,o),
(891,488,o),
(893,524,cs),
(894,540,o),
(869,540,o),
(869,524,cs),
(869,488,o),
(850,462,o),
(795,462,cs),
(573,462,l),
(573,422,l)
);
},
{
closed = 1;
nodes = (
(112,0,l),
(529,686,l),
(503,686,l),
(503,752,l),
(57,0,l)
);
},
{
closed = 1;
nodes = (
(261,242,l),
(559,242,l),
(559,281,l),
(261,281,l)
);
}
);
width = 1089;
},
{
layerId = m003;
width = 600;
}
);
metricLeft = "=A";
metricRight = "=E";
unicode = 198;
},
{
glyphname = B;
lastChange = "2025-05-17 15:56:00 +0000";
layers = (
{
backgroundImage = {
imagePath = "specimen-images/12pt-capB.jpg";
locked = 1;
pos = (23,-214);
scale = (10.7,10.7);
};
hints = (
{
name = _corner.leftBottomSerif;
origin = (0,15);
type = Corner;
},
{
name = _corner.leftBottomSerif;
options = 1;
origin = (0,14);
scale = (-1,1);
type = Corner;
}
);
layerId = m01;
shapes = (
{
closed = 1;
nodes = (
(358,0,ls),
(555,0,o),
(657,65,o),
(657,208,cs),
(657,333,o),
(566,392,o),
(450,413,c),
(450,404,l),
(536,427,o),
(609,493,o),
(609,584,cs),
(609,703,o),
(512,752,o),
(353,752,cs),
(129,752,l),
(129,0,l)
);
},
{
closed = 1;
nodes = (
(209,712,l),
(353,712,ls),
(463,712,o),
(523,675,o),
(523,580,cs),
(523,464,o),
(442,425,o),
(357,425,cs),
(209,425,l)
);
},
{
closed = 1;
nodes = (
(209,385,l),
(358,385,ls),
(509,385,o),
(568,322,o),
(568,211,cs),
(568,89,o),
(503,40,o),
(358,40,cs),
(209,40,l)
);
}
);
width = 711;
},
{
backgroundImage = {
imagePath = "specimen-images/12pt-capB.jpg";
locked = 1;
pos = (41,-214);
scale = (10.7,10.7);
};
hints = (
{
name = _corner.leftBottomSerif;
origin = (0,15);
type = Corner;
},
{
name = _corner.leftBottomSerif;
options = 1;
origin = (0,14);
scale = (-1,1);
type = Corner;
}
);
layerId = m003;
shapes = (
{
closed = 1;
nodes = (
(366,0,ls),
(564,0,o),
(670,62,o),
(670,213,cs),
(670,346,o),
(575,401,o),
(453,423,c),
(453,392,l),
(541,413,o),
(622,478,o),
(622,578,cs),
(622,705,o),
(521,752,o),
(381,752,cs),
(132,752,l),
(132,0,l)
);
},
{
closed = 1;
nodes = (
(222,692,l),
(381,692,ls),
(470,692,o),
(526,661,o),
(526,574,cs),
(526,466,o),
(449,434,o),
(365,434,cs),
(222,434,l)
);
},
{
closed = 1;
nodes = (
(222,374,l),
(366,374,ls),
(509,374,o),
(571,307,o),
(571,216,cs),
(571,116,o),
(497,60,o),
(366,60,cs),
(222,60,l)
);
}
);
width = 727;
}
);
metricLeft = "=H";
unicode = 66;
},
{
glyphname = C;
lastChange = "2025-05-21 02:08:14 +0000";
layers = (
{
anchors = (
{
name = _bottom;
pos = (447,-14);
},
{
name = bottom;
pos = (424,-14);
},
{
name = top;
pos = (424,768);
}
);
backgroundImage = {
imagePath = "specimen-images/12pt-capC.jpg";
locked = 1;
pos = (-3,-227);
scale = (10.7,10.7);
};
layerId = m01;
shapes = (
{
closed = 1;
nodes = (
(518,-14,o),
(602,6,o),
(683,68,c),
(683,203,ls),
(683,217,o),
(675,221,o),
(668,221,cs),
(661,221,o),
(652,217,o),
(649,206,cs),
(618,91,o),
(538,26,o),
(414,26,cs),
(252,26,o),
(137,174,o),
(137,377,cs),
(137,580,o),
(252,728,o),
(414,728,cs),
(538,728,o),
(619,664,o),
(649,548,cs),
(652,537,o),
(661,533,o),
(668,533,cs),
(675,533,o),
(683,537,o),
(683,551,cs),
(683,683,l),
(606,740,o),
(525,768,o),
(434,768,cs),
(217,768,o),
(48,602,o),
(48,377,cs),
(48,152,o),
(214,-14,o),
(439,-14,cs)
);
},
{
closed = 0;
nodes = (
(683,71,l),
(683,189,l)
);
}
);
width = 728;
},
{
backgroundImage = {
imagePath = "specimen-images/12pt-capC.jpg";
locked = 1;
pos = (-4,-227);
scale = (10.7,10.7);
};
layerId = m003;
shapes = (
{
closed = 1;
nodes = (
(677,683,l),
(592,746,o),
(515,768,o),
(413,768,cs),
(210,768,o),
(32,606,o),
(32,374,cs),
(32,142,o),
(210,-16,o),
(413,-16,cs),
(515,-16,o),
(592,6,o),
(677,69,c),
(677,191,ls),
(677,197,o),
(673,201,o),
(667,201,cs),
(654,201,ls),
(649,201,o),
(645,199,o),
(643,193,cs),
(593,89,o),
(513,41,o),
(403,41,cs),
(243,41,o),
(132,177,o),
(132,374,cs),
(132,571,o),
(243,711,o),
(403,711,cs),
(513,711,o),
(594,664,o),
(643,559,cs),
(645,553,o),
(649,551,o),
(654,551,cs),
(667,551,ls),
(673,551,o),
(677,555,o),
(677,561,cs)
);
}
);
width = 722;
}
);
metricLeft = "=O";
unicode = 67;
},
{
glyphname = D;
lastChange = "2025-05-17 15:56:00 +0000";
layers = (
{
anchors = (
{
name = bottom;
pos = (411,0);
},
{
name = center;
pos = (206,376);
},
{
name = top;
pos = (411,752);
}
);
backgroundImage = {
imagePath = "specimen-images/12pt-capD.jpg";
locked = 1;
pos = (30,-220);
scale = (10.7,10.7);
};
hints = (
{
name = _corner.leftBottomSerif;
origin = (0,0);
type = Corner;
},
{
name = _corner.leftBottomSerif;
options = 1;
origin = (0,8);
scale = (-1,1);
type = Corner;
}
);
layerId = m01;
shapes = (
{
closed = 1;
nodes = (
(129,0,l),
(407,0,ls),
(608,0,o),
(774,156,o),
(774,381,cs),
(774,596,o),
(608,752,o),
(407,752,cs),
(129,752,l)
);
},
{
closed = 1;
nodes = (
(212,712,l),
(407,712,ls),
(567,712,o),
(685,576,o),
(685,383,cs),
(685,130,o),
(567,53,o),
(407,40,cs),
(212,42,l)
);
}
);
width = 822;
},
{
backgroundImage = {
imagePath = "specimen-images/12pt-capD.jpg";
locked = 1;
pos = (48,-220);
scale = (10.7,10.7);
};
hints = (
{
name = _corner.leftBottomSerif;
origin = (0,0);
type = Corner;
},
{
name = _corner.leftBottomSerif;
options = 1;
origin = (0,8);
scale = (-1,1);
type = Corner;
}
);
layerId = m003;
shapes = (
{
closed = 1;
nodes = (
(132,-10,l),
(415,-10,ls),
(617,-10,o),
(788,149,o),
(788,381,cs),
(788,603,o),
(618,762,o),
(415,762,cs),
(132,762,l)
);
},
{
closed = 1;
nodes = (
(225,702,l),
(415,702,ls),
(573,702,o),
(688,570,o),
(688,383,cs),
(688,137,o),
(575,50,o),
(415,50,c),
(225,52,l)
);
}
);
width = 820;
}
);
metricLeft = "=H";
metricRight = "=O";
unicode = 68;
},
{
glyphname = E;
lastChange = "2025-05-17 15:56:00 +0000";
layers = (
{
anchors = (
{
name = bottom;
pos = (359,0);
},
{
name = ogonek;
pos = (647,19);
},
{
name = top;
pos = (359,752);
},
{
name = topleft;
pos = (20,752);
}
);
backgroundImage = {
imagePath = "specimen-images/12pt-capE.jpg";
locked = 1;
pos = (14,-219);
scale = (10.7,10.7);
};
hints = (
{
name = _corner.rightBottomSerif;
origin = (0,14);
type = Corner;
},
{
name = _corner.leftBottomSerif;
origin = (0,15);
type = Corner;
},
{
name = _corner.rightBottomSerif;
origin = (0,14);
type = Corner;
},
{
name = _corner.rightBottomSerif;
origin = (0,14);
type = Corner;
}
);
layerId = m01;
shapes = (
{
closed = 1;
nodes = (
(215,712,l),
(491,712,ls),
(521,712,o),
(558,688,o),
(606,627,cs),
(615,615,o),
(633,627,o),
(627,640,cs),
(612,673,o),
(603,707,o),
(596,744,cs),
(595,749,o),
(591,752,o),
(585,752,c),
(132,752,l),
(129,0,l),
(609,0,ls),
(615,0,o),
(619,3,o),
(620,8,cs),
(630,53,o),
(645,99,o),
(664,140,cs),
(670,153,o),
(652,165,o),
(643,153,cs),
(595,92,o),
(545,40,o),
(525,40,cs),
(212,40,l)
);
},
{
closed = 1;
nodes = (
(424,422,ls),
(479,422,o),
(498,397,o),
(498,361,cs),
(498,345,o),
(523,345,o),
(522,361,cs),
(520,397,o),
(520,488,o),
(522,524,cs),
(523,540,o),
(498,540,o),
(498,524,cs),
(498,488,o),
(479,462,o),
(424,462,cs),
(202,462,l),
(202,422,l)
);
}
);
width = 718;
},
{
backgroundImage = {
imagePath = "specimen-images/12pt-capE.jpg";
locked = 1;
pos = (32,-219);
scale = (10.7,10.7);
};
hints = (
{
name = _corner.rightBottomSerif;
origin = (0,16);
type = Corner;
},
{
name = _corner.leftBottomSerif;
origin = (0,17);
type = Corner;
},
{
name = _corner.rightBottomSerif;
origin = (0,16);
type = Corner;
},
{
name = _corner.rightBottomSerif;
origin = (0,16);
type = Corner;
},
{
name = _corner.rightBottomSerif;
origin = (1,0);
type = Corner;
},
{
name = _corner.leftBottomSerif;
origin = (1,3);
type = Corner;
}
);
layerId = m003;
shapes = (
{
closed = 1;
nodes = (
(228,692,l),
(489,692,ls),
(528,692,o),
(562,670,o),
(604,619,cs),
(608,614,o),
(613,613,o),
(618,617,cs),
(633,629,ls),
(637,632,o),
(640,637,o),
(638,642,cs),
(609,736,l),
(607,745,o),
(603,752,o),
(593,752,cs),
(135,752,l),
(132,-1,l),
(617,-1,ls),
(627,-1,o),
(631,6,o),
(633,15,c),
(674,137,ls),
(676,142,o),
(674,147,o),
(670,150,cs),
(655,162,ls),
(650,166,o),
(645,165,o),
(641,160,cs),
(597,105,o),
(551,59,o),
(523,59,cs),
(225,59,l)
);
},
{
closed = 1;
nodes = (
(535,472,l),
(205,472,l),
(205,412,l),
(535,412,l)
);
}
);
width = 723;
}
);
metricLeft = "=H";
unicode = 69;
},
{
glyphname = F;
lastChange = "2025-05-17 15:56:00 +0000";
layers = (
{
backgroundImage = {
imagePath = "specimen-images/12pt-capF.jpg";
locked = 1;
pos = (23,-220);
scale = (10.7,10.7);
};
hints = (
{
name = _corner.leftBottomSerif;
origin = (0,15);
type = Corner;
},
{
name = _corner.rightBottomSerif;
origin = (0,16);
type = Corner;
},
{
name = _corner.rightBottomSerif;
origin = (0,14);
type = Corner;
}
);
layerId = m01;
shapes = (
{
closed = 1;
nodes = (
(210,712,l),
(468,712,ls),
(498,712,o),
(535,688,o),
(583,627,cs),
(592,615,o),
(610,627,o),
(604,640,cs),
(589,673,o),
(580,709,o),
(573,746,cs),
(572,751,o),
(568,752,o),
(562,752,c),
(130,752,l),
(130,0,l),
(210,0,l)
);
},
{
closed = 1;
nodes = (
(403,372,ls),
(458,372,o),
(477,347,o),
(477,311,cs),
(477,295,o),
(502,295,o),
(501,311,cs),
(499,347,o),
(499,438,o),
(501,474,cs),
(502,490,o),
(477,490,o),
(477,474,cs),
(477,438,o),
(458,412,o),
(403,412,cs),
(201,412,l),
(201,372,l)
);
}
);
width = 633;
},
{
backgroundImage = {
imagePath = "specimen-images/12pt-capF.jpg";
locked = 1;
pos = (40,-220);
scale = (10.7,10.7);
};
hints = (
{
name = _corner.leftBottomSerif;
origin = (0,16);
type = Corner;
},
{
name = _corner.rightBottomSerif;
origin = (0,17);
type = Corner;
},
{
name = _corner.rightBottomSerif;
origin = (0,15);
type = Corner;
},
{
name = _corner.rightBottomSerif;
origin = (1,0);
type = Corner;
},
{
name = _corner.leftBottomSerif;
origin = (1,3);
type = Corner;
}
);
layerId = m003;
shapes = (
{
closed = 1;
nodes = (
(488,692,ls),
(527,692,o),
(561,670,o),
(603,619,cs),
(607,614,o),
(612,613,o),
(617,617,cs),
(632,629,ls),
(636,632,o),
(639,637,o),
(637,642,cs),
(608,736,ls),
(606,745,o),
(602,752,o),
(592,752,cs),
(132,752,l),
(132,0,l),
(222,0,l),
(222,692,l)
);
},
{
closed = 1;
nodes = (
(534,422,l),
(204,422,l),
(204,362,l),
(534,362,l)
);
}
);
width = 675;
}
);
metricLeft = "=H";
unicode = 70;
},
{
glyphname = G;
lastChange = "2025-05-17 15:56:00 +0000";
layers = (
{
backgroundImage = {
imagePath = "specimen-images/12pt-capG.jpg";
locked = 1;
pos = (-17,-223);
scale = (10.7,10.7);
};
hints = (
{
name = _corner.rightBottomSerif;
origin = (0,2);
type = Corner;
},
{
name = _corner.leftBottomSerif;
origin = (0,1);
type = Corner;
}
);
layerId = m01;
shapes = (
{
closed = 1;
nodes = (
(708,64,l),
(708,444,l),
(638,444,l),
(638,64,l)
);
},
{
closed = 1;
nodes = (
(48,152,o),
(232,-16,o),
(434,-16,cs),
(568,-16,o),
(670,33,o),
(727,77,cs),
(736,84,o),
(734,96,o),
(724,97,cs),
(696,99,o),
(691,118,o),
(668,128,c),
(633,82,o),
(571,25,o),
(434,25,cs),
(272,25,o),
(138,174,o),
(138,377,cs),
(138,580,o),
(252,728,o),
(414,728,cs),
(538,728,o),
(619,664,o),
(649,548,cs),
(652,537,o),
(661,533,o),
(668,533,cs),
(675,533,o),
(683,537,o),
(683,551,cs),
(683,683,l),
(606,740,o),
(525,768,o),
(434,768,cs),
(232,768,o),
(48,602,o),
(48,377,cs)
);
}
);
width = 832;
},
{
backgroundImage = {
imagePath = "specimen-images/12pt-capG.jpg";
locked = 1;
pos = (-18,-223);
scale = (10.7,10.7);
};
hints = (
{
name = _corner.rightBottomSerif;
origin = (0,7);
type = Corner;
},
{
name = _corner.leftBottomSerif;
origin = (0,6);
type = Corner;
}
);
layerId = m003;
shapes = (
{
closed = 1;
nodes = (
(544,-16,o),
(637,22,o),
(698,63,cs),
(701,65,o),
(702,69,o),
(702,74,cs),
(702,464,l),
(622,464,l),
(622,110,l),
(584,76,o),
(524,44,o),
(423,44,cs),
(263,44,o),
(132,180,o),
(132,377,cs),
(132,573,o),
(252,709,o),
(410,711,cs),
(516,709,o),
(595,662,o),
(643,559,c),
(645,553,o),
(649,551,o),
(654,551,cs),
(667,551,ls),
(673,551,o),
(677,555,o),
(677,561,cs),
(677,683,l),
(592,746,o),
(515,768,o),
(413,768,cs),
(409,768,ls),
(208,766,o),
(32,607,o),
(32,377,cs),
(32,145,o),
(220,-16,o),
(423,-16,cs)
);
}
);
width = 811;
}
);
metricLeft = "=O";
unicode = 71;
},
{
glyphname = H;
lastChange = "2025-05-17 15:56:00 +0000";
layers = (
{
backgroundImage = {
imagePath = "specimen-images/12pt-capH.jpg";
locked = 1;
pos = (24,-219);
scale = (10.7,10.7);
};
hints = (
{
name = _corner.leftBottomSerif;
origin = (0,0);
type = Corner;
},
{
name = _corner.rightBottomSerif;
origin = (0,1);
type = Corner;
},
{
name = _corner.leftBottomSerif;
origin = (1,0);
type = Corner;
},
{
name = _corner.rightBottomSerif;
origin = (1,1);
type = Corner;
},
{
name = _corner.leftBottomSerif;
origin = (0,0);
type = Corner;
},
{
name = _corner.leftBottomSerif;
options = 1;
origin = (0,3);
scale = (-1,1);
type = Corner;
},
{
name = _corner.rightBottomSerif;
options = 1;
origin = (0,2);
scale = (1,-1);
type = Corner;
},
{
name = _corner.leftBottomSerif;
options = 1;
origin = (1,0);
scale = (1,-1);
type = Corner;
},
{
name = _corner.leftBottomSerif;
options = 1;
origin = (1,3);
scale = (1,-1);
type = Corner;
},
{
name = _corner.rightBottomSerif;
options = 1;
origin = (1,2);
scale = (1,-1);
type = Corner;
}
);
layerId = m01;
shapes = (
{
closed = 1;
nodes = (
(129,0,l),
(209,0,l),
(209,752,l),
(129,752,l)
);
},
{
closed = 1;
nodes = (
(630,0,l),
(710,0,l),
(710,752,l),
(630,752,l)
);
},
{
closed = 1;
nodes = (
(193,420,l),
(653,420,l),
(653,460,l),
(193,460,l)
);
}
);
width = 840;
},
{
backgroundImage = {
imagePath = "specimen-images/12pt-capH.jpg";
locked = 1;
pos = (42,-219);
scale = (10.7,10.7);
};
hints = (
{
name = _corner.leftBottomSerif;
origin = (0,0);
type = Corner;
},
{
name = _corner.rightBottomSerif;
origin = (0,1);
type = Corner;
},
{
name = _corner.leftBottomSerif;
origin = (1,0);
type = Corner;
},
{
name = _corner.rightBottomSerif;
origin = (1,1);
type = Corner;
},
{
name = _corner.leftBottomSerif;
origin = (0,0);
type = Corner;
},
{
name = _corner.leftBottomSerif;
options = 1;
origin = (0,3);
scale = (-1,1);
type = Corner;
},
{
name = _corner.rightBottomSerif;
options = 1;
origin = (0,2);
scale = (1,-1);
type = Corner;
},
{
name = _corner.leftBottomSerif;
options = 1;
origin = (1,0);
scale = (1,-1);
type = Corner;
},
{
name = _corner.leftBottomSerif;
options = 1;
origin = (1,3);
scale = (1,-1);
type = Corner;
},
{
name = _corner.rightBottomSerif;
options = 1;
origin = (1,2);
scale = (1,-1);
type = Corner;
}
);
layerId = m003;
shapes = (
{
closed = 1;
nodes = (
(132,-1,l),
(222,-1,l),
(222,752,l),
(132,752,l)
);
},
{
closed = 1;
nodes = (
(633,-1,l),
(723,-1,l),
(723,752,l),
(633,752,l)
);
},
{
closed = 1;
nodes = (
(196,410,l),
(666,410,l),
(666,470,l),
(196,470,l)
);
}
);
width = 855;
}
);
metricRight = "=|";
unicode = 72;
},
{
glyphname = I;
lastChange = "2025-05-17 15:56:00 +0000";
layers = (
{
anchors = (
{
name = bottom;
pos = (171,0);
},
{
name = ogonek;
pos = (308,10);
},
{
name = top;
pos = (171,752);
},
{
name = topleft;
pos = (20,752);
}
);
backgroundImage = {
crop = (0,0,25,112);
imagePath = "specimen-images/12pt-capI.jpg";
locked = 1;
pos = (23,-223);
scale = (10.7,10.7);
};
hints = (
{
name = _corner.leftBottomSerif;
origin = (0,0);
type = Corner;
},
{
name = _corner.rightBottomSerif;
origin = (0,1);
type = Corner;
},
{
name = _corner.rightBottomSerif;
options = 1;
origin = (0,2);
scale = (1,-1);
type = Corner;
},
{
name = _corner.leftBottomSerif;
options = 1;
origin = (0,3);
scale = (-1,1);
type = Corner;
}
);
layerId = m01;
shapes = (
{
closed = 1;
nodes = (
(129,0,l),
(212,0,l),
(212,752,l),
(129,752,l)
);
}
);
width = 342;
},
{
backgroundImage = {
imagePath = "specimen-images/12pt-capI.jpg";
locked = 1;
pos = (41,-223);
scale = (10.7,10.7);
};
hints = (
{
name = _corner.leftBottomSerif;
origin = (0,0);
type = Corner;
},
{
name = _corner.rightBottomSerif;
origin = (0,1);
type = Corner;
},
{
name = _corner.rightBottomSerif;
options = 1;
origin = (0,2);
scale = (1,-1);
type = Corner;
},
{
name = _corner.leftBottomSerif;
options = 1;
origin = (0,3);
scale = (-1,1);
type = Corner;
}
);
layerId = m003;
shapes = (
{
closed = 1;
nodes = (
(132,0,l),
(225,0,l),
(225,752,l),
(132,752,l)
);
}
);
width = 357;
}
);
metricLeft = "=H";
metricRight = "=H";
unicode = 73;
},
{
glyphname = J;
lastChange = "2025-05-17 15:56:00 +0000";
layers = (
{
backgroundImage = {
imagePath = "specimen-images/12pt-capJ.jpg";
locked = 1;
pos = (-25,-233);
scale = (10.7,10.7);
};
hints = (
{
name = _corner.rightBottomSerif;
options = 1;
origin = (0,22);
scale = (1,-1);
type = Corner;
},
{
name = _corner.leftBottomSerif;
options = 1;
origin = (0,23);
scale = (-1,1);
type = Corner;
}
);
layerId = m01;
shapes = (
{
closed = 1;
nodes = (
(281,160,ls),
(281,55,o),
(249,25,o),
(186,25,cs),
(129,25,o),
(98,50,o),
(98,69,cs),
(98,91,o),
(109,103,o),
(109,116,cs),
(109,140,o),
(92,152,o),
(65,152,cs),
(34,152,o),
(23,130,o),
(23,98,cs),
(23,30,o),
(101,-16,o),
(186,-16,cs),
(288,-16,o),
(364,52,o),
(364,162,cs),
(364,752,l),
(280,752,l)
);
}
);
width = 479;
},
{
backgroundImage = {
imagePath = "specimen-images/12pt-capJ.jpg";
locked = 1;
pos = (-25,-233);
scale = (10.7,10.7);
};
hints = (
{
name = _corner.rightBottomSerif;
options = 1;
origin = (0,22);
scale = (1,-1);
type = Corner;
},
{
name = _corner.leftBottomSerif;
options = 1;
origin = (0,23);
scale = (-1,1);
type = Corner;
}
);
layerId = m003;
shapes = (
{
closed = 1;
nodes = (
(266,170,ls),
(266,73,o),
(218,50,o),
(176,45,cs),
(145,41,o),
(96,46,o),
(96,82,cs),
(96,91,o),
(104,99,o),
(104,115,cs),
(104,145,o),
(84,172,o),
(55,172,cs),
(20,172,o),
(6,143,o),
(6,112,cs),
(6,50,o),
(80,-16,o),
(179,-16,cs),
(303,-16,o),
(359,56,o),
(359,172,cs),
(358,753,l),
(265,753,l)
);
}
);
width = 490;
}
);
metricRight = "=U";
unicode = 74;
},
{
glyphname = K;
lastChange = "2025-05-17 15:56:00 +0000";
layers = (
{
backgroundImage = {
imagePath = "specimen-images/12pt-capK.jpg";
locked = 1;
pos = (-3,-220);
scale = (10.7,10.7);
};
hints = (
{
name = _corner.rightBottomSerif;
origin = (0,1);
scale = (1,-1);
type = Corner;
},
{
name = _corner.leftBottomSerif;
options = 1;
origin = (0,2);
scale = (-1,1);
type = Corner;
},
{
name = _corner.leftBottomSerif;
origin = (2,0);
type = Corner;
},
{
name = _corner.rightBottomSerif;
origin = (2,1);
type = Corner;
},
{
name = _corner.rightBottomSerif;
options = 1;
origin = (2,2);
scale = (1,-1);
type = Corner;
},
{
name = _corner.leftBottomSerif;
options = 1;
origin = (2,3);
scale = (-1,1);
type = Corner;
}
);
layerId = m01;
shapes = (
{
closed = 1;
nodes = (
(175,281,l),
(666,752,l),
(595,752,l),
(147,320,l)
);
},
{
closed = 1;
nodes = (
(761,-103,o),
(780,-79,o),
(750,-58,c),
(585,96,o),
(450,342,o),
(383,485,c),
(312,414,l),
(390,262,o),
(560,4,o),
(727,-85,cs)
);
},
{
closed = 1;
nodes = (
(129,0,l),
(212,0,l),
(212,752,l),
(129,752,l)
);
}
);
width = 731;
},
{
backgroundImage = {
imagePath = "specimen-images/12pt-capK.jpg";
locked = 1;
pos = (15,-220);
scale = (10.7,10.7);
};
hints = (
{
name = _corner.rightBottomSerif;
origin = (0,1);
scale = (1,-1);
type = Corner;
},
{
name = _corner.leftBottomSerif;
options = 1;
origin = (0,2);
scale = (-1,1);
type = Corner;
},
{
name = _corner.leftBottomSerif;
origin = (2,0);
type = Corner;
},
{
name = _corner.rightBottomSerif;
origin = (2,1);
type = Corner;
},
{
name = _corner.rightBottomSerif;
options = 1;
origin = (2,2);
scale = (1,-1);
type = Corner;
},
{
name = _corner.leftBottomSerif;
options = 1;
origin = (2,3);
scale = (-1,1);
type = Corner;
}
);
layerId = m003;
shapes = (
{
closed = 1;
nodes = (
(183,270,l),
(695,752,l),
(602,752,l),
(146,322,l)
);
},
{
closed = 1;
nodes = (
(755,-57,ls),
(758,-51,o),
(757,-47,o),
(753,-43,cs),
(591,117,o),
(447,352,o),
(381,486,c),
(312,416,l),
(392,268,o),
(561,8,o),
(724,-89,cs),
(730,-92,o),
(735,-90,o),
(738,-85,cs)
);
},
{
closed = 1;
nodes = (
(132,0,l),
(225,0,l),
(225,752,l),
(132,752,l)
);
}
);
width = 750;
}
);
metricLeft = "=H";
unicode = 75;
},
{
glyphname = L;
kernRight = L;
lastChange = "2025-05-17 15:56:00 +0000";
layers = (
{
anchors = (
{
name = bottom;
pos = (322,0);
},
{
name = center;
pos = (322,376);
},
{
name = top;
pos = (171,752);
},
{
name = topright;
pos = (370,800);
}
);
backgroundImage = {
imagePath = "specimen-images/12pt-capL.jpg";
locked = 1;
pos = (36,-218);
scale = (10.7,10.7);
};
hints = (
{
name = _corner.rightBottomSerif;
origin = (0,15);
type = Corner;
},
{
name = _corner.rightBottomSerif;
origin = (0,15);
type = Corner;
},
{
name = _corner.leftBottomSerif;
origin = (0,16);
type = Corner;
},
{
name = _corner.leftBottomSerif;
origin = (0,14);
type = Corner;
}
);
layerId = m01;
shapes = (
{
closed = 1;
nodes = (
(574,0,ls),
(580,0,o),
(584,3,o),
(585,8,cs),
(595,53,o),
(610,99,o),
(629,140,cs),
(635,153,o),
(617,165,o),
(608,153,cs),
(560,92,o),
(510,40,o),
(490,40,cs),
(213,40,l),
(216,752,l),
(132,752,l),
(129,0,l)
);
}
);
width = 635;
},
{
backgroundImage = {
imagePath = "specimen-images/12pt-capL.jpg";
locked = 1;
pos = (54,-218);
scale = (10.7,10.7);
};
hints = (
{
name = _corner.rightBottomSerif;
origin = (0,17);
type = Corner;
},
{
name = _corner.rightBottomSerif;
origin = (0,17);
type = Corner;
},
{
name = _corner.leftBottomSerif;
origin = (0,18);
type = Corner;
},
{
name = _corner.leftBottomSerif;
origin = (0,16);
type = Corner;
}
);
layerId = m003;
shapes = (
{
closed = 1;
nodes = (
(582,0,ls),
(592,0,o),
(596,7,o),
(598,16,c),
(639,138,ls),
(641,143,o),
(639,148,o),
(635,151,cs),
(620,163,ls),
(615,167,o),
(610,166,o),
(606,161,cs),
(562,106,o),
(516,60,o),
(488,60,cs),
(226,60,l),
(229,752,l),
(135,752,l),
(132,0,l)
);
}
);
width = 651;
}
);
metricLeft = "=H";
unicode = 76;
},
{
glyphname = Lslash;
lastChange = "2025-05-17 15:56:00 +0000";
layers = (
{
hints = (
{
name = _corner.leftBottomSerif;
origin = (1,14);
type = Corner;
},
{
name = _corner.rightBottomSerif;
origin = (1,15);
type = Corner;
},
{
name = _corner.leftBottomSerif;
origin = (1,16);
type = Corner;
}
);
layerId = m01;
shapes = (
{
closed = 1;
nodes = (
(62,290,l),
(282,444,l),
(282,477,l),
(62,323,l)
);
},
{
closed = 1;
nodes = (
(574,0,ls),
(580,0,o),
(584,3,o),
(585,8,cs),
(595,53,o),
(610,99,o),
(629,140,cs),
(635,153,o),
(617,165,o),
(608,153,cs),
(560,92,o),
(510,40,o),
(490,40,cs),
(213,40,l),
(216,752,l),
(132,752,l),
(129,0,l)
);
}
);
width = 645;
},
{
layerId = m003;
width = 600;
}
);
metricRight = "=L";
unicode = 321;
},
{
glyphname = M;
lastChange = "2025-05-17 15:56:00 +0000";
layers = (
{
backgroundImage = {
imagePath = "specimen-images/12pt-capM.jpg";
locked = 1;
pos = (16,-220);
scale = (10.7,10.7);
};
hints = (
{
name = _corner.leftBottomSerif;
options = 1;
origin = (1,2);
scale = (1,-1);
type = Corner;
},
{
name = _corner.rightBottomSerif;
origin = (1,1);
scale = (-1,1);
type = Corner;
},
{
name = _corner.leftBottomSerif;
origin = (2,0);
type = Corner;
},
{
name = _corner.rightBottomSerif;
options = 1;
origin = (2,1);
type = Corner;
}
);
layerId = m01;
shapes = (
{
closed = 1;
nodes = (
(487,205,l),
(265,742,ls),
(262,750,o),
(256,754,o),
(247,754,cs),
(229,753,o),
(216,751,o),
(204,751,cs),
(173,751,o),
(155,756,o),
(116,756,cs),
(95,756,o),
(95,724,o),
(116,724,cs),
(155,724,o),
(195,716,o),
(201,701,cs),
(460,68,ls),
(463,60,o),
(469,56,o),
(476,56,cs),
(476,56,ls),
(483,56,o),
(488,60,o),
(491,68,cs),
(725,703,l),
(758,704,l),
(767,717,o),
(804,727,o),
(843,727,cs),
(864,727,o),
(864,759,o),
(843,759,cs),
(804,759,o),
(786,754,o),
(750,754,cs),
(739,754,o),
(721,757,o),
(707,757,cs),
(698,757,o),
(692,754,o),
(689,745,c)
);
},
{
closed = 1;
nodes = (
(691,742,l),
(789,0,l),
(867,0,l),
(769,742,l)
);
},
{
closed = 1;
nodes = (
(83,0,l),
(135,0,l),
(233,742,l),
(181,742,l)
);
}
);
width = 950;
},
{
backgroundImage = {
imagePath = "specimen-images/12pt-capM.jpg";
locked = 1;
pos = (26,-220);
scale = (10.7,10.7);
};
hints = (
{
name = _corner.leftBottomSerif;
options = 1;
origin = (0,16);
scale = (1,-1);
type = Corner;
},
{
name = _corner.rightBottomSerif;
origin = (0,15);
scale = (-1,1);
type = Corner;
},
{
name = _corner.leftBottomSerif;
origin = (0,3);
type = Corner;
},
{
name = _corner.rightBottomSerif;
options = 1;
origin = (0,4);
type = Corner;
},
{
name = _corner.rightBottomSerif;
options = 1;
origin = (0,2);
type = Corner;
},
{
name = _corner.leftBottomSerif;
origin = (0,17);
type = Corner;
}
);
layerId = m003;
shapes = (
{
closed = 1;
nodes = (
(487,220,l),
(268,752,l),
(177,752,l),
(77,0,l),
(139,0,l),
(223,631,l),
(452,72,ls),
(454,66,o),
(458,64,o),
(463,64,cs),
(487,64,ls),
(492,64,o),
(497,66,o),
(499,72,cs),
(702,625,l),
(785,0,l),
(873,0,l),
(773,752,l),
(685,752,l)
);
}
);
width = 950;
}
);
metricRight = "=|";
unicode = 77;
},
{
glyphname = N;
lastChange = "2025-05-17 15:56:00 +0000";
layers = (
{
anchors = (
{
name = bottom;
pos = (413,0);
},
{
name = top;
pos = (413,752);
}
);
backgroundImage = {
imagePath = "specimen-images/10pt-capN.jpg";
locked = 1;
pos = (24,-334);
scale = (12.934,12.934);
};
hints = (
{
name = _corner.leftBottomSerif;
origin = (0,23);
type = Corner;
},
{
name = _corner.rightBottomSerif;
options = 1;
origin = (0,24);
type = Corner;
},
{
name = _corner.leftBottomSerif;
origin = (0,4);
type = Corner;
},
{
name = _corner.rightBottomSerif;
options = 1;
origin = (0,5);
type = Corner;
}
);
layerId = m01;
shapes = (
{
closed = 1;
nodes = (
(685,0,ls),
(694,0,o),
(700,6,o),
(700,15,cs),
(697,752,l),
(646,752,l),
(649,127,l),
(219,741,ls),
(214,748,o),
(209,750,o),
(200,750,cs),
(189,749,o),
(177,747,o),
(166,747,cs),
(130,747,o),
(112,752,o),
(73,752,cs),
(52,752,o),
(52,720,o),
(73,720,cs),
(104,720,o),
(134,714,o),
(149,705,c),
(152,0,l),
(202,0,l),
(199,641,l),
(667,9,ls),
(672,2,o),
(677,0,o),
(685,0,cs)
);
}
);
width = 826;
},
{
backgroundImage = {
imagePath = "specimen-images/10pt-capN.jpg";
locked = 1;
pos = (22,-334);
scale = (12.934,12.934);
};
hints = (
{
name = _corner.leftBottomSerif;
origin = (0,9);
type = Corner;
},
{
name = _corner.rightBottomSerif;
options = 1;
origin = (0,10);
type = Corner;
},
{
name = _corner.leftBottomSerif;
origin = (0,4);
type = Corner;
},
{
name = _corner.rightBottomSerif;
options = 1;
origin = (0,5);
type = Corner;
},
{
name = _corner.rightBottomSerif;
origin = (0,8);
type = Corner;
}
);
layerId = m003;
shapes = (
{
closed = 1;
nodes = (
(697,-10,ls),
(710,-10,o),
(717,3,o),
(717,15,cs),
(714,762,l),
(653,762,l),
(656,145,l),
(207,752,l),
(132,752,l),
(135,-10,l),
(195,-10,l),
(192,623,l),
(651,3,ls),
(658,-7,o),
(662,-10,o),
(673,-10,cs)
);
}
);
width = 846;
}
);
metricLeft = "=H";
metricRight = "=H";
unicode = 78;
},
{
glyphname = O;
lastChange = "2025-05-17 15:56:00 +0000";
layers = (
{
anchors = (
{
name = bottom;
pos = (414,0);
},
{
name = center;
pos = (414,376);
},
{
name = ogonek;
pos = (744,10);
},
{
name = top;
pos = (414,752);
},
{
name = topleft;
pos = (20,752);
},
{
name = topright;
pos = (807,752);
}
);
backgroundImage = {
imagePath = "specimen-images/12pt-capO.jpg";
pos = (18970,817);
scale = (10.7,10.7);
};
layerId = m01;
shapes = (
{
closed = 1;
nodes = (
(690,174,o),
(575,28,o),
(414,28,cs),
(252,28,o),
(137,174,o),
(137,377,cs),
(137,580,o),
(252,727,o),
(414,727,cs),
(575,727,o),
(690,580,o),
(690,377,cs)
);
},
{
closed = 1;
nodes = (
(48,152,o),
(212,-14,o),
(414,-14,cs),
(615,-14,o),
(779,152,o),
(779,377,cs),
(779,602,o),
(615,768,o),
(414,768,cs),
(212,768,o),
(48,602,o),
(48,377,cs)
);
},
{
closed = 1;
nodes = (
(690,174,o),
(575,28,o),
(414,28,cs),
(252,28,o),
(137,174,o),
(137,377,cs),
(137,580,o),
(252,727,o),
(414,727,cs),
(575,727,o),
(690,580,o),
(690,377,cs)
);
},
{
closed = 1;
nodes = (
(48,152,o),
(212,-14,o),
(414,-14,cs),
(615,-14,o),
(779,152,o),
(779,377,cs),
(779,602,o),
(615,768,o),
(414,768,cs),
(212,768,o),
(48,602,o),
(48,377,cs)
);
}
);
width = 827;
},
{
backgroundImage = {
imagePath = "specimen-images/12pt-capO.jpg";
pos = (18970,817);
scale = (10.7,10.7);
};
layerId = m003;
shapes = (
{
closed = 1;
nodes = (
(675,180,o),
(563,42,o),
(404,42,cs),
(244,42,o),
(132,180,o),
(132,377,cs),
(132,574,o),
(244,711,o),
(404,711,cs),
(563,711,o),
(675,574,o),
(675,377,cs)
);
},
{
closed = 1;
nodes = (
(32,146,o),
(201,-15,o),
(404,-15,cs),
(606,-15,o),
(775,146,o),
(775,377,cs),
(775,608,o),
(606,768,o),
(404,768,cs),
(201,768,o),
(32,608,o),
(32,377,cs)
);
}
);
width = 807;
}
);
metricRight = "=|";
unicode = 79;
},
{
glyphname = Oslash;
lastChange = "2025-05-17 15:56:00 +0000";
layers = (
{
layerId = m01;
shapes = (
{
closed = 1;
nodes = (
(690,174,o),
(575,28,o),
(414,28,cs),
(252,28,o),
(137,174,o),
(137,377,cs),
(137,580,o),
(252,727,o),
(414,727,cs),
(575,727,o),
(690,580,o),
(690,377,cs)
);
},
{
closed = 1;
nodes = (
(48,152,o),
(212,-14,o),
(414,-14,cs),
(615,-14,o),
(779,152,o),
(779,377,cs),
(779,602,o),
(615,768,o),
(414,768,cs),
(212,768,o),
(48,602,o),
(48,377,cs)
);
},
{
closed = 1;
nodes = (
(690,174,o),
(575,28,o),
(414,28,cs),
(252,28,o),
(137,174,o),
(137,377,cs),
(137,580,o),
(252,727,o),
(414,727,cs),
(575,727,o),
(690,580,o),
(690,377,cs)
);
},
{
closed = 1;
nodes = (
(48,152,o),
(212,-14,o),
(414,-14,cs),
(615,-14,o),
(779,152,o),
(779,377,cs),
(779,602,o),
(615,768,o),
(414,768,cs),
(212,768,o),
(48,602,o),
(48,377,cs)
);
},
{
closed = 1;
nodes = (
(176,6,l),
(214,-16,l),
(654,746,l),
(616,768,l)
);
}
);
width = 827;
},
{
layerId = m003;
width = 600;
}
);
unicode = 216;
},
{
glyphname = OE;
lastChange = "2025-05-17 15:56:00 +0000";
layers = (
{
anchors = (
{
name = bottom;
pos = (414,0);
},
{
name = center;
pos = (414,376);
},
{
name = ogonek;
pos = (744,10);
},
{
name = top;
pos = (414,752);
},
{
name = topleft;
pos = (20,752);
},
{
name = topright;
pos = (807,752);
}
);
layerId = m01;
shapes = (
{
closed = 1;
nodes = (
(651,422,l),
(861,422,ls),
(916,422,o),
(935,397,o),
(935,361,cs),
(935,345,o),
(960,345,o),
(959,361,cs),
(957,397,o),
(957,488,o),
(959,524,cs),
(960,540,o),
(935,540,o),
(935,524,cs),
(935,488,o),
(916,462,o),
(861,462,cs),
(651,462,l),
(652,712,l),
(928,712,ls),
(958,712,o),
(995,688,o),
(1043,627,cs),
(1052,615,o),
(1070,627,o),
(1064,640,cs),
(1049,673,o),
(1040,707,o),
(1033,744,cs),
(1032,749,o),
(1028,752,o),
(1022,752,cs),
(605,751,ls),
(560,751,o),
(526,751,o),
(508,756,cs),
(478,764,o),
(447,768,o),
(414,768,cs),
(212,768,o),
(48,602,o),
(48,377,cs),
(48,152,o),
(212,-14,o),
(414,-14,cs),
(445,-14,o),
(475,-9,o),
(503,-3,cs),
(532,3,o),
(588,1,o),
(602,1,cs),
(1046,0,ls),
(1052,0,o),
(1056,3,o),
(1057,8,cs),
(1067,53,o),
(1082,99,o),
(1101,140,cs),
(1107,153,o),
(1089,165,o),
(1080,153,cs),
(1032,92,o),
(982,40,o),
(962,40,cs),
(649,40,l)
);
},
{
closed = 1;
nodes = (
(137,580,o),
(252,727,o),
(414,727,cs),
(468,727,o),
(518,710,o),
(560,680,cs),
(566,675,o),
(569,670,o),
(569,662,cs),
(566,91,ls),
(566,83,o),
(563,78,o),
(557,73,cs),
(517,44,o),
(468,28,o),
(414,28,cs),
(252,28,o),
(137,174,o),
(137,377,cs)
);
}
);
width = 1155;
},
{
layerId = m003;
width = 600;
}
);
metricLeft = "=O";
metricRight = "=E";
unicode = 338;
},
{
glyphname = P;
kernRight = V;
lastChange = "2025-05-17 15:56:00 +0000";
layers = (
{
backgroundImage = {
imagePath = "specimen-images/12pt-capP.jpg";
locked = 1;
pos = (5,-219);
scale = (10.7,10.7);
};
hints = (
{
name = _corner.leftBottomSerif;
options = 1;
origin = (0,29);
scale = (-1,1);
type = Corner;
}
);
layerId = m01;
shapes = (
{
closed = 1;
nodes = (
(111,-3,o),
(135,2,o),
(170,2,cs),
(206,2,o),
(248,-3,o),
(287,-3,c),
(308,-3,o),
(308,29,o),
(287,29,cs),
(248,29,o),
(213,25,o),
(213,81,c),
(213,711,l),
(364,711,ls),
(475,711,o),
(551,660,o),
(551,534,c),
(551,408,o),
(465,352,o),
(384,352,cs),
(201,352,l),
(201,311,l),
(384,311,ls),
(505,311,o),
(633,387,o),
(633,534,c),
(633,681,o),
(505,752,o),
(364,752,cs),
(130,752,l),
(130,80,l),
(128,34,o),
(111,29,o),
(72,29,c),
(52,29,o),
(52,-3,o),
(72,-3,c)
);
}
);
width = 668;
},
{
backgroundImage = {
imagePath = "specimen-images/12pt-capP.jpg";
locked = 1;
pos = (22,-219);
scale = (10.7,10.7);
};
hints = (
{
name = _corner.leftBottomSerif;
options = 1;
origin = (0,18);
scale = (-1,1);
type = Corner;
},
{
name = _corner.rightBottomSerif;
origin = (0,0);
type = Corner;
},
{
name = _corner.leftBottomSerif;
origin = (0,19);
type = Corner;
}
);
layerId = m003;
shapes = (
{
closed = 1;
nodes = (
(225,0,l),
(225,691,l),
(371,691,ls),
(480,691,o),
(553,643,o),
(553,524,cs),
(553,406,o),
(471,352,o),
(391,352,cs),
(203,352,l),
(203,291,l),
(391,291,ls),
(513,291,o),
(645,369,o),
(645,524,cs),
(645,679,o),
(513,752,o),
(371,752,cs),
(132,752,l),
(132,0,l)
);
}
);
width = 675;
}
);
metricLeft = "=H";
unicode = 80;
},
{
glyphname = Q;
lastChange = "2025-05-17 15:56:00 +0000";
layers = (
{
backgroundImage = {
imagePath = "specimen-images/12pt-capQ.jpg";
locked = 1;
pos = (16,-215);
scale = (10.7,10.7);
};
layerId = m01;
shapes = (
{
closed = 1;
nodes = (
(615,-14,o),
(779,152,o),
(779,377,cs),
(779,602,o),
(615,768,o),
(414,768,cs),
(212,768,o),
(48,602,o),
(48,377,cs),
(48,152,o),
(212,-14,o),
(414,-14,cs)
);
},
{
closed = 1;
nodes = (
(252,28,o),
(137,174,o),
(137,377,cs),
(137,580,o),
(252,727,o),
(414,727,cs),
(575,727,o),
(690,580,o),
(690,377,cs),
(690,174,o),
(575,28,o),
(414,28,cs)
);
},
{
closed = 1;
nodes = (
(516,38,l),
(471,118,o),
(458,161,o),
(331,161,cs),
(310,161,o),
(310,134,o),
(331,134,cs),
(412,134,o),
(420,83,o),
(455,13,c)
);
},
{
closed = 1;
nodes = (
(455,13,l),
(459,4,o),
(464,-5,o),
(469,-14,cs),
(525,-111,o),
(587,-161,o),
(652,-161,cs),
(701,-161,o),
(750,-143,o),
(774,-95,cs),
(783,-77,o),
(765,-64,o),
(753,-79,cs),
(734,-103,o),
(708,-114,o),
(666,-114,cs),
(607,-114,o),
(574,-58,o),
(532,11,cs),
(526,20,o),
(521,29,o),
(516,38,c)
);
}
);
width = 827;
},
{
backgroundImage = {
imagePath = "specimen-images/12pt-capQ.jpg";
locked = 1;
pos = (15,-215);
scale = (10.7,10.7);
};
layerId = m003;
shapes = (
{
closed = 1;
nodes = (
(691,-171,o),
(730,-148,o),
(760,-98,cs),
(770,-79,o),
(756,-54,o),
(738,-72,cs),
(719,-91,o),
(696,-104,o),
(655,-104,cs),
(597,-104,o),
(566,-51,o),
(525,16,cs),
(467,111,o),
(465,171,o),
(320,171,cs),
(298,171,o),
(298,133,o),
(320,133,cs),
(409,133,o),
(404,67,o),
(454,-19,cs),
(512,-119,o),
(575,-171,o),
(641,-171,cs)
);
},
{
closed = 1;
nodes = (
(674,180,o),
(562,38,o),
(403,38,cs),
(243,38,o),
(131,180,o),
(131,377,cs),
(131,574,o),
(243,717,o),
(403,717,cs),
(562,717,o),
(674,574,o),
(674,377,cs)
);
},
{
closed = 1;
nodes = (
(32,146,o),
(200,-24,o),
(403,-24,cs),
(605,-24,o),
(773,146,o),
(773,377,cs),
(773,608,o),
(605,778,o),
(403,778,cs),
(200,778,o),
(32,608,o),
(32,377,cs)
);
},
{
closed = 1;
nodes = (
(674,180,o),
(562,38,o),
(403,38,cs),
(243,38,o),
(131,180,o),
(131,377,cs),
(131,574,o),
(243,717,o),
(403,717,cs),
(562,717,o),
(674,574,o),
(674,377,cs)
);
},
{
closed = 1;
nodes = (
(32,146,o),
(200,-24,o),
(403,-24,cs),
(605,-24,o),
(773,146,o),
(773,377,cs),
(773,608,o),
(605,778,o),
(403,778,cs),
(200,778,o),
(32,608,o),
(32,377,cs)
);
}
);
width = 805;
}
);
metricLeft = "=O";
metricRight = "=O";
unicode = 81;
},
{
glyphname = R;
lastChange = "2025-05-17 15:56:00 +0000";
layers = (
{
anchors = (
{
name = bottom;
pos = (365,0);
},
{
name = top;
pos = (365,752);
}
);
backgroundImage = {
imagePath = "specimen-images/12pt-capR.jpg";
locked = 1;
pos = (14,-223);
scale = (10.7,10.7);
};
hints = (
{
name = _corner.leftBottomSerif;
options = 1;
origin = (0,17);
scale = (-1,1);
type = Corner;
},
{
name = _corner.leftBottomSerif;
origin = (0,18);
type = Corner;
},
{
name = _corner.rightBottomSerif;
origin = (0,19);
type = Corner;
}
);
layerId = m01;
shapes = (
{
closed = 1;
nodes = (
(212,711,l),
(363,711,ls),
(474,711,o),
(550,667,o),
(550,551,cs),
(550,415,o),
(464,372,o),
(383,372,cs),
(200,372,l),
(200,331,l),
(383,331,ls),
(504,331,o),
(639,404,o),
(639,551,cs),
(639,698,o),
(504,752,o),
(363,752,cs),
(129,752,l),
(129,0,l),
(212,0,l)
);
},
{
closed = 1;
nodes = (
(346,352,l),
(435,202,o),
(583,-5,o),
(726,-85,cs),
(760,-104,o),
(779,-79,o),
(749,-58,c),
(626,61,o),
(524,232,o),
(446,366,c)
);
}
);
width = 730;
},
{
backgroundImage = {
imagePath = "specimen-images/12pt-capR.jpg";
locked = 1;
pos = (32,-223);
scale = (10.7,10.7);
};
hints = (
{
name = _corner.leftBottomSerif;
options = 1;
origin = (0,17);
scale = (-1,1);
type = Corner;
},
{
name = _corner.leftBottomSerif;
origin = (0,18);
type = Corner;
},
{
name = _corner.rightBottomSerif;
origin = (0,19);
type = Corner;
}
);
layerId = m003;
shapes = (
{
closed = 1;
nodes = (
(225,691,l),
(371,691,ls),
(480,691,o),
(553,650,o),
(553,541,cs),
(553,412,o),
(470,372,o),
(391,372,cs),
(203,372,l),
(203,311,l),
(391,311,ls),
(513,311,o),
(652,386,o),
(652,541,cs),
(652,697,o),
(513,752,o),
(371,752,cs),
(132,752,l),
(132,0,l),
(225,0,l)
);
},
{
closed = 1;
nodes = (
(341,361,l),
(429,210,o),
(581,-4,o),
(723,-89,cs),
(729,-92,o),
(734,-90,o),
(737,-85,cs),
(748,-65,ls),
(751,-59,o),
(750,-55,o),
(745,-51,cs),
(596,69,o),
(520,237,o),
(444,368,c)
);
}
);
width = 728;
}
);
metricLeft = "=H";
unicode = 82;
},
{
glyphname = S;
lastChange = "2025-05-17 15:56:00 +0000";
layers = (
{
anchors = (
{
name = bottom;
pos = (261,-16);
},
{
name = top;
pos = (276,768);
}
);
background = {
shapes = (
{
closed = 1;
nodes = (
(400,272,o),
(257,349,cs),
(194,383,ls),
(111,428,o),
(24,493,o),
(24,597,cs),
(24,696,o),
(144,768,o),
(266,768,cs),
(352,768,o),
(442,728,o),
(474,711,c),
(474,576,ls),
(474,562,o),
(468,558,o),
(461,558,cs),
(454,558,o),
(448,562,o),
(444,573,cs),
(401,679,o),
(370,728,o),
(266,728,cs),
(156,728,o),
(98,684,o),
(98,601,cs),
(98,550,o),
(146,504,o),
(233,457,cs),
(296,423,ls),
(371,383,o),
(514,325,o),
(514,196,cs),
(514,40,o),
(364,-16,o),
(251,-16,cs),
(144,-16,o),
(54,24,o),
(18,43,c),
(18,188,ls),
(18,202,o),
(29,208,o),
(39,208,cs),
(45,208,o),
(52,205,o),
(54,200,cs),
(101,73,o),
(156,24,o),
(251,24,cs),
(365,24,o),
(451,81,o),
(451,167,cs),
(451,252,o)
);
}
);
};
backgroundImage = {
imagePath = "specimen-images/12pt-capS.jpg";
locked = 1;
pos = (-2,-223);
scale = (10.7,10.7);
};
layerId = m01;
shapes = (
{
closed = 1;
nodes = (
(64,15,o),
(164,-16,o),
(261,-16,cs),
(374,-16,o),
(524,38,o),
(524,199,cs),
(524,301,o),
(453,374,o),
(314,433,cs),
(254,459,ls),
(134,510,o),
(113,540,o),
(113,614,cs),
(113,657,o),
(153,723,o),
(260,723,cs),
(365,723,o),
(407,680,o),
(450,573,cs),
(454,562,o),
(462,558,o),
(469,558,cs),
(476,558,o),
(484,562,o),
(484,576,cs),
(484,711,l),
(452,728,o),
(376,768,o),
(276,768,cs),
(138,768,o),
(34,700,o),
(34,589,cs),
(34,503,o),
(77,450,o),
(215,385,cs),
(275,357,ls),
(394,301,o),
(446,246,o),
(446,178,cs),
(446,103,o),
(374,34,o),
(261,34,cs),
(161,34,o),
(82,93,o),
(65,195,cs),
(62,211,o),
(55,214,o),
(49,214,cs),
(39,214,o),
(28,208,o),
(28,194,cs),
(28,51,l)
);
}
);
width = 552;
},
{
background = {
shapes = (
{
closed = 1;
nodes = (
(430,272,o),
(287,349,cs),
(224,383,ls),
(141,428,o),
(54,493,o),
(54,597,cs),
(54,696,o),
(174,768,o),
(296,768,cs),
(382,768,o),
(472,728,o),
(504,711,c),
(504,576,ls),
(504,562,o),
(498,558,o),
(491,558,cs),
(484,558,o),
(478,562,o),
(474,573,cs),
(431,679,o),
(400,728,o),
(296,728,cs),
(186,728,o),
(128,684,o),
(128,601,cs),
(128,550,o),
(176,504,o),
(263,457,cs),
(326,423,ls),
(401,383,o),
(544,325,o),
(544,196,cs),
(544,40,o),
(394,-16,o),
(281,-16,cs),
(174,-16,o),
(84,24,o),
(48,43,c),
(48,188,ls),
(48,202,o),
(59,208,o),
(69,208,cs),
(75,208,o),
(82,205,o),
(84,200,cs),
(131,73,o),
(186,24,o),
(281,24,cs),
(395,24,o),
(481,81,o),
(481,167,cs),
(481,252,o)
);
}
);
};
backgroundImage = {
imagePath = "specimen-images/12pt-capS.jpg";
locked = 1;
pos = (28,-223);
scale = (10.7,10.7);
};
layerId = m003;
shapes = (
{
closed = 1;
nodes = (
(82,6,o),
(174,-16,o),
(281,-16,cs),
(395,-16,o),
(549,31,o),
(549,201,cs),
(549,332,o),
(397,407,o),
(338,438,cs),
(274,471,ls),
(186,516,o),
(133,535,o),
(133,598,cs),
(133,656,o),
(177,711,o),
(296,711,cs),
(388,711,o),
(426,664,o),
(466,567,cs),
(468,561,o),
(472,559,o),
(477,559,cs),
(499,559,ls),
(505,559,o),
(509,563,o),
(509,569,cs),
(509,708,l),
(477,725,o),
(399,768,o),
(296,768,cs),
(157,768,o),
(49,713,o),
(49,573,cs),
(49,470,o),
(151,418,o),
(231,380,cs),
(295,349,ls),
(398,300,o),
(476,268,o),
(476,190,cs),
(476,94,o),
(393,41,o),
(281,41,cs),
(213,41,o),
(120,58,o),
(92,187,cs),
(90,193,o),
(87,196,o),
(81,196,cs),
(53,196,ls),
(47,196,o),
(43,192,o),
(43,186,cs),
(43,47,l)
);
}
);
width = 592;
}
);
unicode = 83;
},
{
glyphname = Germandbls;
lastChange = "2025-05-17 15:56:00 +0000";
layers = (
{
layerId = m01;
shapes = (
{
closed = 1;
nodes = (
(336,3,o),
(408,-16,o),
(465,-16,cs),
(568,-16,o),
(639,44,o),
(639,129,cs),
(639,193,o),
(585,243,o),
(505,293,cs),
(468,316,ls),
(413,350,o),
(402,374,o),
(402,407,cs),
(402,499,o),
(552,484,o),
(576,484,c),
(576,507,ls),
(576,688,o),
(482,767,o),
(345,767,cs),
(203,767,o),
(114,674,o),
(114,480,cs),
(116,90,l),
(116,54,o),
(96,28,o),
(57,28,c),
(37,28,o),
(37,-4,o),
(57,-4,c),
(96,-4,o),
(109,2,o),
(143,1,cs),
(182,0,ls),
(191,0,o),
(197,6,o),
(197,15,cs),
(197,480,ls),
(197,628,o),
(217,725,o),
(345,725,cs),
(438,725,o),
(495,665,o),
(495,511,c),
(396,511,o),
(343,472,o),
(343,387,cs),
(343,330,o),
(367,290,o),
(431,249,cs),
(472,223,ls),
(543,178,o),
(581,148,o),
(581,107,cs),
(581,75,o),
(550,26,o),
(464,26,cs),
(390,26,o),
(361,58,o),
(329,133,cs),
(328,136,o),
(323,138,o),
(319,138,cs),
(312,138,o),
(304,134,o),
(304,125,cs),
(304,34,l)
);
}
);
width = 658;
},
{
layerId = m003;
width = 600;
}
);
metricLeft = "=U";
metricRight = "=S";
unicode = 7838;
},
{
glyphname = T;
kernLeft = T;
kernRight = T;
lastChange = "2025-05-17 15:56:00 +0000";
layers = (
{
anchors = (
{
name = bottom;
pos = (312,0);
},
{
name = center;
pos = (312,376);
},
{
name = top;
pos = (312,752);
}
);
backgroundImage = {
imagePath = "specimen-images/10pt-capT.jpg";
locked = 1;
pos = (-22,-343);
scale = (12.84,12.84);
};
hints = (
{
name = _corner.leftBottomSerif;
origin = (0,27);
type = Corner;
},
{
name = _corner.rightBottomSerif;
options = 1;
origin = (0,28);
type = Corner;
}
);
layerId = m01;
shapes = (
{
closed = 1;
nodes = (
(464,712,ls),
(494,712,o),
(531,686,o),
(579,625,cs),
(588,613,o),
(606,625,o),
(600,638,cs),
(585,671,o),
(576,707,o),
(569,744,cs),
(568,749,o),
(564,752,o),
(558,752,c),
(66,752,l),
(60,752,o),
(56,749,o),
(55,744,cs),
(48,707,o),
(39,671,o),
(24,638,cs),
(18,625,o),
(36,613,o),
(45,625,cs),
(93,686,o),
(130,712,o),
(160,712,cs),
(270,712,l),
(270,0,l),
(353,0,l),
(353,712,l)
);
}
);
width = 624;
},
{
backgroundImage = {
imagePath = "specimen-images/10pt-capT.jpg";
locked = 1;
pos = (-2,-343);
scale = (12.84,12.84);
};
hints = (
{
name = _corner.leftBottomSerif;
origin = (0,32);
type = Corner;
},
{
name = _corner.rightBottomSerif;
options = 1;
origin = (0,33);
type = Corner;
}
);
layerId = m003;
shapes = (
{
closed = 1;
nodes = (
(368,692,l),
(469,692,ls),
(497,692,o),
(543,646,o),
(587,591,cs),
(591,586,o),
(596,585,o),
(601,589,cs),
(616,601,ls),
(620,604,o),
(622,609,o),
(620,614,cs),
(579,736,l),
(577,745,o),
(573,752,o),
(563,752,cs),
(80,752,ls),
(70,752,o),
(66,745,o),
(64,736,c),
(23,614,ls),
(21,609,o),
(23,604,o),
(27,601,cs),
(42,589,ls),
(47,585,o),
(52,586,o),
(56,591,cs),
(100,646,o),
(146,692,o),
(174,692,cs),
(275,692,l),
(275,0,l),
(368,0,l)
);
}
);
width = 643;
}
);
metricRight = "=|";
unicode = 84;
},
{
glyphname = U;
lastChange = "2025-05-17 15:56:00 +0000";
layers = (
{
anchors = (
{
name = bottom;
pos = (395,0);
},
{
name = ogonek;
pos = (711,10);
},
{
name = top;
pos = (416,766);
},
{
name = topright;
pos = (770,752);
}
);
backgroundImage = {
imagePath = "specimen-images/10pt-capU.jpg";
locked = 1;
pos = (-1,-327);
scale = (12.84,12.84);
};
hints = (
{
name = _corner.rightBottomSerif;
options = 1;
origin = (0,15);
scale = (1,-1);
type = Corner;
},
{
name = _corner.leftBottomSerif;
options = 1;
origin = (0,16);
scale = (-1,1);
type = Corner;
},
{
name = _corner.rightBottomSerif;
options = 1;
origin = (0,15);
scale = (1,-1);
type = Corner;
},
{
name = _corner.leftBottomSerif;
options = 1;
origin = (0,16);
scale = (-1,1);
type = Corner;
},
{
name = _corner.rightBottomSerif;
origin = (0,7);
type = Corner;
},
{
name = _corner.leftBottomSerif;
origin = (0,6);
type = Corner;
}
);
layerId = m01;
shapes = (
{
closed = 1;
nodes = (
(114,72,o),
(253,-16,o),
(395,-16,cs),
(537,-16,o),
(676,76,o),
(676,260,cs),
(676,752,l),
(625,752,l),
(625,260,ls),
(625,102,o),
(527,36,o),
(399,36,cs),
(271,36,o),
(197,118,o),
(197,256,cs),
(197,752,l),
(114,752,l),
(114,256,ls)
);
}
);
width = 790;
},
{
backgroundImage = {
imagePath = "specimen-images/10pt-capU.jpg";
locked = 1;
pos = (4,-327);
scale = (12.84,12.84);
};
hints = (
{
name = _corner.rightBottomSerif;
options = 1;
origin = (0,15);
scale = (1,-1);
type = Corner;
},
{
name = _corner.leftBottomSerif;
options = 1;
origin = (0,16);
scale = (-1,1);
type = Corner;
},
{
name = _corner.rightBottomSerif;
options = 1;
origin = (0,15);
scale = (1,-1);
type = Corner;
},
{
name = _corner.leftBottomSerif;
options = 1;
origin = (0,16);
scale = (-1,1);
type = Corner;
},
{
name = _corner.rightBottomSerif;
origin = (0,7);
type = Corner;
},
{
name = _corner.leftBottomSerif;
origin = (0,6);
type = Corner;
}
);
layerId = m003;
shapes = (
{
closed = 1;
nodes = (
(104,74,o),
(247,-16,o),
(390,-16,cs),
(533,-16,o),
(676,74,o),
(676,266,cs),
(676,752,l),
(619,752,l),
(619,266,ls),
(619,115,o),
(524,53,o),
(397,53,cs),
(270,53,o),
(197,115,o),
(197,266,cs),
(197,752,l),
(104,752,l),
(104,266,ls)
);
}
);
width = 780;
}
);
metricRight = "=|";
unicode = 85;
},
{
glyphname = V;
kernLeft = "-100";
kernRight = V;
lastChange = "2025-05-17 15:56:00 +0000";
layers = (
{
backgroundImage = {
imagePath = "specimen-images/10pt-capV.jpg";
locked = 1;
pos = (-75,-330);
scale = (12.84,12.84);
};
hints = (
{
name = _corner.rightBottomSerif;
options = 1;
origin = (1,12);
type = Corner;
},
{
name = _corner.leftBottomSerif;
origin = (1,1);
type = Corner;
},
{
name = _corner.rightBottomSerif;
options = 1;
origin = (1,2);
type = Corner;
},
{
name = _corner.leftBottomSerif;
origin = (1,11);
type = Corner;
}
);
layerId = m01;
shapes = (
{
closed = 0;
nodes = (
(353,8,l),
(591,752,l)
);
},
{
closed = 1;
nodes = (
(359,119,l),
(162,752,l),
(78,752,l),
(320,9,ls),
(322,4,o),
(327,0,o),
(332,0,cs),
(341,0,ls),
(346,0,o),
(351,3,o),
(353,8,cs),
(591,752,l),
(540,752,l),
(340,119,l)
);
}
);
width = 668;
},
{
backgroundImage = {
imagePath = "specimen-images/10pt-capV.jpg";
locked = 1;
pos = (-78,-330);
scale = (12.84,12.84);
};
hints = (
{
name = _corner.rightBottomSerif;
options = 1;
origin = (0,12);
type = Corner;
},
{
name = _corner.leftBottomSerif;
origin = (0,1);
type = Corner;
},
{
name = _corner.rightBottomSerif;
options = 1;
origin = (0,2);
type = Corner;
},
{
name = _corner.leftBottomSerif;
origin = (0,11);
type = Corner;
}
);
layerId = m003;
shapes = (
{
closed = 1;
nodes = (
(355,109,l),
(152,752,l),
(56,752,l),
(301,8,ls),
(303,3,o),
(308,0,o),
(313,0,cs),
(314,0,ls),
(319,0,o),
(324,3,o),
(326,8,cs),
(567,752,l),
(504,752,l),
(298,109,l)
);
}
);
width = 623;
}
);
metricRight = "=|";
unicode = 86;
},
{
glyphname = W;
kernLeft = V;
kernRight = V;
lastChange = "2025-05-17 15:56:00 +0000";
layers = (
{
backgroundImage = {
imagePath = "specimen-images/10pt-capW.jpg";
locked = 1;
pos = (-18,-334);
scale = (12.84,12.84);
};
hints = (
{
name = _corner.leftBottomSerif;
origin = (1,11);
type = Corner;
},
{
name = _corner.rightBottomSerif;
options = 1;
origin = (1,12);
type = Corner;
},
{
name = _corner.rightBottomSerif;
options = 1;
origin = (1,8);
type = Corner;
},
{
name = _corner.leftBottomSerif;
origin = (2,4);
type = Corner;
},
{
name = _corner.leftBottomSerif;
origin = (1,7);
type = Corner;
},
{
name = _corner.rightBottomSerif;
options = 1;
origin = (2,5);
type = Corner;
}
);
layerId = m01;
shapes = (
{
closed = 0;
nodes = (
(657,8,l),
(895,752,l)
);
},
{
closed = 1;
nodes = (
(626,4,o),
(631,0,o),
(636,0,cs),
(645,0,ls),
(650,0,o),
(655,3,o),
(657,8,cs),
(895,752,l),
(844,752,l),
(644,119,l),
(663,119,l),
(466,752,l),
(382,752,l),
(624,9,ls)
);
},
{
closed = 1;
nodes = (
(511,503,l),
(480,563,l),
(340,119,l),
(359,119,l),
(162,752,l),
(78,752,l),
(320,9,ls),
(322,4,o),
(327,0,o),
(332,0,cs),
(341,0,ls),
(346,0,o),
(351,3,o),
(353,8,c)
);
}
);
width = 972;
},
{
backgroundImage = {
imagePath = "specimen-images/10pt-capW.jpg";
locked = 1;
pos = (-40,-334);
scale = (12.84,12.84);
};
hints = (
{
name = _corner.leftBottomSerif;
origin = (0,1);
type = Corner;
},
{
name = _corner.rightBottomSerif;
options = 1;
origin = (0,2);
type = Corner;
},
{
name = _corner.leftBottomSerif;
origin = (0,11);
type = Corner;
},
{
name = _corner.rightBottomSerif;
options = 1;
origin = (0,12);
type = Corner;
},
{
name = _corner.leftBottomSerif;
origin = (1,3);
type = Corner;
},
{
name = _corner.rightBottomSerif;
options = 1;
origin = (1,4);
type = Corner;
}
);
layerId = m003;
shapes = (
{
closed = 1;
nodes = (
(642,109,l),
(439,762,l),
(343,762,l),
(588,8,ls),
(590,3,o),
(595,0,o),
(600,0,cs),
(601,0,ls),
(606,0,o),
(611,3,o),
(613,8,cs),
(854,762,l),
(791,762,l),
(585,109,l)
);
},
{
closed = 1;
nodes = (
(449,589,l),
(298,109,l),
(355,109,l),
(152,762,l),
(56,762,l),
(301,8,ls),
(303,3,o),
(308,0,o),
(313,0,cs),
(314,0,ls),
(319,0,o),
(324,3,o),
(326,8,cs),
(483,500,l)
);
}
);
width = 911;
}
);
metricLeft = "=V";
metricRight = "=|";
unicode = 87;
},
{
glyphname = X;
lastChange = "2025-05-17 15:56:00 +0000";
layers = (
{
backgroundImage = {
imagePath = "specimen-images/10pt-capX.jpg";
locked = 1;
pos = (3,-332);
scale = (12.84,12.84);
};
hints = (
{
name = _corner.leftBottomSerif;
origin = (0,0);
type = Corner;
},
{
name = _corner.rightBottomSerif;
options = 1;
origin = (0,1);
type = Corner;
},
{
name = _corner.rightBottomSerif;
origin = (0,2);
scale = (1,-1);
type = Corner;
},
{
name = _corner.leftBottomSerif;
options = 1;
origin = (0,3);
scale = (-1,1);
type = Corner;
},
{
name = _corner.leftBottomSerif;
options = 1;
origin = (2,2);
scale = (-1,1);
type = Corner;
},
{
name = _corner.rightBottomSerif;
origin = (2,1);
scale = (-1,1);
type = Corner;
},
{
name = _corner.rightBottomSerif;
options = 1;
origin = (1,2);
scale = (-1,-1);
type = Corner;
},
{
name = _corner.leftBottomSerif;
origin = (1,1);
type = Corner;
}
);
layerId = m01;
shapes = (
{
closed = 1;
nodes = (
(568,0,l),
(668,0,l),
(198,752,l),
(102,752,l)
);
},
{
closed = 1;
nodes = (
(405,397,l),
(652,752,l),
(594,752,l),
(370,431,l)
);
},
{
closed = 1;
nodes = (
(363,432,l),
(61,0,l),
(124,0,l),
(399,397,l)
);
}
);
width = 732;
},
{
backgroundImage = {
imagePath = "specimen-images/10pt-capX.jpg";
locked = 1;
pos = (3,-332);
scale = (12.84,12.84);
};
hints = (
{
name = _corner.leftBottomSerif;
origin = (0,0);
type = Corner;
},
{
name = _corner.rightBottomSerif;
options = 1;
origin = (0,1);
type = Corner;
},
{
name = _corner.rightBottomSerif;
origin = (0,2);
scale = (1,-1);
type = Corner;
},
{
name = _corner.leftBottomSerif;
options = 1;
origin = (0,3);
scale = (-1,1);
type = Corner;
},
{
name = _corner.leftBottomSerif;
options = 1;
origin = (2,2);
scale = (-1,1);
type = Corner;
},
{
name = _corner.rightBottomSerif;
origin = (2,1);
scale = (-1,1);
type = Corner;
},
{
name = _corner.rightBottomSerif;
options = 1;
origin = (1,2);
scale = (-1,-1);
type = Corner;
},
{
name = _corner.leftBottomSerif;
origin = (1,1);
type = Corner;
}
);
layerId = m003;
shapes = (
{
closed = 1;
nodes = (
(557,0,l),
(672,0,l),
(189,752,l),
(78,752,l)
);
},
{
closed = 1;
nodes = (
(395,386,l),
(657,752,l),
(583,752,l),
(351,429,l)
);
},
{
closed = 1;
nodes = (
(353,443,l),
(36,0,l),
(115,0,l),
(398,399,l)
);
}
);
width = 711;
}
);
metricRight = "=|";
unicode = 88;
},
{
glyphname = Y;
kernLeft = V;
kernRight = V;
lastChange = "2025-05-17 15:56:00 +0000";
layers = (
{
anchors = (
{
name = bottom;
pos = (333,0);
},
{
name = top;
pos = (360,752);
},
{
name = topleft;
pos = (20,752);
}
);
backgroundImage = {
imagePath = "specimen-images/10pt-capY.jpg";
pos = (2,-332);
scale = (12.84,12.84);
};
hints = (
{
name = _corner.leftBottomSerif;
origin = (0,0);
type = Corner;
},
{
name = _corner.rightBottomSerif;
options = 1;
origin = (0,1);
type = Corner;
},
{
name = _corner.rightBottomSerif;
origin = (0,4);
scale = (1,-1);
type = Corner;
},
{
name = _corner.leftBottomSerif;
options = 1;
origin = (0,5);
scale = (1,-1);
type = Corner;
},
{
name = _corner.leftBottomSerif;
origin = (1,1);
type = Corner;
},
{
name = _corner.rightBottomSerif;
options = 1;
origin = (1,2);
type = Corner;
}
);
layerId = m01;
shapes = (
{
closed = 1;
nodes = (
(615,752,l),
(560,752,l),
(356,356,l),
(372,356,l),
(151,752,l),
(58,752,l),
(309,311,l),
(384,310,l)
);
},
{
closed = 1;
nodes = (
(309,342,l),
(309,0,l),
(392,0,l),
(392,342,l)
);
}
);
width = 675;
},
{
backgroundImage = {
imagePath = "specimen-images/10pt-capY.jpg";
pos = (12,-332);
scale = (12.84,12.84);
};
hints = (
{
name = _corner.leftBottomSerif;
origin = (0,0);
type = Corner;
},
{
name = _corner.rightBottomSerif;
options = 1;
origin = (0,1);
type = Corner;
},
{
name = _corner.rightBottomSerif;
origin = (0,4);
scale = (1,-1);
type = Corner;
},
{
name = _corner.leftBottomSerif;
options = 1;
origin = (0,5);
scale = (1,-1);
type = Corner;
},
{
name = _corner.leftBottomSerif;
origin = (1,1);
type = Corner;
},
{
name = _corner.rightBottomSerif;
options = 1;
origin = (1,2);
type = Corner;
}
);
layerId = m003;
shapes = (
{
closed = 1;
nodes = (
(627,752,l),
(568,752,l),
(354,346,l),
(380,346,l),
(148,752,l),
(45,752,l),
(308,301,l),
(386,300,l)
);
},
{
closed = 1;
nodes = (
(304,352,l),
(304,-10,l),
(397,-10,l),
(397,352,l)
);
}
);
width = 675;
}
);
metricRight = "=|";
unicode = 89;
},
{
glyphname = Z;
lastChange = "2025-05-17 15:56:00 +0000";
layers = (
{
anchors = (
{
name = bottom;
pos = (299,0);
},
{
name = center;
pos = (299,376);
},
{
name = top;
pos = (299,752);
}
);
backgroundImage = {
imagePath = "specimen-images/10pt-capZ.jpg";
pos = (-9,-330);
scale = (12.84,12.84);
};
layerId = m01;
shapes = (
{
closed = 1;
nodes = (
(513,0,ls),
(519,0,o),
(523,3,o),
(524,8,cs),
(534,53,o),
(549,99,o),
(568,140,cs),
(574,153,o),
(556,165,o),
(547,153,cs),
(499,92,o),
(449,36,o),
(408,36,cs),
(126,36,l),
(528,734,ls),
(534,745,o),
(529,752,o),
(517,752,cs),
(83,752,ls),
(77,752,o),
(73,749,o),
(72,744,cs),
(65,707,o),
(56,671,o),
(41,638,cs),
(35,625,o),
(53,613,o),
(62,625,cs),
(110,686,o),
(147,716,o),
(191,716,cs),
(427,716,l),
(25,18,ls),
(19,7,o),
(24,0,o),
(36,0,cs)
);
}
);
width = 591;
},
{
backgroundImage = {
imagePath = "specimen-images/10pt-capZ.jpg";
pos = (5,-330);
scale = (12.84,12.84);
};
layerId = m003;
shapes = (
{
closed = 1;
nodes = (
(524,0,ls),
(534,0,o),
(538,7,o),
(540,16,c),
(581,138,ls),
(583,143,o),
(581,148,o),
(577,151,cs),
(562,163,ls),
(557,167,o),
(552,166,o),
(548,161,cs),
(504,106,o),
(458,60,o),
(430,60,cs),
(143,60,l),
(549,740,ls),
(553,747,o),
(550,752,o),
(542,752,cs),
(82,752,ls),
(72,752,o),
(68,745,o),
(66,736,c),
(25,614,ls),
(23,609,o),
(25,604,o),
(29,601,cs),
(44,589,ls),
(49,585,o),
(54,586,o),
(58,591,cs),
(102,646,o),
(148,692,o),
(176,692,cs),
(418,692,l),
(12,12,ls),
(8,5,o),
(11,0,o),
(19,0,cs)
);
}
);
width = 592;
}
);
metricRight = "=|";
unicode = 90;
},
{
glyphname = K.ss01;
lastChange = "2025-05-17 15:56:00 +0000";
layers = (
{
hints = (
{
name = _corner.leftBottomSerif;
origin = (0,1);
type = Corner;
},
{
name = _corner.rightBottomSerif;
options = 1;
origin = (0,2);
type = Corner;
},
{
name = _corner.rightBottomSerif;
origin = (1,1);
scale = (1,-1);
type = Corner;
},
{
name = _corner.leftBottomSerif;
options = 1;
origin = (1,2);
scale = (-1,1);
type = Corner;
},
{
name = _corner.leftBottomSerif;
origin = (2,0);
type = Corner;
},
{
name = _corner.rightBottomSerif;
origin = (2,1);
type = Corner;
},
{
name = _corner.rightBottomSerif;
options = 1;
origin = (2,2);
scale = (1,-1);
type = Corner;
},
{
name = _corner.leftBottomSerif;
options = 1;
origin = (2,3);
scale = (-1,1);
type = Corner;
}
);
layerId = m01;
shapes = (
{
closed = 1;
nodes = (
(210,401,l),
(596,0,l),
(711,0,l),
(291,439,l)
);
},
{
closed = 1;
nodes = (
(249,370,l),
(646,752,l),
(575,752,l),
(211,400,l)
);
},
{
closed = 1;
nodes = (
(129,0,l),
(212,0,l),
(212,752,l),
(129,752,l)
);
}
);
width = 707;
},
{
hints = (
{
name = _corner.leftBottomSerif;
origin = (0,1);
type = Corner;
},
{
name = _corner.rightBottomSerif;
options = 1;
origin = (0,2);
type = Corner;
},
{
name = _corner.rightBottomSerif;
origin = (1,1);
scale = (1,-1);
type = Corner;
},
{
name = _corner.leftBottomSerif;
options = 1;
origin = (1,2);
scale = (-1,1);
type = Corner;
},
{
name = _corner.leftBottomSerif;
origin = (2,0);
type = Corner;
},
{
name = _corner.rightBottomSerif;
origin = (2,1);
type = Corner;
},
{
name = _corner.rightBottomSerif;
options = 1;
origin = (2,2);
scale = (1,-1);
type = Corner;
},
{
name = _corner.leftBottomSerif;
options = 1;
origin = (2,3);
scale = (-1,1);
type = Corner;
}
);
layerId = m003;
shapes = (
{
closed = 1;
nodes = (
(288,425,l),
(585,-10,l),
(696,-10,l),
(342,470,l)
);
},
{
closed = 1;
nodes = (
(161,271,l),
(673,762,l),
(581,762,l),
(122,297,l)
);
},
{
closed = 1;
nodes = (
(110,-10,l),
(200,-10,l),
(200,762,l),
(110,762,l)
);
}
);
width = 716;
}
);
metricLeft = "=K";
metricRight = "=K";
},
{
glyphname = R.ss01;
lastChange = "2025-05-17 15:56:00 +0000";
layers = (
{
hints = (
{
name = _corner.leftBottomSerif;
options = 1;
origin = (0,17);
scale = (-1,1);
type = Corner;
},
{
name = _corner.leftBottomSerif;
origin = (0,18);
type = Corner;
},
{
name = _corner.rightBottomSerif;
origin = (0,19);
type = Corner;
},
{
name = _corner.rightBottomSerif;
options = 1;
origin = (1,2);
type = Corner;
}
);
layerId = m01;
shapes = (
{
closed = 1;
nodes = (
(176,729,l),
(330,731,ls),
(441,732,o),
(517,663,o),
(517,537,cs),
(517,411,o),
(431,363,o),
(350,365,cs),
(167,368,l),
(167,331,l),
(350,331,ls),
(471,331,o),
(589,400,o),
(589,537,cs),
(589,684,o),
(471,763,o),
(330,762,cs),
(96,760,l),
(96,0,l),
(176,-1,l)
);
},
{
closed = 1;
nodes = (
(339,356,l),
(536,0,l),
(630,0,l),
(415,356,l)
);
}
);
width = 607;
},
{
hints = (
{
name = _corner.leftBottomSerif;
options = 1;
origin = (0,17);
scale = (-1,1);
type = Corner;
},
{
name = _corner.leftBottomSerif;
origin = (0,18);
type = Corner;
},
{
name = _corner.rightBottomSerif;
origin = (0,19);
type = Corner;
},
{
name = _corner.rightBottomSerif;
options = 1;
origin = (1,2);
type = Corner;
}
);
layerId = m003;
shapes = (
{
closed = 1;
nodes = (
(171,719,l),
(320,721,ls),
(431,722,o),
(502,656,o),
(502,537,cs),
(502,418,o),
(420,373,o),
(340,375,cs),
(152,378,l),
(152,321,l),
(340,321,ls),
(462,321,o),
(584,392,o),
(584,537,cs),
(584,692,o),
(461,773,o),
(320,772,cs),
(81,770,l),
(81,-10,l),
(171,-11,l)
);
},
{
closed = 1;
nodes = (
(316,366,l),
(524,-10,l),
(633,-10,l),
(406,366,l)
);
}
);
width = 587;
}
);
},
{
glyphname = a;
lastChange = "2025-05-17 15:56:00 +0000";
layers = (
{
anchors = (
{
name = bottom;
pos = (398,1);
},
{
name = ogonek;
pos = (518,10);
},
{
name = top;
pos = (251,494);
}
);
background = {
shapes = (
{
closed = 1;
nodes = (
(362,1,l),
(398,1,o),
(416,-4,o),
(445,-4,c),
(466,-4,o),
(466,28,o),
(445,28,c),
(416,28,o),
(398,34,o),
(398,80,c),
(398,394,ls),
(398,475,o),
(304,505,o),
(241,505,cs),
(165,505,o),
(69,449,o),
(69,369,cs),
(69,344,o),
(85,329,o),
(109,329,cs),
(132,329,o),
(147,344,o),
(147,369,cs),
(147,381,o),
(139,389,o),
(139,401,cs),
(139,437,o),
(181,470,o),
(234,470,cs),
(288,470,o),
(323,445,o),
(323,383,cs),
(323,10,ls),
(323,4,o),
(327,0,o),
(333,0,cs)
);
},
{
closed = 1;
nodes = (
(337,109,l),
(273,59,o),
(232,35,o),
(189,35,cs),
(151,35,o),
(125,59,o),
(125,113,cs),
(125,169,o),
(151,205,o),
(193,231,cs),
(221,247,o),
(294,273,o),
(343,285,c),
(337,316,l),
(281,301,o),
(228,283,o),
(185,265,cs),
(102,230,o),
(43,183,o),
(43,96,cs),
(43,30,o),
(99,-15,o),
(155,-15,cs),
(237,-15,o),
(303,41,o),
(352,87,c)
);
}
);
};
backgroundImage = {
imagePath = "specimen-images/12pt-lowerA.jpg";
locked = 1;
pos = (-92,-338);
scale = (10.7,10.7);
};
layerId = m01;
shapes = (
{
closed = 1;
nodes = (
(362,1,l),
(398,1,o),
(416,-4,o),
(445,-4,c),
(466,-4,o),
(466,28,o),
(445,28,c),
(416,28,o),
(398,34,o),
(398,80,c),
(398,394,ls),
(398,475,o),
(304,505,o),
(241,505,cs),
(165,505,o),
(69,449,o),
(69,369,cs),
(69,344,o),
(85,329,o),
(109,329,cs),
(132,329,o),
(147,344,o),
(147,369,cs),
(147,381,o),
(139,389,o),
(139,401,cs),
(139,437,o),
(181,470,o),
(234,470,cs),
(288,470,o),
(323,445,o),
(323,383,cs),
(323,10,ls),
(323,4,o),
(327,0,o),
(333,0,cs)
);
},
{
closed = 1;
nodes = (
(337,108,l),
(273,58,o),
(232,34,o),
(189,34,cs),
(151,34,o),
(125,58,o),
(125,112,cs),
(125,168,o),
(151,204,o),
(193,230,cs),
(221,246,o),
(297,268,o),
(346,268,c),
(340,299,l),
(284,296,o),
(228,282,o),
(185,264,cs),
(102,229,o),
(43,182,o),
(43,95,cs),
(43,29,o),
(99,-16,o),
(155,-16,cs),
(237,-16,o),
(303,40,o),
(352,86,c)
);
}
);
width = 502;
},
{
backgroundImage = {
imagePath = "specimen-images/12pt-lowerA.jpg";
locked = 1;
pos = (-108,-338);
scale = (10.7,10.7);
};
hints = (
{
name = _corner.rightBottomSerif;
origin = (0,0);
type = Corner;
}
);
layerId = m003;
shapes = (
{
closed = 1;
nodes = (
(397,0,l),
(397,384,ls),
(397,474,o),
(299,505,o),
(235,505,cs),
(158,505,o),
(58,447,o),
(58,359,cs),
(58,327,o),
(77,319,o),
(103,319,cs),
(128,319,o),
(146,327,o),
(146,359,cs),
(146,375,o),
(138,382,o),
(138,391,cs),
(138,419,o),
(177,450,o),
(228,450,cs),
(281,450,o),
(312,428,o),
(312,373,cs),
(312,0,l)
);
},
{
closed = 1;
nodes = (
(332,124,l),
(267,73,o),
(227,49,o),
(183,49,cs),
(146,49,o),
(124,75,o),
(124,123,cs),
(124,174,o),
(146,205,o),
(190,232,cs),
(216,247,o),
(231,253,o),
(344,287,c),
(334,337,l),
(278,319,o),
(223,300,o),
(177,284,cs),
(92,255,o),
(32,199,o),
(32,106,cs),
(32,33,o),
(92,-15,o),
(149,-15,cs),
(235,-15,o),
(303,46,o),
(355,95,c)
);
}
);
width = 504;
}
);
metricRight = "=n";
unicode = 97;
},
{
glyphname = ae;
lastChange = "2025-05-17 15:56:00 +0000";
layers = (
{
layerId = m01;
shapes = (
{
closed = 1;
nodes = (
(387,411,l),
(374,479,o),
(289,505,o),
(231,505,cs),
(165,505,o),
(69,449,o),
(69,369,cs),
(69,344,o),
(85,329,o),
(109,329,cs),
(132,329,o),
(147,344,o),
(147,369,cs),
(147,381,o),
(139,389,o),
(139,401,cs),
(139,437,o),
(181,470,o),
(224,470,cs),
(278,470,o),
(313,445,o),
(313,383,cs),
(313,241,l)
);
},
{
closed = 1;
nodes = (
(342,121,l),
(278,71,o),
(232,35,o),
(189,35,cs),
(151,35,o),
(125,59,o),
(125,113,cs),
(125,169,o),
(151,199,o),
(193,225,cs),
(221,241,o),
(227,247,o),
(333,279,c),
(327,316,l),
(271,298,o),
(228,280,o),
(185,265,cs),
(100,236,o),
(43,183,o),
(43,96,cs),
(43,30,o),
(99,-15,o),
(155,-15,cs),
(237,-15,o),
(308,53,o),
(357,99,c)
);
},
{
closed = 1;
nodes = (
(311,104,o),
(389,-13,o),
(518,-13,cs),
(590,-13,o),
(635,16,o),
(665,51,cs),
(688,78,o),
(657,104,o),
(633,79,cs),
(603,48,o),
(577,35,o),
(530,35,cs),
(437,35,o),
(397,96,o),
(397,252,cs),
(398,413,o),
(447,460,o),
(514,460,cs),
(573,460,o),
(616,413,o),
(619,264,c),
(693,264,l),
(693,387,o),
(640,505,o),
(515,505,cs),
(388,505,o),
(313,391,o),
(311,252,cs)
);
},
{
closed = 1;
nodes = (
(390,264,l),
(630,264,l),
(630,299,l),
(390,299,l)
);
}
);
width = 722;
},
{
layerId = m003;
width = 600;
}
);
metricLeft = "=a";
metricRight = "=e";
unicode = 230;
},
{
glyphname = b;
kernRight = o;
lastChange = "2025-05-17 15:56:00 +0000";
layers = (
{
backgroundImage = {
imagePath = "specimen-images/12pt-lowerB.jpg";
locked = 1;
pos = (10,-337);
scale = (10.7,10.79);
};
hints = (
{
name = _cap.flag;
origin = (0,8);
type = Cap;
}
);
layerId = m01;
shapes = (
{
closed = 1;
nodes = (
(93,752,l),
(93,9,l),
(93,-9,o),
(115,-4,o),
(122,7,cs),
(136,29,o),
(153,46,o),
(168,54,c),
(168,752,l)
);
},
{
closed = 1;
nodes = (
(187,16,o),
(234,-10,o),
(289,-10,cs),
(418,-10,o),
(518,101,o),
(518,249,c),
(518,397,o),
(436,504,o),
(307,504,cs),
(201,504,o),
(140,413,o),
(140,330,c),
(168,321,l),
(176,413,o),
(229,460,o),
(300,460,cs),
(384,460,o),
(431,401,o),
(431,249,cs),
(431,96,o),
(378,42,o),
(290,42,cs),
(234,42,o),
(187,61,o),
(155,126,c),
(141,86,l)
);
}
);
width = 556;
},
{
backgroundImage = {
imagePath = "specimen-images/12pt-lowerB.jpg";
locked = 1;
pos = (-8,-337);
scale = (10.7,10.79);
};
hints = (
{
name = _cap.flag;
origin = (0,6);
type = Cap;
}
);
layerId = m003;
shapes = (
{
closed = 1;
nodes = (
(81,762,l),
(81,0,l),
(131,0,l),
(131,25,o),
(152,38,o),
(170,47,c),
(170,762,l)
);
},
{
closed = 1;
nodes = (
(181,11,o),
(229,-16,o),
(286,-16,cs),
(417,-16,o),
(520,89,o),
(520,243,cs),
(520,397,o),
(425,505,o),
(294,505,cs),
(183,505,o),
(129,415,o),
(132,324,c),
(169,299,l),
(174,394,o),
(214,460,o),
(287,460,cs),
(370,460,o),
(423,389,o),
(423,243,cs),
(423,96,o),
(374,29,o),
(287,29,cs),
(228,29,o),
(180,78,o),
(151,145,c),
(131,88,l)
);
}
);
width = 565;
}
);
metricRight = "=o";
unicode = 98;
},
{
glyphname = c;
kernLeft = o;
lastChange = "2025-05-17 15:56:00 +0000";
layers = (
{
anchors = (
{
name = bottom;
pos = (227,0);
},
{
name = top;
pos = (221,505);
}
);
background = {
shapes = (
{
closed = 1;
nodes = (
(38,104,o),
(109,-13,o),
(267,-13,cs),
(339,-13,o),
(382,16,o),
(412,51,cs),
(435,78,o),
(404,104,o),
(380,79,cs),
(350,48,o),
(314,35,o),
(267,35,cs),
(187,35,o),
(124,96,o),
(124,252,cs),
(124,397,o),
(186,466,o),
(260,466,cs),
(305,466,o),
(336,437,o),
(336,397,cs),
(336,375,o),
(354,357,o),
(376,357,cs),
(398,357,o),
(416,375,o),
(416,397,cs),
(416,448,o),
(350,505,o),
(261,505,cs),
(132,505,o),
(38,386,o),
(38,253,cs)
);
}
);
};
layerId = m01;
shapes = (
{
closed = 1;
nodes = (
(38,104,o),
(119,-13,o),
(267,-13,cs),
(339,-13,o),
(377,10,o),
(411,43,cs),
(434,65,o),
(411,91,o),
(386,72,cs),
(353,47,o),
(323,37,o),
(277,37,cs),
(191,37,o),
(124,106,o),
(124,252,cs),
(124,397,o),
(186,466,o),
(260,466,cs),
(305,466,o),
(336,437,o),
(336,397,cs),
(336,375,o),
(354,357,o),
(376,357,cs),
(398,357,o),
(416,375,o),
(416,397,cs),
(416,448,o),
(350,505,o),
(261,505,cs),
(132,505,o),
(38,386,o),
(38,253,cs)
);
}
);
width = 454;
},
{
background = {
shapes = (
{
closed = 1;
nodes = (
(394,415,o),
(360,505,o),
(239,505,cs),
(110,505,o),
(16,386,o),
(16,252,cs),
(16,104,o),
(104,-13,o),
(233,-13,cs),
(305,-13,o),
(360,16,o),
(390,51,cs),
(413,78,o),
(382,104,o),
(358,79,cs),
(328,48,o),
(292,35,o),
(245,35,cs),
(152,35,o),
(102,96,o),
(102,252,cs),
(102,397,o),
(164,466,o),
(238,466,cs),
(283,466,o),
(314,437,o),
(314,397,cs),
(314,375,o),
(332,357,o),
(354,357,cs),
(376,357,o),
(394,375,o),
(394,397,cs)
);
}
);
};
backgroundImage = {
imagePath = "specimen-images/12pt-lowerC.jpg";
locked = 1;
pos = (-18,-345);
scale = (10.7,10.7);
};
layerId = m003;
shapes = (
{
closed = 1;
nodes = (
(332,-16,o),
(385,12,o),
(412,44,cs),
(414,47,o),
(413,51,o),
(409,55,cs),
(392,73,ls),
(388,78,o),
(383,78,o),
(378,73,cs),
(356,53,o),
(327,30,o),
(268,30,cs),
(191,30,o),
(127,102,o),
(127,252,cs),
(127,391,o),
(185,460,o),
(258,460,cs),
(301,460,o),
(329,420,o),
(329,387,cs),
(329,358,o),
(350,337,o),
(374,337,cs),
(398,337,o),
(419,358,o),
(419,387,cs),
(419,446,o),
(350,505,o),
(259,505,cs),
(128,505,o),
(30,392,o),
(30,252,cs),
(30,99,o),
(125,-16,o),
(256,-16,cs)
);
}
);
width = 437;
}
);
metricLeft = "=o";
unicode = 99;
},
{
glyphname = d;
kernLeft = o;
lastChange = "2025-05-17 15:56:00 +0000";
layers = (
{
anchors = (
{
name = bottom;
pos = (292,0);
},
{
name = center;
pos = (437,640);
},
{
name = top;
pos = (292,494);
},
{
name = topright;
pos = (563,800);
}
);
backgroundImage = {
imagePath = "specimen-images/12pt-lowerD.jpg";
locked = 1;
pos = (8,-343);
scale = (10.7,10.7);
};
hints = (
{
name = _cap.flag;
origin = (0,14);
type = Cap;
}
);
layerId = m01;
shapes = (
{
closed = 1;
nodes = (
(391,752,l),
(391,7,ls),
(391,1,o),
(395,-4,o),
(401,-3,cs),
(448,2,o),
(474,4,o),
(523,-1,c),
(544,-1,o),
(544,31,o),
(523,31,c),
(484,31,o),
(466,54,o),
(466,90,c),
(466,752,l)
);
},
{
closed = 1;
nodes = (
(424,172,l),
(404,118,o),
(346,39,o),
(260,39,cs),
(172,39,o),
(125,95,o),
(125,248,cs),
(125,400,o),
(172,454,o),
(256,454,cs),
(321,454,o),
(379,405,o),
(391,321,c),
(431,335,l),
(425,397,o),
(357,503,o),
(240,503,cs),
(128,503,o),
(38,396,o),
(38,248,c),
(38,100,o),
(132,-11,o),
(251,-11,cs),
(356,-11,o),
(412,92,o),
(444,144,c)
);
}
);
width = 580;
},
{
backgroundImage = {
imagePath = "specimen-images/12pt-lowerD.jpg";
locked = 1;
pos = (-5,-343);
scale = (10.7,10.7);
};
hints = (
{
name = _corner.rightBottomSerif;
origin = (0,5);
type = Corner;
},
{
name = _cap.flag;
origin = (0,6);
type = Cap;
}
);
layerId = m003;
shapes = (
{
closed = 1;
nodes = (
(388,800,l),
(388,19,ls),
(388,9,o),
(393,-1,o),
(403,-1,cs),
(473,-1,l),
(473,800,l)
);
},
{
closed = 1;
nodes = (
(425,189,l),
(411,141,o),
(352,33,o),
(262,33,cs),
(176,33,o),
(127,105,o),
(127,252,cs),
(127,398,o),
(185,456,o),
(268,456,cs),
(334,456,o),
(380,394,o),
(389,309,c),
(435,318,l),
(433,383,o),
(378,505,o),
(252,505,cs),
(138,505,o),
(30,406,o),
(30,252,cs),
(30,98,o),
(132,-17,o),
(253,-17,cs),
(364,-17,o),
(422,98,o),
(454,149,c)
);
}
);
width = 580;
}
);
metricLeft = "=o";
metricRight = "=n";
unicode = 100;
},
{
glyphname = e;
kernLeft = o;
lastChange = "2025-05-17 15:56:00 +0000";
layers = (
{
anchors = (
{
name = bottom;
pos = (292,0);
},
{
name = ogonek;
pos = (422,10);
},
{
name = top;
pos = (236,494);
}
);
background = {
shapes = (
{
closed = 1;
nodes = (
(39,101,o),
(110,-13,o),
(267,-13,cs),
(339,-13,o),
(382,16,o),
(412,51,cs),
(433,75,o),
(406,99,o),
(383,77,cs),
(354,50,o),
(323,35,o),
(267,35,cs),
(187,35,o),
(123,96,o),
(124,252,cs),
(125,403,o),
(184,466,o),
(251,466,cs),
(330,466,o),
(363,403,o),
(366,264,c),
(440,264,l),
(440,387,o),
(377,505,o),
(252,505,cs),
(125,505,o),
(40,391,o),
(38,252,cs),
(38,250,ls)
);
},
{
closed = 1;
nodes = (
(117,264,l),
(377,264,l),
(377,299,l),
(117,299,l)
);
}
);
};
backgroundImage = {
imagePath = "specimen-images/12pt-lowerE.jpg";
locked = 1;
pos = (-1,-333);
scale = (10.7,10.7);
};
hints = (
{
place = (327,25);
type = Stem;
}
);
layerId = m01;
shapes = (
{
closed = 1;
nodes = (
(339,-13,o),
(377,10,o),
(411,43,cs),
(434,65,o),
(411,91,o),
(386,72,cs),
(353,47,o),
(323,37,o),
(277,37,cs),
(191,37,o),
(121,106,o),
(121,252,cs),
(122,403,o),
(184,464,o),
(251,464,cs),
(330,464,o),
(363,403,o),
(366,264,c),
(440,264,l),
(440,387,o),
(377,505,o),
(252,505,cs),
(125,505,o),
(38,391,o),
(38,253,cs),
(38,104,o),
(119,-13,o),
(267,-13,cs)
);
},
{
closed = 1;
nodes = (
(377,264,l),
(377,299,l),
(117,299,l),
(117,264,l)
);
}
);
width = 469;
},
{
backgroundImage = {
imagePath = "specimen-images/12pt-lowerE.jpg";
locked = 1;
pos = (-21,-333);
scale = (10.7,10.7);
};
hints = (
{
place = (345,43);
type = Stem;
}
);
layerId = m003;
shapes = (
{
closed = 1;
nodes = (
(336,-14,o),
(386,13,o),
(412,44,cs),
(414,47,o),
(412,52,o),
(409,55,cs),
(392,73,ls),
(388,78,o),
(382,77,o),
(378,73,cs),
(356,53,o),
(327,30,o),
(268,30,cs),
(265,30,ls),
(175,30,o),
(126,101,o),
(127,250,cs),
(128,396,o),
(173,458,o),
(249,458,cs),
(337,458,o),
(357,394,o),
(359,242,c),
(447,242,l),
(450,372,o),
(381,503,o),
(250,503,cs),
(121,503,o),
(32,384,o),
(30,250,cs),
(29,136,o),
(83,-16,o),
(265,-16,cs)
);
},
{
closed = 1;
nodes = (
(84,242,l),
(406,242,l),
(406,297,l),
(84,297,l)
);
}
);
width = 485;
}
);
metricLeft = "=o";
unicode = 101;
},
{
glyphname = f;
lastChange = "2025-05-17 15:56:00 +0000";
layers = (
{
backgroundImage = {
imagePath = "specimen-images/12pt-lowerF.jpg";
locked = 1;
pos = (2,-340);
scale = (10.7,10.7);
};
hints = (
{
name = _corner.leftBottomSerif;
origin = (0,39);
type = Corner;
},
{
name = _corner.rightBottomSerif;
origin = (0,0);
type = Corner;
}
);
layerId = m01;
shapes = (
{
closed = 1;
nodes = (
(187,0,l),
(187,459,l),
(222,459,o),
(282,458,o),
(291,457,cs),
(314,455,o),
(315,498,o),
(291,496,cs),
(282,495,o),
(222,494,o),
(187,494,c),
(187,570,o),
(131,717,o),
(186,717,cs),
(218,717,o),
(208,691,o),
(223,671,cs),
(239,650,o),
(268,653,o),
(283,665,cs),
(298,678,o),
(300,703,o),
(284,724,cs),
(268,745,o),
(236,753,o),
(216,753,cs),
(154,753,o),
(112,712,o),
(112,642,cs),
(112,494,l),
(93,495,o),
(75,495,o),
(56,496,cs),
(32,497,o),
(33,456,o),
(56,457,cs),
(75,458,o),
(93,458,o),
(112,459,c),
(112,0,l)
);
}
);
width = 327;
},
{
backgroundImage = {
imagePath = "specimen-images/12pt-lowerF.jpg";
locked = 1;
pos = (-18,-340);
scale = (10.7,10.7);
};
hints = (
{
name = _corner.leftBottomSerif;
origin = (0,39);
type = Corner;
},
{
name = _corner.rightBottomSerif;
origin = (0,0);
type = Corner;
}
);
layerId = m003;
shapes = (
{
closed = 1;
nodes = (
(187,0,l),
(187,444,l),
(286,444,ls),
(292,444,o),
(296,448,o),
(296,454,cs),
(296,484,ls),
(296,490,o),
(292,494,o),
(286,494,cs),
(184,494,l),
(166,546,o),
(135,707,o),
(181,707,cs),
(212,707,o),
(196,689,o),
(214,665,cs),
(234,639,o),
(262,642,o),
(281,657,cs),
(297,671,o),
(300,708,o),
(283,730,cs),
(263,756,o),
(230,763,o),
(211,763,cs),
(147,763,o),
(102,719,o),
(102,642,cs),
(102,494,l),
(41,494,ls),
(35,494,o),
(31,490,o),
(31,484,cs),
(31,454,ls),
(31,448,o),
(35,444,o),
(41,444,cs),
(102,444,l),
(102,0,l)
);
}
);
width = 315;
}
);
unicode = 102;
},
{
glyphname = g;
lastChange = "2025-05-17 15:56:00 +0000";
layers = (
{
backgroundImage = {
imagePath = "specimen-images/12pt-lowerE.jpg";
locked = 1;
pos = (10,-328);
scale = (10.7,10.7);
};
layerId = m01;
shapes = (
{
closed = 1;
nodes = (
(374,136,o),
(466,219,o),
(466,321,cs),
(466,422,o),
(374,505,o),
(268,505,cs),
(162,505,o),
(70,422,o),
(70,321,cs),
(70,217,o),
(165,136,o),
(268,136,cs)
);
},
{
closed = 1;
nodes = (
(202,169,o),
(151,209,o),
(151,321,cs),
(151,430,o),
(202,471,o),
(269,471,cs),
(337,471,o),
(386,431,o),
(386,321,cs),
(386,208,o),
(337,169,o),
(269,169,cs)
);
},
{
closed = 1;
nodes = (
(263,-30,ls),
(361,-51,o),
(454,-71,o),
(454,-125,cs),
(454,-180,o),
(382,-221,o),
(269,-221,cs),
(186,-221,o),
(85,-184,o),
(87,-115,cs),
(89,-54,o),
(170,-27,o),
(219,0,c),
(183,12,l),
(121,-14,o),
(28,-46,o),
(28,-119,cs),
(28,-208,o),
(168,-254,o),
(265,-254,cs),
(362,-254,o),
(514,-217,o),
(514,-111,cs),
(514,-25,o),
(453,7,o),
(170,56,cs),
(93,70,o),
(106,133,o),
(206,166,c),
(171,183,l),
(78,144,o),
(60,107,o),
(60,79,cs),
(60,49,o),
(88,7,o),
(196,-16,cs)
);
},
{
closed = 1;
nodes = (
(531,434,o),
(548,450,o),
(548,469,cs),
(548,488,o),
(531,502,o),
(513,504,cs),
(465,510,o),
(426,482,o),
(398,444,c),
(418,424,l),
(423,434,o),
(431,448,o),
(453,448,cs),
(482,448,o),
(488,434,o),
(513,434,cs)
);
}
);
width = 567;
},
{
backgroundImage = {
imagePath = "specimen-images/12pt-lowerE.jpg";
locked = 1;
pos = (-3,-328);
scale = (10.7,10.7);
};
layerId = m003;
shapes = (
{
closed = 1;
nodes = (
(377,116,o),
(473,202,o),
(473,311,cs),
(473,419,o),
(377,505,o),
(270,505,cs),
(163,505,o),
(67,419,o),
(67,311,cs),
(67,200,o),
(166,116,o),
(270,116,cs)
);
},
{
closed = 1;
nodes = (
(205,160,o),
(158,218,o),
(158,311,cs),
(158,402,o),
(206,460,o),
(271,460,cs),
(338,460,o),
(383,402,o),
(383,311,cs),
(383,217,o),
(338,160,o),
(271,160,cs)
);
},
{
closed = 1;
nodes = (
(264,-50,ls),
(362,-71,o),
(451,-92,o),
(451,-135,cs),
(451,-181,o),
(382,-221,o),
(271,-221,cs),
(188,-221,o),
(92,-185,o),
(94,-125,cs),
(96,-65,o),
(196,-39,o),
(242,-7,c),
(185,12,l),
(124,-14,o),
(25,-46,o),
(25,-129,cs),
(25,-228,o),
(170,-274,o),
(267,-274,cs),
(365,-274,o),
(521,-237,o),
(521,-121,cs),
(521,-26,o),
(457,7,o),
(173,56,cs),
(110,67,o),
(116,69,o),
(223,159,c),
(173,183,l),
(91,126,o),
(57,89,o),
(57,54,cs),
(57,16,o),
(88,-13,o),
(197,-36,cs)
);
},
{
closed = 1;
nodes = (
(535,414,o),
(555,433,o),
(555,459,cs),
(555,485,o),
(534,502,o),
(516,504,cs),
(462,511,o),
(422,478,o),
(391,433,c),
(421,403,l),
(425,407,o),
(427,428,o),
(455,428,cs),
(485,428,o),
(489,414,o),
(515,414,cs)
);
}
);
width = 575;
}
);
unicode = 103;
},
{
glyphname = h;
lastChange = "2025-05-17 15:56:00 +0000";
layers = (
{
background = {
hints = (
{
name = _corner.leftBottomSerif;
type = Corner;
},
{
name = _corner.rightBottomSerif;
type = Corner;
},
{
name = _corner.leftBottomSerif;
origin = (0,0);
type = Corner;
},
{
name = _corner.rightBottomSerif;
origin = (0,1);
type = Corner;
}
);
shapes = (
{
closed = 1;
nodes = (
(425,0,l),
(500,0,l),
(500,405,ls),
(500,476,o),
(463,505,o),
(399,505,cs),
(315,505,o),
(223,454,o),
(167,412,c),
(185,380,l),
(237,421,o),
(315,462,o),
(361,462,cs),
(405,462,o),
(425,427,o),
(425,380,cs)
);
}
);
};
hints = (
{
name = _corner.leftBottomSerif;
origin = (0,1);
type = Corner;
},
{
name = _corner.rightBottomSerif;
origin = (0,2);
type = Corner;
},
{
name = _cap.flag;
origin = (0,3);
type = Cap;
},
{
name = _corner.leftBottomSerif;
origin = (1,0);
type = Corner;
},
{
name = _corner.rightBottomSerif;
origin = (1,1);
type = Corner;
}
);
layerId = m01;
shapes = (
{
closed = 1;
nodes = (
(117,752,l),
(117,0,l),
(192,0,l),
(192,752,l)
);
},
{
closed = 1;
nodes = (
(419,0,l),
(494,0,l),
(494,405,ls),
(494,476,o),
(457,505,o),
(393,505,cs),
(309,505,o),
(217,459,o),
(161,410,c),
(179,374,l),
(231,429,o),
(309,450,o),
(355,450,cs),
(399,450,o),
(419,425,o),
(419,378,cs)
);
}
);
width = 608;
},
{
background = {
hints = (
{
name = _corner.leftBottomSerif;
origin = (0,0);
type = Corner;
},
{
name = _corner.rightBottomSerif;
origin = (0,1);
type = Corner;
}
);
shapes = (
{
closed = 1;
nodes = (
(396,0,l),
(471,0,l),
(471,405,ls),
(471,477,o),
(431,505,o),
(350,505,cs),
(289,505,o),
(202,458,o),
(146,416,c),
(156,380,l),
(200,412,o),
(286,462,o),
(332,462,cs),
(376,462,o),
(396,427,o),
(396,380,cs)
);
}
);
};
hints = (
{
name = _corner.leftBottomSerif;
origin = (0,1);
type = Corner;
},
{
name = _corner.rightBottomSerif;
origin = (0,2);
type = Corner;
},
{
name = _cap.flag;
origin = (0,3);
type = Cap;
},
{
name = _corner.leftBottomSerif;
origin = (1,0);
type = Corner;
},
{
name = _corner.rightBottomSerif;
origin = (1,1);
type = Corner;
}
);
layerId = m003;
shapes = (
{
closed = 1;
nodes = (
(107,800,l),
(107,0,l),
(192,0,l),
(192,800,l)
);
},
{
closed = 1;
nodes = (
(410,0,l),
(495,0,l),
(495,395,ls),
(495,473,o),
(454,505,o),
(389,505,cs),
(302,505,o),
(206,450,o),
(148,405,c),
(174,359,l),
(223,399,o),
(304,442,o),
(351,442,cs),
(393,442,o),
(410,412,o),
(410,370,cs)
);
}
);
width = 602;
}
);
metricLeft = "=n";
metricRight = "=n";
unicode = 104;
},
{
glyphname = i;
lastChange = "2025-05-17 15:56:00 +0000";
layers = (
{
backgroundImage = {
imagePath = "specimen-images/12pt-lowerI.jpg";
pos = (12,-345);
scale = (10.7,10.7);
};
guides = (
{
pos = (7,-345);
},
{
angle = 270;
pos = (39,14);
}
);
layerId = m01;
shapes = (
{
ref = idotless;
},
{
pos = (102,0);
ref = dotaccentcomb;
}
);
width = 312;
},
{
backgroundImage = {
imagePath = "specimen-images/12pt-lowerI.jpg";
pos = (18,-345);
scale = (10.7,10.7);
};
guides = (
{
pos = (31,-345);
},
{
angle = 270;
pos = (63,14);
}
);
hints = (
{
name = _corner.leftBottomSerif;
origin = (1,3);
type = Corner;
},
{
name = _corner.rightBottomSerif;
origin = (1,0);
type = Corner;
},
{
name = _cap.flag;
origin = (1,1);
type = Cap;
}
);
layerId = m003;
shapes = (
{
closed = 1;
nodes = (
(199,588,o),
(229,613,o),
(229,654,cs),
(229,695,o),
(199,719,o),
(164,719,cs),
(128,719,o),
(98,695,o),
(98,654,cs),
(98,613,o),
(128,588,o),
(164,588,cs)
);
},
{
closed = 1;
nodes = (
(215,0,l),
(215,505,l),
(130,505,l),
(130,0,l)
);
}
);
width = 342;
}
);
metricLeft = "=n";
metricRight = "=n";
unicode = 105;
},
{
glyphname = idotless;
lastChange = "2025-05-17 15:56:00 +0000";
layers = (
{
anchors = (
{
name = bottom;
pos = (156,0);
},
{
name = ogonek;
pos = (268,0);
},
{
name = top;
pos = (156,494);
}
);
hints = (
{
name = _corner.rightBottomSerif;
origin = (0,0);
type = Corner;
},
{
name = _cap.flag;
origin = (0,1);
type = Cap;
},
{
name = _corner.leftBottomSerif;
origin = (0,3);
type = Corner;
}
);
layerId = m01;
shapes = (
{
closed = 1;
nodes = (
(195,0,l),
(195,511,l),
(120,511,l),
(120,0,l)
);
}
);
width = 312;
},
{
layerId = m003;
width = 600;
}
);
metricLeft = "=i";
metricRight = "=i";
unicode = 305;
},
{
glyphname = j;
lastChange = "2025-05-17 15:56:00 +0000";
layers = (
{
background = {
hints = (
{
name = _cap.flag;
type = Cap;
},
{
name = _cap.flag;
origin = (0,0);
type = Cap;
}
);
shapes = (
{
closed = 1;
nodes = (
(151,505,l),
(76,505,l),
(76,-140,ls),
(76,-223,o),
(72,-237,o),
(51,-237,cs),
(25,-237,o),
(32,-213,o),
(26,-200,cs),
(21,-189,o),
(10,-181,o),
(-2,-181,cs),
(-20,-181,o),
(-35,-197,o),
(-35,-218,cs),
(-35,-257,o),
(19,-264,o),
(50,-264,cs),
(90,-264,o),
(151,-236,o),
(151,-140,cs)
);
}
);
};
backgroundImage = {
imagePath = "specimen-images/12pt-lowerJ.jpg";
locked = 1;
pos = (-48,-355);
scale = (10.7,10.7);
};
layerId = m01;
shapes = (
{
ref = jdotless;
},
{
pos = (51,0);
ref = dotaccentcomb;
}
);
width = 197;
},
{
background = {
hints = (
{
name = _cap.flag;
type = Cap;
},
{
name = _cap.flag;
origin = (0,0);
type = Cap;
}
);
shapes = (
{
closed = 1;
nodes = (
(126,505,l),
(51,505,l),
(51,-140,ls),
(51,-223,o),
(47,-237,o),
(26,-237,cs),
(0,-237,o),
(7,-213,o),
(1,-200,cs),
(-4,-189,o),
(-15,-181,o),
(-27,-181,cs),
(-45,-181,o),
(-60,-197,o),
(-60,-218,cs),
(-60,-257,o),
(-6,-264,o),
(25,-264,cs),
(65,-264,o),
(126,-236,o),
(126,-140,cs)
);
}
);
};
backgroundImage = {
imagePath = "specimen-images/12pt-lowerJ.jpg";
locked = 1;
pos = (-73,-355);
scale = (10.7,10.7);
};
hints = (
{
name = _cap.flag;
origin = (0,0);
type = Cap;
}
);
layerId = m003;
shapes = (
{
closed = 1;
nodes = (
(151,505,l),
(66,505,l),
(66,-160,ls),
(66,-220,o),
(63,-227,o),
(46,-227,cs),
(25,-227,o),
(26,-204,o),
(26,-186,cs),
(26,-167,o),
(15,-151,o),
(-9,-151,cs),
(-34,-151,o),
(-45,-167,o),
(-45,-186,cs),
(-45,-246,o),
(-5,-280,o),
(45,-280,cs),
(86,-280,o),
(151,-244,o),
(151,-160,cs)
);
},
{
closed = 1;
nodes = (
(136,587,o),
(166,612,o),
(166,653,cs),
(166,694,o),
(136,718,o),
(101,718,cs),
(65,718,o),
(35,694,o),
(35,653,cs),
(35,612,o),
(65,587,o),
(101,587,cs)
);
}
);
width = 201;
}
);
unicode = 106;
},
{
glyphname = jdotless;
lastChange = "2025-05-17 15:56:00 +0000";
layers = (
{
anchors = (
{
name = bottom;
pos = (105,-254);
},
{
name = top;
pos = (105,494);
}
);
hints = (
{
name = _cap.flag;
origin = (0,0);
type = Cap;
}
);
layerId = m01;
shapes = (
{
closed = 1;
nodes = (
(156,505,l),
(81,505,l),
(81,-160,ls),
(81,-223,o),
(75,-237,o),
(56,-237,cs),
(32,-237,o),
(37,-203,o),
(31,-190,cs),
(26,-179,o),
(15,-171,o),
(3,-171,cs),
(-15,-171,o),
(-30,-187,o),
(-30,-208,cs),
(-30,-238,o),
(7,-270,o),
(55,-270,cs),
(95,-270,o),
(156,-236,o),
(156,-160,cs)
);
}
);
width = 197;
},
{
layerId = m003;
width = 600;
}
);
metricLeft = "=j";
metricRight = "=j";
unicode = 567;
},
{
glyphname = k;
lastChange = "2025-05-17 15:56:00 +0000";
layers = (
{
background = {
hints = (
{
name = _corner.leftBottomSerif;
type = Corner;
},
{
name = _corner.rightBottomSerif;
type = Corner;
},
{
name = _cap.flag;
type = Cap;
},
{
name = _corner.leftBottomSerif;
type = Corner;
},
{
name = _corner.rightBottomSerif;
options = 1;
type = Corner;
},
{
name = _corner.leftBottomSerif;
type = Corner;
},
{
name = _corner.rightBottomSerif;
type = Corner;
},
{
name = _cap.flag;
type = Cap;
},
{
name = _corner.leftBottomSerif;
type = Corner;
},
{
name = _corner.rightBottomSerif;
options = 1;
type = Corner;
},
{
name = _corner.leftBottomSerif;
origin = (0,1);
type = Corner;
},
{
name = _corner.rightBottomSerif;
origin = (0,2);
type = Corner;
},
{
name = _cap.flag;
origin = (0,3);
type = Cap;
},
{
name = _corner.leftBottomSerif;
origin = (1,1);
type = Corner;
},
{
name = _corner.rightBottomSerif;
options = 1;
origin = (1,2);
type = Corner;
}
);
shapes = (
{
closed = 1;
nodes = (
(122,752,l),
(122,0,l),
(197,0,l),
(197,752,l)
);
},
{
closed = 1;
nodes = (
(279,282,l),
(435,0,l),
(517,0,l),
(334,331,l)
);
},
{
closed = 1;
nodes = (
(503,495,o),
(473,491,o),
(443,491,cs),
(412,491,o),
(381,495,o),
(361,495,c),
(340,495,o),
(340,463,o),
(361,463,cs),
(400,463,o),
(426,453,o),
(392,423,c),
(154,210,l),
(184,188,l),
(441,422,ls),
(476,453,o),
(484,463,o),
(523,463,cs),
(543,463,o),
(542,495,o),
(522,495,cs)
);
}
);
};
backgroundImage = {
imagePath = "specimen-images/12pt-lowerK.jpg";
locked = 1;
pos = (10,-331);
scale = (10.7,10.7);
};
hints = (
{
name = _corner.leftBottomSerif;
origin = (0,1);
type = Corner;
},
{
name = _corner.rightBottomSerif;
origin = (0,2);
type = Corner;
},
{
name = _cap.flag;
origin = (0,3);
type = Cap;
},
{
name = _corner.leftBottomSerif;
origin = (1,1);
type = Corner;
},
{
name = _corner.rightBottomSerif;
options = 1;
origin = (1,2);
type = Corner;
}
);
layerId = m01;
shapes = (
{
closed = 1;
nodes = (
(117,752,l),
(117,0,l),
(192,0,l),
(192,752,l)
);
},
{
closed = 1;
nodes = (
(274,282,l),
(430,0,l),
(512,0,l),
(329,331,l)
);
},
{
closed = 1;
nodes = (
(498,495,o),
(468,491,o),
(438,491,cs),
(407,491,o),
(376,495,o),
(356,495,c),
(335,495,o),
(335,463,o),
(356,463,cs),
(382,463,o),
(409,444,o),
(354,394,cs),
(149,210,l),
(179,188,l),
(411,399,ls),
(454,438,o),
(483,463,o),
(518,463,cs),
(538,463,o),
(537,495,o),
(517,495,cs)
);
}
);
width = 592;
},
{
background = {
hints = (
{
name = _corner.leftBottomSerif;
type = Corner;
},
{
name = _corner.rightBottomSerif;
type = Corner;
},
{
name = _cap.flag;
type = Cap;
},
{
name = _corner.leftBottomSerif;
type = Corner;
},
{
name = _corner.rightBottomSerif;
options = 1;
type = Corner;
},
{
name = _corner.leftBottomSerif;
type = Corner;
},
{
name = _corner.rightBottomSerif;
type = Corner;
},
{
name = _cap.flag;
type = Cap;
},
{
name = _corner.leftBottomSerif;
type = Corner;
},
{
name = _corner.rightBottomSerif;
options = 1;
type = Corner;
},
{
name = _corner.leftBottomSerif;
origin = (0,1);
type = Corner;
},
{
name = _corner.rightBottomSerif;
origin = (0,2);
type = Corner;
},
{
name = _cap.flag;
origin = (0,3);
type = Cap;
},
{
name = _corner.leftBottomSerif;
origin = (1,1);
type = Corner;
},
{
name = _corner.rightBottomSerif;
options = 1;
origin = (1,2);
type = Corner;
}
);
shapes = (
{
closed = 1;
nodes = (
(99,752,l),
(99,0,l),
(174,0,l),
(174,752,l)
);
},
{
closed = 1;
nodes = (
(256,282,l),
(412,0,l),
(494,0,l),
(311,331,l)
);
},
{
closed = 1;
nodes = (
(480,495,o),
(450,491,o),
(420,491,cs),
(389,491,o),
(358,495,o),
(338,495,c),
(317,495,o),
(317,463,o),
(338,463,cs),
(377,463,o),
(403,453,o),
(369,423,c),
(131,210,l),
(161,188,l),
(418,422,ls),
(453,453,o),
(461,463,o),
(500,463,cs),
(520,463,o),
(519,495,o),
(499,495,cs)
);
}
);
};
backgroundImage = {
imagePath = "specimen-images/12pt-lowerK.jpg";
locked = 1;
pos = (-13,-331);
scale = (10.7,10.7);
};
hints = (
{
name = _corner.leftBottomSerif;
origin = (0,1);
type = Corner;
},
{
name = _corner.rightBottomSerif;
origin = (0,2);
type = Corner;
},
{
name = _cap.flag;
origin = (0,3);
type = Cap;
},
{
name = _corner.leftBottomSerif;
origin = (1,1);
type = Corner;
},
{
name = _corner.rightBottomSerif;
options = 1;
origin = (1,2);
type = Corner;
},
{
name = _corner.leftBottomSerif;
origin = (2,3);
type = Corner;
},
{
name = _corner.rightBottomSerif;
options = 1;
origin = (2,0);
type = Corner;
}
);
layerId = m003;
shapes = (
{
closed = 1;
nodes = (
(107,800,l),
(107,0,l),
(192,0,l),
(192,800,l)
);
},
{
closed = 1;
nodes = (
(260,285,l),
(423,0,l),
(520,0,l),
(325,342,l)
);
},
{
closed = 1;
nodes = (
(449,494,l),
(131,209,l),
(174,178,l),
(523,494,l)
);
}
);
width = 585;
}
);
metricLeft = "=n";
unicode = 107;
},
{
glyphname = l;
lastChange = "2025-05-17 15:56:00 +0000";
layers = (
{
anchors = (
{
name = bottom;
pos = (153,0);
},
{
name = center;
pos = (153,247);
},
{
name = top;
pos = (153,734);
},
{
name = topright;
pos = (294,800);
}
);
hints = (
{
name = _corner.leftBottomSerif;
origin = (0,1);
type = Corner;
},
{
name = _corner.rightBottomSerif;
origin = (0,2);
type = Corner;
},
{
name = _cap.flag;
origin = (0,3);
type = Cap;
},
{
name = _cap.flag;
origin = (0,3);
target = (0,1);
type = Cap;
}
);
layerId = m01;
shapes = (
{
closed = 1;
nodes = (
(117,752,l),
(117,0,l),
(192,0,l),
(192,752,l)
);
}
);
width = 306;
},
{
hints = (
{
name = _corner.leftBottomSerif;
origin = (0,1);
type = Corner;
},
{
name = _corner.rightBottomSerif;
origin = (0,2);
type = Corner;
},
{
name = _cap.flag;
origin = (0,3);
type = Cap;
},
{
name = _cap.flag;
origin = (0,3);
target = (0,1);
type = Cap;
}
);
layerId = m003;
shapes = (
{
closed = 1;
nodes = (
(107,801,l),
(107,0,l),
(192,0,l),
(192,801,l)
);
}
);
width = 299;
}
);
metricLeft = "=n";
metricRight = "=n";
unicode = 108;
},
{
glyphname = lslash;
lastChange = "2025-05-17 15:56:00 +0000";
layers = (
{
guides = (
{
angle = 270;
pos = (45,384);
},
{
angle = 90;
pos = (265,384);
}
);
hints = (
{
name = _cap.flag;
origin = (0,3);
type = Cap;
},
{
name = _corner.leftBottomSerif;
origin = (0,1);
type = Corner;
},
{
name = _corner.rightBottomSerif;
origin = (0,2);
type = Corner;
}
);
layerId = m01;
shapes = (
{
closed = 1;
nodes = (
(117,752,l),
(117,0,l),
(192,0,l),
(192,752,l)
);
},
{
closed = 1;
nodes = (
(45,290,l),
(265,444,l),
(265,477,l),
(45,323,l)
);
}
);
width = 306;
},
{
layerId = m003;
width = 600;
}
);
unicode = 322;
},
{
glyphname = m;
lastChange = "2025-05-17 15:56:00 +0000";
layers = (
{
background = {
hints = (
{
name = _corner.leftBottomSerif;
type = Corner;
},
{
name = _corner.rightBottomSerif;
type = Corner;
},
{
name = _cap.flag;
type = Cap;
},
{
name = _corner.leftBottomSerif;
type = Corner;
},
{
name = _corner.rightBottomSerif;
type = Corner;
},
{
name = _corner.leftBottomSerif;
type = Corner;
},
{
name = _corner.rightBottomSerif;
type = Corner;
},
{
name = _corner.leftBottomSerif;
origin = (0,0);
type = Corner;
},
{
name = _corner.rightBottomSerif;
origin = (0,1);
type = Corner;
}
);
shapes = (
{
closed = 1;
nodes = (
(680,0,l),
(755,0,l),
(755,405,l),
(755,477,o),
(741,505,o),
(660,505,cs),
(599,505,o),
(486,447,o),
(430,416,c),
(440,383,l),
(468,397,o),
(495,411,o),
(524,425,cs),
(549,437,o),
(615,462,o),
(638,462,cs),
(682,462,o),
(680,427,o),
(680,380,c)
);
}
);
};
backgroundImage = {
imagePath = "specimen-images/12pt-lowerM.jpg";
pos = (11,-331);
scale = (10.7,10.7);
};
hints = (
{
name = _corner.leftBottomSerif;
origin = (0,1);
type = Corner;
},
{
name = _corner.rightBottomSerif;
origin = (0,2);
type = Corner;
},
{
name = _cap.flag;
origin = (0,3);
type = Cap;
},
{
name = _corner.leftBottomSerif;
origin = (2,0);
type = Corner;
},
{
name = _corner.rightBottomSerif;
origin = (2,1);
type = Corner;
},
{
name = _corner.leftBottomSerif;
origin = (3,0);
type = Corner;
},
{
name = _corner.rightBottomSerif;
origin = (3,1);
type = Corner;
}
);
layerId = m01;
shapes = (
{
closed = 1;
nodes = (
(121,504,l),
(121,0,l),
(192,0,l),
(192,504,l)
);
},
{
closed = 0;
nodes = (
(465,407,l),
(465,408,l)
);
},
{
closed = 1;
nodes = (
(396,0,l),
(471,0,l),
(471,405,ls),
(471,476,o),
(434,505,o),
(370,505,cs),
(286,505,o),
(194,459,o),
(138,410,c),
(156,374,l),
(208,429,o),
(286,450,o),
(332,450,cs),
(376,450,o),
(396,425,o),
(396,378,cs)
);
},
{
closed = 1;
nodes = (
(675,0,l),
(750,0,l),
(750,405,ls),
(750,476,o),
(713,505,o),
(649,505,cs),
(565,505,o),
(473,459,o),
(417,410,c),
(435,374,l),
(487,429,o),
(565,450,o),
(611,450,cs),
(655,450,o),
(675,425,o),
(675,378,cs)
);
}
);
width = 864;
},
{
background = {
hints = (
{
name = _corner.leftBottomSerif;
type = Corner;
},
{
name = _corner.rightBottomSerif;
type = Corner;
},
{
name = _cap.flag;
type = Cap;
},
{
name = _corner.leftBottomSerif;
type = Corner;
},
{
name = _corner.rightBottomSerif;
type = Corner;
},
{
name = _corner.leftBottomSerif;
type = Corner;
},
{
name = _corner.rightBottomSerif;
type = Corner;
},
{
name = _corner.leftBottomSerif;
origin = (0,0);
type = Corner;
},
{
name = _corner.rightBottomSerif;
origin = (0,1);
type = Corner;
}
);
shapes = (
{
closed = 1;
nodes = (
(656,0,l),
(731,0,l),
(731,405,l),
(731,477,o),
(717,505,o),
(636,505,cs),
(575,505,o),
(462,447,o),
(406,416,c),
(416,383,l),
(444,397,o),
(471,411,o),
(500,425,cs),
(525,437,o),
(591,462,o),
(614,462,cs),
(658,462,o),
(656,427,o),
(656,380,c)
);
}
);
};
backgroundImage = {
imagePath = "specimen-images/12pt-lowerM.jpg";
pos = (-13,-331);
scale = (10.7,10.7);
};
hints = (
{
name = _corner.leftBottomSerif;
origin = (0,1);
type = Corner;
},
{
name = _corner.rightBottomSerif;
origin = (0,2);
type = Corner;
},
{
name = _cap.flag;
origin = (0,3);
type = Cap;
},
{
name = _corner.leftBottomSerif;
origin = (2,0);
type = Corner;
},
{
name = _corner.rightBottomSerif;
origin = (2,1);
type = Corner;
},
{
name = _corner.leftBottomSerif;
origin = (3,0);
type = Corner;
},
{
name = _corner.rightBottomSerif;
origin = (3,1);
type = Corner;
}
);
layerId = m003;
shapes = (
{
closed = 1;
nodes = (
(107,505,l),
(107,0,l),
(188,0,l),
(188,505,l)
);
},
{
closed = 0;
nodes = (
(461,397,l),
(461,398,l)
);
},
{
closed = 1;
nodes = (
(382,0,l),
(467,0,l),
(467,395,ls),
(467,473,o),
(426,505,o),
(361,505,cs),
(274,505,o),
(178,450,o),
(120,405,c),
(146,359,l),
(195,399,o),
(276,442,o),
(323,442,cs),
(365,442,o),
(382,412,o),
(382,370,cs)
);
},
{
closed = 1;
nodes = (
(664,0,l),
(749,0,l),
(749,395,ls),
(749,473,o),
(708,505,o),
(643,505,cs),
(556,505,o),
(460,450,o),
(402,405,c),
(428,359,l),
(477,399,o),
(558,442,o),
(605,442,cs),
(647,442,o),
(664,412,o),
(664,370,cs)
);
}
);
width = 856;
}
);
metricLeft = "=n";
metricRight = "=n";
unicode = 109;
},
{
glyphname = n;
lastChange = "2025-05-17 15:56:00 +0000";
layers = (
{
anchors = (
{
name = bottom;
pos = (327,0);
},
{
name = top;
pos = (310,505);
}
);
backgroundImage = {
imagePath = "specimen-images/12pt-lowerN.jpg";
locked = 1;
pos = (32,-326);
scale = (10.7,10.7);
};
hints = (
{
name = _corner.leftBottomSerif;
origin = (0,1);
type = Corner;
},
{
name = _corner.rightBottomSerif;
origin = (0,2);
type = Corner;
},
{
name = _cap.flag;
origin = (0,3);
type = Cap;
},
{
name = _corner.leftBottomSerif;
origin = (2,0);
type = Corner;
},
{
name = _corner.rightBottomSerif;
origin = (2,1);
type = Corner;
}
);
layerId = m01;
shapes = (
{
closed = 1;
nodes = (
(117,504,l),
(117,0,l),
(192,0,l),
(192,504,l)
);
},
{
closed = 0;
nodes = (
(461,407,l),
(461,408,l)
);
},
{
closed = 1;
nodes = (
(420,0,l),
(495,0,l),
(495,405,ls),
(495,476,o),
(458,505,o),
(394,505,cs),
(310,505,o),
(218,459,o),
(162,410,c),
(180,374,l),
(232,429,o),
(310,450,o),
(356,450,cs),
(400,450,o),
(420,425,o),
(420,378,cs)
);
}
);
width = 609;
},
{
anchors = (
{
name = bottom;
pos = (317,0);
}
);
associatedMasterId = m01;
backgroundImage = {
imagePath = "specimen-images/12pt-lowerN.jpg";
locked = 1;
pos = (17,-326);
scale = (10.7,10.7);
};
hints = (
{
name = _corner.leftBottomSerif;
origin = (1,1);
type = Corner;
},
{
name = _corner.rightBottomSerif;
origin = (1,2);
type = Corner;
},
{
name = _corner.leftBottomSerif;
origin = (0,0);
type = Corner;
},
{
name = _corner.rightBottomSerif;
origin = (0,1);
type = Corner;
},
{
name = _cap.flag;
origin = (1,3);
type = Cap;
}
);
layerId = "F39141E2-E0CB-49EB-B3B8-3495E401360D";
name = "Mar 8, 25 at 21:14";
shapes = (
{
closed = 1;
nodes = (
(411,0,l),
(486,0,l),
(486,408,l),
(486,480,o),
(472,508,o),
(400,508,cs),
(330,508,o),
(217,450,o),
(161,419,c),
(171,386,l),
(199,400,o),
(226,414,o),
(255,428,cs),
(280,440,o),
(319,454,o),
(342,454,cs),
(364,454,o),
(382,447,o),
(395,432,c),
(404,421,o),
(411,411,o),
(411,383,c)
);
},
{
closed = 1;
nodes = (
(107,504,l),
(107,0,l),
(182,0,l),
(182,504,l)
);
},
{
closed = 0;
nodes = (
(451,407,l),
(451,408,l)
);
}
);
width = 591;
},
{
anchors = (
{
name = bottom;
pos = (322,0);
}
);
backgroundImage = {
imagePath = "specimen-images/12pt-lowerN.jpg";
locked = 1;
pos = (9,-326);
scale = (10.7,10.7);
};
hints = (
{
name = _corner.leftBottomSerif;
origin = (0,1);
type = Corner;
},
{
name = _corner.rightBottomSerif;
origin = (0,2);
type = Corner;
},
{
name = _cap.flag;
origin = (0,3);
type = Cap;
},
{
name = _corner.leftBottomSerif;
origin = (2,0);
type = Corner;
},
{
name = _corner.rightBottomSerif;
origin = (2,1);
type = Corner;
}
);
layerId = m003;
shapes = (
{
closed = 1;
nodes = (
(107,505,l),
(107,0,l),
(192,0,l),
(192,505,l)
);
},
{
closed = 0;
nodes = (
(461,397,l),
(461,398,l)
);
},
{
closed = 1;
nodes = (
(410,0,l),
(495,0,l),
(495,395,ls),
(495,473,o),
(454,505,o),
(389,505,cs),
(302,505,o),
(206,450,o),
(148,405,c),
(174,363,l),
(223,403,o),
(304,446,o),
(351,446,cs),
(393,446,o),
(410,416,o),
(410,374,cs)
);
}
);
width = 602;
},
{
anchors = (
{
name = bottom;
pos = (317,0);
}
);
associatedMasterId = m003;
backgroundImage = {
imagePath = "specimen-images/12pt-lowerN.jpg";
locked = 1;
pos = (17,-326);
scale = (10.7,10.7);
};
hints = (
{
name = _corner.leftBottomSerif;
origin = (1,1);
type = Corner;
},
{
name = _corner.rightBottomSerif;
origin = (1,2);
type = Corner;
},
{
name = _corner.leftBottomSerif;
origin = (0,0);
type = Corner;
},
{
name = _corner.rightBottomSerif;
origin = (0,1);
type = Corner;
},
{
name = _cap.flag;
origin = (1,3);
type = Cap;
}
);
layerId = "AA6396D3-CA92-40A7-AC53-C44648E51AB9";
name = "Mar 8, 25 at 21:14";
shapes = (
{
closed = 1;
nodes = (
(411,0,l),
(486,0,l),
(486,408,l),
(486,480,o),
(472,508,o),
(400,508,cs),
(330,508,o),
(217,450,o),
(161,419,c),
(171,386,l),
(199,400,o),
(226,414,o),
(255,428,cs),
(280,440,o),
(319,454,o),
(342,454,cs),
(364,454,o),
(382,447,o),
(395,432,c),
(404,421,o),
(411,411,o),
(411,383,c)
);
},
{
closed = 1;
nodes = (
(107,504,l),
(107,0,l),
(182,0,l),
(182,504,l)
);
},
{
closed = 0;
nodes = (
(451,407,l),
(451,408,l)
);
}
);
width = 591;
}
);
unicode = 110;
},
{
glyphname = o;
kernLeft = o;
kernRight = o;
lastChange = "2025-05-17 15:56:00 +0000";
layers = (
{
anchors = (
{
name = top;
pos = (272,505);
}
);
backgroundImage = {
imagePath = "specimen-images/12pt-lowerO.jpg";
locked = 1;
pos = (-7,-326);
scale = (10.7,10.7);
};
layerId = m01;
shapes = (
{
closed = 1;
nodes = (
(419,74,o),
(347,29,o),
(272,29,cs),
(197,29,o),
(125,74,o),
(125,246,cs),
(125,415,o),
(197,458,o),
(272,458,cs),
(347,458,o),
(419,415,o),
(419,246,cs)
);
},
{
closed = 1;
nodes = (
(38,99,o),
(144,-16,o),
(272,-16,cs),
(400,-16,o),
(506,99,o),
(506,246,cs),
(506,393,o),
(400,505,o),
(272,505,cs),
(144,505,o),
(38,393,o),
(38,246,cs)
);
}
);
width = 544;
},
{
backgroundImage = {
imagePath = "specimen-images/12pt-lowerO.jpg";
locked = 1;
pos = (-25,-326);
scale = (10.7,10.7);
};
layerId = m003;
shapes = (
{
closed = 1;
nodes = (
(411,91,o),
(343,29,o),
(269,29,cs),
(195,29,o),
(127,91,o),
(127,246,cs),
(127,401,o),
(194,460,o),
(269,460,cs),
(344,460,o),
(411,401,o),
(411,246,cs)
);
},
{
closed = 1;
nodes = (
(30,93,o),
(139,-16,o),
(269,-16,cs),
(399,-16,o),
(508,93,o),
(508,246,cs),
(508,399,o),
(398,505,o),
(269,505,cs),
(140,505,o),
(30,399,o),
(30,246,cs)
);
}
);
width = 538;
}
);
metricRight = "=|";
unicode = 111;
},
{
glyphname = oslash;
kernLeft = o;
lastChange = "2025-05-17 15:56:00 +0000";
layers = (
{
layerId = m01;
shapes = (
{
closed = 1;
nodes = (
(419,74,o),
(347,29,o),
(272,29,cs),
(197,29,o),
(125,74,o),
(125,246,cs),
(125,418,o),
(197,460,o),
(272,460,cs),
(347,460,o),
(419,418,o),
(419,246,cs)
);
},
{
closed = 1;
nodes = (
(38,99,o),
(144,-16,o),
(272,-16,cs),
(400,-16,o),
(506,99,o),
(506,246,cs),
(506,393,o),
(400,505,o),
(272,505,cs),
(144,505,o),
(38,393,o),
(38,246,cs)
);
},
{
closed = 1;
nodes = (
(105,-4,l),
(144,-26,l),
(439,484,l),
(400,506,l)
);
}
);
width = 544;
},
{
layerId = m003;
width = 600;
}
);
unicode = 248;
},
{
glyphname = oe;
kernLeft = o;
lastChange = "2025-05-17 15:56:00 +0000";
layers = (
{
layerId = m01;
shapes = (
{
closed = 1;
nodes = (
(419,104,o),
(367,29,o),
(292,29,cs),
(217,29,o),
(165,104,o),
(165,246,cs),
(165,398,o),
(217,460,o),
(292,460,cs),
(367,460,o),
(419,398,o),
(419,246,cs)
);
},
{
closed = 1;
nodes = (
(78,99,o),
(164,-16,o),
(292,-16,cs),
(420,-16,o),
(506,119,o),
(506,246,cs),
(506,373,o),
(420,505,o),
(292,505,cs),
(164,505,o),
(78,393,o),
(78,246,cs)
);
},
{
closed = 1;
nodes = (
(419,104,o),
(487,-13,o),
(616,-13,cs),
(688,-13,o),
(733,16,o),
(763,51,cs),
(786,78,o),
(755,104,o),
(731,79,cs),
(701,48,o),
(675,35,o),
(628,35,cs),
(535,35,o),
(505,96,o),
(505,252,cs),
(505,413,o),
(555,460,o),
(613,460,cs),
(671,460,o),
(714,413,o),
(717,264,c),
(791,264,l),
(791,387,o),
(738,505,o),
(613,505,cs),
(486,505,o),
(421,391,o),
(419,252,cs)
);
},
{
closed = 1;
nodes = (
(498,264,l),
(728,264,l),
(728,299,l),
(498,299,l)
);
}
);
width = 820;
},
{
layerId = m003;
width = 600;
}
);
metricRight = "=e";
unicode = 339;
},
{
glyphname = p;
kernRight = o;
lastChange = "2025-05-17 15:56:00 +0000";
layers = (
{
backgroundImage = {
imagePath = "specimen-images/12pt-lowerP.jpg";
locked = 1;
pos = (22,-335);
scale = (10.7,10.7);
};
guides = (
{
angle = 244.7223;
pos = (140,376);
}
);
hints = (
{
name = _cap.flag;
origin = (0,20);
type = Cap;
}
);
layerId = m01;
shapes = (
{
closed = 1;
nodes = (
(110,504,l),
(110,-174,ls),
(110,-220,o),
(92,-227,o),
(53,-227,cs),
(33,-227,o),
(33,-257,o),
(53,-257,cs),
(92,-257,o),
(113,-253,o),
(147,-253,cs),
(183,-253,o),
(222,-257,o),
(261,-257,c),
(282,-257,o),
(282,-226,o),
(261,-226,cs),
(222,-226,o),
(184,-226,o),
(184,-174,cs),
(184,504,l)
);
},
{
closed = 1;
nodes = (
(194,14,o),
(250,-16,o),
(305,-16,cs),
(434,-16,o),
(534,98,o),
(534,246,c),
(534,394,o),
(444,505,o),
(335,505,cs),
(221,505,o),
(156,423,o),
(156,340,c),
(184,321,l),
(192,413,o),
(245,460,o),
(316,460,cs),
(400,460,o),
(447,398,o),
(447,246,cs),
(447,93,o),
(394,34,o),
(306,34,cs),
(250,34,o),
(198,58,o),
(169,123,c),
(152,77,l)
);
}
);
width = 573;
},
{
backgroundImage = {
imagePath = "specimen-images/12pt-lowerP.jpg";
locked = 1;
pos = (-9,-335);
scale = (10.7,10.7);
};
guides = (
{
angle = 244.7223;
pos = (127,376);
}
);
hints = (
{
name = _cap.flag;
origin = (0,1);
type = Cap;
},
{
name = _corner.rightBottomSerif;
origin = (0,0);
type = Corner;
},
{
name = _corner.leftBottomSerif;
origin = (0,3);
type = Corner;
}
);
layerId = m003;
shapes = (
{
closed = 1;
nodes = (
(176,-254,l),
(176,504,l),
(92,504,l),
(92,-254,l)
);
},
{
closed = 1;
nodes = (
(177,16,o),
(235,-16,o),
(292,-16,cs),
(423,-16,o),
(526,92,o),
(526,246,cs),
(526,400,o),
(433,504,o),
(312,505,cs),
(190,506,o),
(125,414,o),
(128,323,c),
(175,298,l),
(179,392,o),
(230,460,o),
(303,460,cs),
(393,460,o),
(429,383,o),
(429,246,cs),
(429,109,o),
(400,29,o),
(293,29,cs),
(234,29,o),
(181,81,o),
(156,149,c),
(132,85,l)
);
}
);
width = 556;
}
);
metricRight = "=o";
unicode = 112;
},
{
glyphname = q;
kernLeft = o;
lastChange = "2025-05-17 15:56:00 +0000";
layers = (
{
backgroundImage = {
imagePath = "specimen-images/12pt-lowerQ.jpg";
locked = 1;
pos = (8,-333);
scale = (10.7,10.7);
};
hints = (
{
name = _corner.leftBottomSerif;
options = 1;
origin = (0,1);
scale = (1,-1);
type = Corner;
},
{
name = _corner.leftBottomSerif;
origin = (0,0);
type = Corner;
}
);
layerId = m01;
shapes = (
{
closed = 1;
nodes = (
(390,-254,l),
(465,-254,l),
(465,404,l),
(465,438,o),
(469,467,o),
(469,485,c),
(469,501,o),
(464,504,o),
(452,504,c),
(437,504,o),
(421,491,o),
(404,478,c),
(381,460,o),
(354,457,o),
(343,457,c),
(390,399,l)
);
},
{
closed = 1;
nodes = (
(424,175,l),
(404,121,o),
(346,35,o),
(260,35,cs),
(172,35,o),
(125,96,o),
(125,249,cs),
(125,401,o),
(182,456,o),
(266,456,cs),
(331,456,o),
(379,416,o),
(391,332,c),
(427,339,l),
(421,401,o),
(367,505,o),
(250,505,cs),
(138,505,o),
(38,397,o),
(38,249,c),
(38,101,o),
(132,-15,o),
(251,-15,cs),
(356,-15,o),
(412,88,o),
(444,140,c)
);
}
);
width = 574;
},
{
backgroundImage = {
imagePath = "specimen-images/12pt-lowerQ.jpg";
locked = 1;
pos = (-9,-333);
scale = (10.7,10.7);
};
hints = (
{
name = _corner.leftBottomSerif;
options = 1;
origin = (1,1);
scale = (1,-1);
type = Corner;
},
{
name = _corner.leftBottomSerif;
origin = (1,0);
type = Corner;
}
);
layerId = m003;
shapes = (
{
closed = 1;
nodes = (
(420,199,l),
(406,150,o),
(348,30,o),
(257,30,cs),
(171,30,o),
(127,102,o),
(127,239,cs),
(127,375,o),
(179,459,o),
(262,459,cs),
(328,459,o),
(384,400,o),
(384,311,c),
(440,320,l),
(438,385,o),
(373,505,o),
(247,505,cs),
(133,505,o),
(30,383,o),
(30,239,cs),
(30,95,o),
(127,-15,o),
(248,-15,cs),
(358,-15,o),
(416,99,o),
(448,150,c)
);
},
{
closed = 1;
nodes = (
(383,-254,l),
(468,-254,l),
(468,404,l),
(468,494,l),
(468,500,o),
(464,504,o),
(458,504,c),
(424,504,l),
(420,504,o),
(416,503,o),
(412,501,c),
(341,469,l),
(336,467,o),
(333,463,o),
(333,458,c),
(333,387,o),
(383,450,o),
(383,379,c)
);
}
);
width = 560;
}
);
metricLeft = "=o";
metricRight = "=|p";
unicode = 113;
},
{
glyphname = r;
lastChange = "2025-05-17 15:56:00 +0000";
layers = (
{
anchors = (
{
name = bottom;
pos = (197,0);
},
{
name = top;
pos = (197,494);
}
);
backgroundImage = {
imagePath = "specimen-images/12pt-lowerR.jpg";
locked = 1;
pos = (27,-334);
scale = (10.7,10.7);
};
hints = (
{
name = _corner.leftBottomSerif;
origin = (0,1);
type = Corner;
},
{
name = _corner.rightBottomSerif;
origin = (0,2);
type = Corner;
},
{
name = _cap.flag;
origin = (0,3);
type = Cap;
}
);
layerId = m01;
shapes = (
{
closed = 1;
nodes = (
(117,504,l),
(117,0,l),
(192,0,l),
(192,504,l)
);
},
{
closed = 1;
nodes = (
(355,420,o),
(374,440,o),
(374,463,cs),
(374,490,o),
(354,505,o),
(327,505,cs),
(282,505,o),
(192,451,o),
(158,421,c),
(176,395,l),
(193,413,o),
(214,428,o),
(235,439,cs),
(275,460,o),
(282,420,o),
(330,420,cs)
);
}
);
width = 397;
},
{
backgroundImage = {
imagePath = "specimen-images/12pt-lowerR.jpg";
locked = 1;
pos = (7,-334);
scale = (10.7,10.7);
};
hints = (
{
name = _corner.leftBottomSerif;
origin = (0,1);
type = Corner;
},
{
name = _corner.rightBottomSerif;
origin = (0,2);
type = Corner;
},
{
name = _cap.flag;
origin = (0,3);
type = Cap;
}
);
layerId = m003;
shapes = (
{
closed = 1;
nodes = (
(107,504,l),
(107,0,l),
(192,0,l),
(192,504,l)
);
},
{
closed = 1;
nodes = (
(352,396,o),
(378,413,o),
(378,453,cs),
(378,488,o),
(354,505,o),
(326,505,cs),
(290,505,o),
(267,492,o),
(244,476,cs),
(218,458,o),
(201,435,o),
(176,403,c),
(176,356,l),
(202,383,o),
(219,398,o),
(251,411,cs),
(279,422,o),
(295,396,o),
(326,396,cs)
);
}
);
width = 395;
}
);
metricLeft = "=n";
unicode = 114;
},
{
glyphname = s;
lastChange = "2025-05-17 15:56:00 +0000";
layers = (
{
anchors = (
{
name = bottom;
pos = (206,0);
},
{
name = top;
pos = (206,494);
}
);
backgroundImage = {
imagePath = "specimen-images/12pt-lowerS.jpg";
locked = 1;
pos = (14,-336);
scale = (10.7,10.7);
};
layerId = m01;
shapes = (
{
closed = 1;
nodes = (
(72,3,o),
(144,-16,o),
(201,-16,cs),
(304,-16,o),
(375,44,o),
(375,129,cs),
(375,193,o),
(331,240,o),
(234,279,cs),
(204,291,ls),
(129,322,o),
(98,355,o),
(98,388,cs),
(98,426,o),
(130,466,o),
(195,466,cs),
(260,466,o),
(304,422,o),
(317,367,cs),
(318,360,o),
(324,356,o),
(330,356,cs),
(335,356,o),
(341,360,o),
(341,367,cs),
(341,468,l),
(328,475,o),
(265,505,o),
(204,505,cs),
(121,505,o),
(39,453,o),
(39,368,cs),
(39,311,o),
(80,263,o),
(167,224,c),
(201,209,ls),
(291,169,o),
(317,148,o),
(317,107,cs),
(317,75,o),
(286,26,o),
(200,26,cs),
(126,26,o),
(97,58,o),
(65,133,cs),
(64,136,o),
(59,138,o),
(55,138,cs),
(48,138,o),
(40,134,o),
(40,125,cs),
(40,34,l)
);
}
);
width = 412;
},
{
associatedMasterId = m01;
backgroundImage = {
imagePath = "specimen-images/12pt-lowerS.jpg";
locked = 1;
pos = (12,-336);
scale = (10.7,10.7);
};
layerId = "CE4735F0-D95C-42DD-B14C-6ADB4FC847E9";
name = "Feb 26, 25 at 09:46";
shapes = (
{
closed = 1;
nodes = (
(40,142,ls),
(40,156,o),
(51,169,o),
(55,160,cs),
(66,136,o),
(77,97,o),
(109,68,cs),
(132,47,o),
(154,34,o),
(200,34,cs),
(249,34,o),
(322,51,o),
(322,110,cs),
(322,169,o),
(255,188,o),
(192,220,cs),
(103,265,o),
(49,288,o),
(49,376,cs),
(49,464,o),
(130,504,o),
(194,504,cs),
(250,504,o),
(308,470,o),
(338,449,c),
(338,366,ls),
(338,352,o),
(326,356,o),
(323,366,cs),
(317,385,o),
(307,408,o),
(280,431,cs),
(262,446,o),
(240,459,o),
(194,459,cs),
(130,459,o),
(103,433,o),
(103,395,cs),
(103,344,o),
(157,332,o),
(217,297,cs),
(287,256,o),
(375,219,o),
(375,133,cs),
(375,28,o),
(278,-11,o),
(200,-11,cs),
(127,-11,o),
(65,18,o),
(40,31,c)
);
}
);
width = 399;
},
{
associatedMasterId = m01;
backgroundImage = {
imagePath = "specimen-images/12pt-lowerS.jpg";
locked = 1;
pos = (12,-336);
scale = (10.7,10.7);
};
layerId = "C02F5396-6023-4723-860F-4A7102BF87D8";
name = "Feb 26, 25 at 10:30";
shapes = (
{
closed = 1;
nodes = (
(40,142,ls),
(40,156,o),
(51,169,o),
(55,160,cs),
(66,136,o),
(77,97,o),
(109,68,cs),
(132,47,o),
(154,34,o),
(200,34,cs),
(249,34,o),
(322,51,o),
(322,110,cs),
(322,169,o),
(255,188,o),
(192,220,cs),
(103,265,o),
(49,288,o),
(49,376,cs),
(49,464,o),
(130,504,o),
(194,504,cs),
(250,504,o),
(308,470,o),
(338,449,c),
(338,366,ls),
(338,352,o),
(326,356,o),
(323,366,cs),
(317,385,o),
(307,408,o),
(280,431,cs),
(262,446,o),
(240,459,o),
(194,459,cs),
(130,459,o),
(103,433,o),
(103,395,cs),
(103,344,o),
(157,332,o),
(217,297,cs),
(287,256,o),
(375,219,o),
(375,133,cs),
(375,28,o),
(278,-11,o),
(200,-11,cs),
(127,-11,o),
(65,18,o),
(40,31,c)
);
},
{
closed = 1;
nodes = (
(40,142,ls),
(40,156,o),
(51,169,o),
(55,160,cs),
(66,136,o),
(77,97,o),
(109,68,cs),
(132,47,o),
(154,34,o),
(200,34,cs),
(249,34,o),
(322,51,o),
(322,110,cs),
(322,169,o),
(255,188,o),
(192,220,cs),
(103,265,o),
(49,288,o),
(49,376,cs),
(49,464,o),
(130,504,o),
(194,504,cs),
(250,504,o),
(308,470,o),
(338,449,c),
(338,366,ls),
(338,352,o),
(326,356,o),
(323,366,cs),
(317,385,o),
(307,408,o),
(280,431,cs),
(262,446,o),
(240,459,o),
(194,459,cs),
(130,459,o),
(103,433,o),
(103,395,cs),
(103,344,o),
(157,332,o),
(217,297,cs),
(287,256,o),
(375,219,o),
(375,133,cs),
(375,28,o),
(278,-11,o),
(200,-11,cs),
(127,-11,o),
(65,18,o),
(40,31,c)
);
}
);
width = 399;
},
{
background = {
shapes = (
{
closed = 1;
nodes = (
(158,233,o),
(106,264,cs),
(64,289,o),
(41,333,o),
(41,376,cs),
(41,472,o),
(131,505,o),
(201,505,cs),
(267,505,o),
(321,479,o),
(343,468,c),
(343,367,ls),
(343,360,o),
(337,356,o),
(332,356,cs),
(326,356,o),
(320,360,o),
(319,367,cs),
(306,422,o),
(258,470,o),
(189,470,cs),
(138,470,o),
(95,442,o),
(95,402,cs),
(95,366,o),
(110,349,o),
(149,329,cs),
(208,298,o),
(245,278,o),
(280,257,cs),
(331,226,o),
(377,198,o),
(377,137,cs),
(377,32,o),
(276,-16,o),
(192,-16,cs),
(119,-16,o),
(67,14,o),
(42,27,c),
(42,138,ls),
(42,147,o),
(50,151,o),
(57,151,cs),
(61,151,o),
(65,149,o),
(67,146,cs),
(99,76,o),
(127,22,o),
(204,22,cs),
(253,22,o),
(321,45,o),
(321,104,cs),
(321,142,o),
(282,163,o),
(244,185,cs),
(211,202,o)
);
}
);
};
backgroundImage = {
imagePath = "specimen-images/12pt-lowerS.jpg";
locked = 1;
pos = (14,-336);
scale = (10.7,10.7);
};
layerId = m003;
shapes = (
{
closed = 1;
nodes = (
(60,132,ls),
(54,132,o),
(50,128,o),
(50,122,cs),
(50,34,l),
(76,21,o),
(129,-16,o),
(205,-16,cs),
(290,-16,o),
(395,24,o),
(395,129,cs),
(395,226,o),
(282,275,o),
(233,297,cs),
(215,305,ls),
(171,325,o),
(113,349,o),
(113,399,cs),
(113,431,o),
(153,460,o),
(202,460,cs),
(265,460,o),
(306,411,o),
(321,363,cs),
(322,358,o),
(326,355,o),
(332,355,cs),
(351,355,ls),
(357,355,o),
(361,359,o),
(361,365,cs),
(361,466,l),
(339,477,o),
(283,505,o),
(214,505,cs),
(143,505,o),
(49,473,o),
(49,379,cs),
(49,296,o),
(124,259,o),
(176,236,cs),
(194,228,ls),
(235,210,o),
(329,178,o),
(329,124,cs),
(329,84,o),
(289,29,o),
(217,29,cs),
(150,29,o),
(121,68,o),
(94,125,cs),
(91,130,o),
(87,132,o),
(82,132,cs)
);
}
);
width = 442;
},
{
associatedMasterId = m003;
backgroundImage = {
imagePath = "specimen-images/12pt-lowerS.jpg";
locked = 1;
pos = (12,-336);
scale = (10.7,10.7);
};
layerId = "F4B2B110-D672-43EE-9DB8-F392B748D17B";
name = "Feb 26, 25 at 09:46";
shapes = (
{
closed = 1;
nodes = (
(40,142,ls),
(40,156,o),
(51,169,o),
(55,160,cs),
(66,136,o),
(77,97,o),
(109,68,cs),
(132,47,o),
(154,34,o),
(200,34,cs),
(249,34,o),
(322,51,o),
(322,110,cs),
(322,169,o),
(255,188,o),
(192,220,cs),
(103,265,o),
(49,288,o),
(49,376,cs),
(49,464,o),
(130,504,o),
(194,504,cs),
(250,504,o),
(308,470,o),
(338,449,c),
(338,366,ls),
(338,352,o),
(326,356,o),
(323,366,cs),
(317,385,o),
(307,408,o),
(280,431,cs),
(262,446,o),
(240,459,o),
(194,459,cs),
(130,459,o),
(103,433,o),
(103,395,cs),
(103,344,o),
(157,332,o),
(217,297,cs),
(287,256,o),
(375,219,o),
(375,133,cs),
(375,28,o),
(278,-11,o),
(200,-11,cs),
(127,-11,o),
(65,18,o),
(40,31,c)
);
}
);
width = 399;
},
{
associatedMasterId = m003;
backgroundImage = {
imagePath = "specimen-images/12pt-lowerS.jpg";
locked = 1;
pos = (12,-336);
scale = (10.7,10.7);
};
layerId = "6EF1D466-C128-408A-BD92-E16FD98036B1";
name = "Feb 26, 25 at 10:30";
shapes = (
{
closed = 1;
nodes = (
(40,142,ls),
(40,156,o),
(51,169,o),
(55,160,cs),
(66,136,o),
(77,97,o),
(109,68,cs),
(132,47,o),
(154,34,o),
(200,34,cs),
(249,34,o),
(322,51,o),
(322,110,cs),
(322,169,o),
(255,188,o),
(192,220,cs),
(103,265,o),
(49,288,o),
(49,376,cs),
(49,464,o),
(130,504,o),
(194,504,cs),
(250,504,o),
(308,470,o),
(338,449,c),
(338,366,ls),
(338,352,o),
(326,356,o),
(323,366,cs),
(317,385,o),
(307,408,o),
(280,431,cs),
(262,446,o),
(240,459,o),
(194,459,cs),
(130,459,o),
(103,433,o),
(103,395,cs),
(103,344,o),
(157,332,o),
(217,297,cs),
(287,256,o),
(375,219,o),
(375,133,cs),
(375,28,o),
(278,-11,o),
(200,-11,cs),
(127,-11,o),
(65,18,o),
(40,31,c)
);
},
{
closed = 1;
nodes = (
(40,142,ls),
(40,156,o),
(51,169,o),
(55,160,cs),
(66,136,o),
(77,97,o),
(109,68,cs),
(132,47,o),
(154,34,o),
(200,34,cs),
(249,34,o),
(322,51,o),
(322,110,cs),
(322,169,o),
(255,188,o),
(192,220,cs),
(103,265,o),
(49,288,o),
(49,376,cs),
(49,464,o),
(130,504,o),
(194,504,cs),
(250,504,o),
(308,470,o),
(338,449,c),
(338,366,ls),
(338,352,o),
(326,356,o),
(323,366,cs),
(317,385,o),
(307,408,o),
(280,431,cs),
(262,446,o),
(240,459,o),
(194,459,cs),
(130,459,o),
(103,433,o),
(103,395,cs),
(103,344,o),
(157,332,o),
(217,297,cs),
(287,256,o),
(375,219,o),
(375,133,cs),
(375,28,o),
(278,-11,o),
(200,-11,cs),
(127,-11,o),
(65,18,o),
(40,31,c)
);
}
);
width = 399;
}
);
unicode = 115;
},
{
glyphname = germandbls;
lastChange = "2025-05-17 15:56:00 +0000";
layers = (
{
hints = (
{
name = _corner.leftBottomSerif;
origin = (0,36);
type = Corner;
},
{
name = _corner.rightBottomSerif;
origin = (0,37);
type = Corner;
}
);
layerId = m01;
shapes = (
{
closed = 1;
nodes = (
(434,111,o),
(421,14,o),
(361,14,cs),
(337,14,o),
(336,51,o),
(336,74,cs),
(336,86,o),
(332,115,o),
(308,115,cs),
(274,115,o),
(275,77,o),
(275,56,cs),
(275,26,o),
(312,-19,o),
(360,-19,cs),
(438,-19,o),
(519,67,o),
(519,207,cs),
(519,308,o),
(461,378,o),
(373,405,c),
(446,435,o),
(509,510,o),
(509,587,cs),
(509,693,o),
(412,767,o),
(311,767,cs),
(225,767,o),
(113,716,o),
(112,580,cs),
(112,494,l),
(56,496,ls),
(32,497,o),
(33,456,o),
(56,457,cs),
(112,459,l),
(112,0,l),
(187,0,l),
(187,580,ls),
(187,677,o),
(231,725,o),
(311,725,cs),
(336,725,o),
(424,712,o),
(424,587,cs),
(424,462,o),
(349,422,o),
(278,422,cs),
(249,422,ls),
(237,422,o),
(231,412,o),
(231,403,cs),
(231,394,o),
(238,383,o),
(249,383,cs),
(278,383,ls),
(349,383,o),
(434,349,o),
(434,207,cs)
);
}
);
width = 522;
},
{
layerId = m003;
width = 600;
}
);
metricRight = "=3";
unicode = 223;
},
{
glyphname = t;
lastChange = "2025-05-17 15:56:00 +0000";
layers = (
{
backgroundImage = {
imagePath = "specimen-images/12pt-lowerT.jpg";
locked = 1;
pos = (19,-334);
scale = (10.7,10.7);
};
layerId = m01;
shapes = (
{
closed = 1;
nodes = (
(118,21,o),
(152,-16,o),
(227,-16,cs),
(296,-16,o),
(323,46,o),
(327,54,cs),
(336,74,o),
(310,83,o),
(301,67,cs),
(295,56,o),
(278,31,o),
(242,31,cs),
(192,31,o),
(193,70,o),
(193,104,cs),
(193,462,l),
(228,462,o),
(288,461,o),
(297,460,cs),
(320,458,o),
(321,501,o),
(297,499,cs),
(288,498,o),
(228,497,o),
(193,497,c),
(193,678,ls),
(193,716,o),
(141,716,o),
(141,678,cs),
(141,603,o),
(150,499,o),
(35,499,cs),
(11,499,o),
(12,459,o),
(35,460,cs),
(118,463,l),
(118,104,ls)
);
}
);
width = 358;
},
{
backgroundImage = {
imagePath = "specimen-images/12pt-lowerT.jpg";
locked = 1;
pos = (-24,-334);
scale = (10.7,10.7);
};
layerId = m003;
shapes = (
{
closed = 1;
nodes = (
(88,16,o),
(124,-26,o),
(202,-26,cs),
(262,-26,o),
(292,21,o),
(303,42,cs),
(306,47,o),
(305,51,o),
(299,55,cs),
(280,67,ls),
(274,71,o),
(271,69,o),
(267,64,cs),
(258,54,o),
(243,41,o),
(217,41,cs),
(172,41,o),
(173,69,o),
(173,104,cs),
(173,444,l),
(262,444,ls),
(268,444,o),
(272,448,o),
(272,454,cs),
(272,484,ls),
(272,490,o),
(268,494,o),
(262,494,cs),
(173,494,l),
(173,698,ls),
(173,704,o),
(169,708,o),
(163,708,cs),
(129,708,ls),
(123,708,o),
(119,705,o),
(119,698,cs),
(120,619,o),
(127,501,o),
(20,494,cs),
(13,494,o),
(10,490,o),
(10,484,cs),
(10,454,ls),
(10,448,o),
(14,444,o),
(20,444,cs),
(88,444,l),
(88,104,ls)
);
}
);
width = 330;
}
);
unicode = 116;
},
{
glyphname = u;
lastChange = "2025-05-17 15:56:00 +0000";
layers = (
{
anchors = (
{
name = bottom;
pos = (302,0);
},
{
name = ogonek;
pos = (549,10);
},
{
name = top;
pos = (302,494);
},
{
name = topright;
pos = (591,494);
}
);
backgroundImage = {
imagePath = "specimen-images/12pt-lowerU.jpg";
pos = (48,-331);
scale = (10.7,10.7);
};
hints = (
{
name = _corner.rightBottomSerif;
origin = (0,0);
type = Corner;
},
{
name = _cap.flag;
origin = (0,1);
type = Cap;
},
{
name = _cap.flag;
origin = (2,0);
type = Cap;
}
);
layerId = m01;
shapes = (
{
closed = 1;
nodes = (
(483,0,l),
(483,505,l),
(408,505,l),
(408,-3,l)
);
},
{
closed = 0;
nodes = (
(135,81,l),
(135,80,l)
);
},
{
closed = 1;
nodes = (
(188,505,l),
(113,505,l),
(113,84,ls),
(113,13,o),
(150,-16,o),
(214,-16,cs),
(298,-16,o),
(390,35,o),
(446,77,c),
(428,109,l),
(376,68,o),
(298,27,o),
(252,27,cs),
(208,27,o),
(188,62,o),
(188,109,cs)
);
}
);
width = 601;
},
{
backgroundImage = {
imagePath = "specimen-images/12pt-lowerU.jpg";
pos = (7,-331);
scale = (10.7,10.7);
};
hints = (
{
name = _corner.rightBottomSerif;
origin = (0,0);
type = Corner;
},
{
name = _cap.flag;
origin = (0,1);
type = Cap;
},
{
name = _cap.flag;
origin = (2,0);
type = Cap;
}
);
layerId = m003;
shapes = (
{
closed = 1;
nodes = (
(465,0,l),
(465,505,l),
(380,505,l),
(380,0,l)
);
},
{
closed = 0;
nodes = (
(107,81,l),
(107,80,l)
);
},
{
closed = 1;
nodes = (
(170,505,l),
(85,505,l),
(85,94,ls),
(85,16,o),
(126,-16,o),
(191,-16,cs),
(278,-16,o),
(374,39,o),
(432,84,c),
(406,127,l),
(357,87,o),
(276,44,o),
(229,44,cs),
(187,44,o),
(170,74,o),
(170,116,cs)
);
}
);
width = 572;
}
);
metricLeft = "=|n";
metricRight = "=|n";
unicode = 117;
},
{
glyphname = v;
kernLeft = v;
kernRight = v;
lastChange = "2025-05-17 15:56:00 +0000";
layers = (
{
backgroundImage = {
imagePath = "specimen-images/12pt-lowerV.jpg";
locked = 1;
pos = (11,-331);
scale = (10.7,10.7);
};
hints = (
{
name = _corner.rightBottomSerif;
options = 1;
origin = (0,2);
type = Corner;
},
{
name = _corner.leftBottomSerif;
origin = (0,1);
type = Corner;
},
{
name = _corner.rightBottomSerif;
options = 1;
origin = (0,11);
type = Corner;
},
{
name = _corner.leftBottomSerif;
origin = (0,10);
type = Corner;
}
);
layerId = m01;
shapes = (
{
closed = 1;
nodes = (
(290,91,l),
(143,494,l),
(63,494,l),
(248,2,ls),
(251,-7,o),
(256,-10,o),
(263,-10,cs),
(270,-10,o),
(275,-6,o),
(278,2,cs),
(464,494,l),
(415,494,l),
(268,91,l)
);
}
);
width = 525;
},
{
backgroundImage = {
imagePath = "specimen-images/12pt-lowerV.jpg";
locked = 1;
pos = (4,-331);
scale = (10.7,10.7);
};
hints = (
{
name = _corner.rightBottomSerif;
options = 1;
origin = (0,2);
type = Corner;
},
{
name = _corner.leftBottomSerif;
origin = (0,1);
type = Corner;
},
{
name = _corner.rightBottomSerif;
options = 1;
origin = (0,12);
type = Corner;
},
{
name = _corner.leftBottomSerif;
origin = (0,11);
type = Corner;
}
);
layerId = m003;
shapes = (
{
closed = 1;
nodes = (
(303,81,l),
(148,494,l),
(56,494,l),
(243,8,ls),
(245,2,o),
(249,0,o),
(254,0,cs),
(288,0,ls),
(293,0,o),
(297,2,o),
(299,8,cs),
(487,494,l),
(426,494,l),
(271,81,l)
);
}
);
width = 543;
}
);
unicode = 118;
},
{
glyphname = w;
lastChange = "2025-05-17 15:56:00 +0000";
layers = (
{
backgroundImage = {
imagePath = "specimen-images/12pt-lowerW.jpg";
locked = 1;
pos = (0,-331);
scale = (10.7,10.7);
};
hints = (
{
name = _corner.leftBottomSerif;
origin = (0,1);
type = Corner;
},
{
name = _corner.rightBottomSerif;
options = 1;
origin = (0,2);
type = Corner;
},
{
name = _corner.leftBottomSerif;
origin = (0,10);
type = Corner;
},
{
name = _corner.rightBottomSerif;
options = 1;
origin = (0,11);
type = Corner;
},
{
name = _corner.leftBottomSerif;
origin = (1,3);
type = Corner;
},
{
name = _corner.rightBottomSerif;
options = 1;
origin = (1,4);
type = Corner;
}
);
layerId = m01;
shapes = (
{
closed = 1;
nodes = (
(558,91,l),
(411,494,l),
(331,494,l),
(516,2,ls),
(519,-7,o),
(524,-10,o),
(531,-10,cs),
(538,-10,o),
(543,-6,o),
(546,2,cs),
(732,494,l),
(683,494,l),
(536,91,l)
);
},
{
closed = 1;
nodes = (
(385,412,l),
(268,91,l),
(290,91,l),
(143,494,l),
(63,494,l),
(248,2,ls),
(251,-7,o),
(256,-10,o),
(263,-10,cs),
(270,-10,o),
(275,-6,o),
(278,2,cs),
(411,354,l)
);
}
);
width = 793;
},
{
backgroundImage = {
imagePath = "specimen-images/12pt-lowerW.jpg";
locked = 1;
pos = (-12,-331);
scale = (10.7,10.7);
};
hints = (
{
name = _corner.leftBottomSerif;
origin = (0,1);
type = Corner;
},
{
name = _corner.rightBottomSerif;
options = 1;
origin = (0,2);
type = Corner;
},
{
name = _corner.leftBottomSerif;
origin = (0,11);
type = Corner;
},
{
name = _corner.rightBottomSerif;
options = 1;
origin = (0,12);
type = Corner;
},
{
name = _corner.leftBottomSerif;
origin = (1,3);
type = Corner;
},
{
name = _corner.rightBottomSerif;
options = 1;
origin = (1,4);
type = Corner;
}
);
layerId = m003;
shapes = (
{
closed = 1;
nodes = (
(581,81,l),
(426,494,l),
(334,494,l),
(521,8,ls),
(523,2,o),
(527,0,o),
(532,0,cs),
(566,0,ls),
(571,0,o),
(575,2,o),
(577,8,cs),
(765,494,l),
(704,494,l),
(549,81,l)
);
},
{
closed = 1;
nodes = (
(398,417,l),
(271,81,l),
(303,81,l),
(148,494,l),
(56,494,l),
(243,8,ls),
(245,2,o),
(249,0,o),
(254,0,cs),
(288,0,ls),
(293,0,o),
(297,2,o),
(299,8,cs),
(430,344,l)
);
}
);
width = 821;
}
);
unicode = 119;
},
{
glyphname = x;
lastChange = "2025-05-17 15:56:00 +0000";
layers = (
{
backgroundImage = {
imagePath = "specimen-images/12pt-lowerX.jpg";
locked = 1;
pos = (5,-331);
scale = (10.7,10.7);
};
hints = (
{
name = _corner.leftBottomSerif;
origin = (0,0);
type = Corner;
},
{
name = _corner.rightBottomSerif;
options = 1;
origin = (0,1);
type = Corner;
},
{
name = _corner.leftBottomSerif;
origin = (0,2);
type = Corner;
},
{
name = _corner.rightBottomSerif;
options = 1;
origin = (0,3);
type = Corner;
},
{
name = _corner.rightBottomSerif;
origin = (1,1);
scale = (-1,1);
type = Corner;
},
{
name = _corner.rightBottomSerif;
options = 1;
origin = (1,2);
type = Corner;
},
{
name = _corner.rightBottomSerif;
origin = (2,1);
scale = (-1,1);
type = Corner;
},
{
name = _corner.rightBottomSerif;
options = 1;
origin = (2,2);
type = Corner;
}
);
layerId = m01;
shapes = (
{
closed = 1;
nodes = (
(152,494,l),
(63,494,l),
(401,0,l),
(489,0,l)
);
},
{
closed = 1;
nodes = (
(299,243,l),
(482,494,l),
(420,494,l),
(259,262,l)
);
},
{
closed = 1;
nodes = (
(241,251,l),
(50,0,l),
(117,0,l),
(282,227,l)
);
}
);
width = 542;
},
{
backgroundImage = {
imagePath = "specimen-images/12pt-lowerX.jpg";
locked = 1;
pos = (-8,-331);
scale = (10.7,10.7);
};
hints = (
{
name = _corner.leftBottomSerif;
origin = (0,0);
type = Corner;
},
{
name = _corner.rightBottomSerif;
options = 1;
origin = (0,1);
type = Corner;
},
{
name = _corner.leftBottomSerif;
origin = (0,2);
type = Corner;
},
{
name = _corner.rightBottomSerif;
options = 1;
origin = (0,3);
type = Corner;
},
{
name = _corner.rightBottomSerif;
origin = (1,1);
scale = (-1,1);
type = Corner;
},
{
name = _corner.rightBottomSerif;
options = 1;
origin = (1,2);
type = Corner;
},
{
name = _corner.rightBottomSerif;
origin = (2,1);
scale = (-1,1);
type = Corner;
},
{
name = _corner.rightBottomSerif;
options = 1;
origin = (2,2);
type = Corner;
}
);
layerId = m003;
shapes = (
{
closed = 1;
nodes = (
(155,494,l),
(50,494,l),
(402,0,l),
(506,0,l)
);
},
{
closed = 1;
nodes = (
(302,233,l),
(500,494,l),
(421,494,l),
(250,257,l)
);
},
{
closed = 1;
nodes = (
(242,261,l),
(36,0,l),
(120,0,l),
(295,231,l)
);
}
);
width = 546;
}
);
metricRight = "=|";
unicode = 120;
},
{
glyphname = y;
lastChange = "2025-05-17 15:56:00 +0000";
layers = (
{
anchors = (
{
name = bottom;
pos = (291,0);
},
{
name = top;
pos = (302,494);
}
);
backgroundImage = {
imagePath = "specimen-images/12pt-lowerY.jpg";
locked = 1;
pos = (10,-342);
scale = (10.7,10.7);
};
hints = (
{
name = _corner.leftBottomSerif;
origin = (0,3);
type = Corner;
},
{
name = _corner.rightBottomSerif;
options = 1;
origin = (0,4);
type = Corner;
},
{
name = _corner.leftBottomSerif;
origin = (1,2);
type = Corner;
},
{
name = _corner.rightBottomSerif;
options = 1;
origin = (1,3);
type = Corner;
}
);
layerId = m01;
shapes = (
{
closed = 1;
nodes = (
(126,-269,o),
(202,-270,o),
(253,-146,cs),
(518,494,l),
(462,494,l),
(213,-124,ls),
(188,-186,o),
(158,-228,o),
(126,-228,cs),
(83,-228,o),
(92,-201,o),
(75,-180,cs),
(63,-165,o),
(40,-160,o),
(20,-176,cs),
(-1,-193,o),
(-2,-222,o),
(13,-239,cs),
(28,-256,o),
(59,-269,o),
(92,-269,cs)
);
},
{
closed = 1;
nodes = (
(293,50,l),
(300,86,l),
(149,494,l),
(66,494,l),
(290,-48,l)
);
}
);
width = 581;
},
{
backgroundImage = {
imagePath = "specimen-images/12pt-lowerY.jpg";
locked = 1;
pos = (2,-342);
scale = (10.7,10.7);
};
hints = (
{
name = _corner.leftBottomSerif;
origin = (0,3);
type = Corner;
},
{
name = _corner.rightBottomSerif;
options = 1;
origin = (0,4);
type = Corner;
},
{
name = _corner.leftBottomSerif;
origin = (1,1);
type = Corner;
},
{
name = _corner.rightBottomSerif;
options = 1;
origin = (1,2);
type = Corner;
}
);
layerId = m003;
shapes = (
{
closed = 1;
nodes = (
(130,-270,o),
(208,-271,o),
(265,-141,cs),
(543,494,l),
(469,494,l),
(217,-111,ls),
(192,-171,o),
(166,-209,o),
(135,-209,cs),
(115,-209,o),
(110,-203,o),
(108,-195,cs),
(106,-186,o),
(104,-170,o),
(97,-163,cs),
(80,-145,o),
(54,-139,o),
(29,-159,cs),
(7,-177,o),
(4,-217,o),
(21,-237,cs),
(42,-261,o),
(71,-270,o),
(101,-270,cs)
);
},
{
closed = 1;
nodes = (
(324,77,l),
(156,494,l),
(65,494,l),
(278,-38,l)
);
}
);
width = 603;
}
);
unicode = 121;
},
{
glyphname = z;
lastChange = "2025-05-17 15:56:00 +0000";
layers = (
{
anchors = (
{
name = bottom;
pos = (238,0);
},
{
name = center;
pos = (238,247);
},
{
name = top;
pos = (238,494);
}
);
background = {
shapes = (
{
closed = 1;
nodes = (
(186,459,ls),
(171,459,o),
(138,437,o),
(90,376,cs),
(82,365,o),
(56,376,o),
(63,389,cs),
(85,430,o),
(93,441,o),
(107,485,cs),
(109,490,o),
(110,494,o),
(115,494,cs),
(433,494,l),
(128,32,l),
(323,36,ls),
(338,36,o),
(371,57,o),
(419,118,cs),
(427,129,o),
(453,118,o),
(446,105,cs),
(424,64,o),
(416,53,o),
(402,9,cs),
(400,4,o),
(399,0,o),
(394,0,cs),
(32,0,l),
(32,24,l),
(328,470,l),
(332,459,l)
);
}
);
};
backgroundImage = {
imagePath = "specimen-images/12pt-lowerZ.jpg";
locked = 1;
pos = (40,-332);
scale = (10.7,10.7);
};
layerId = m01;
shapes = (
{
closed = 0;
nodes = (
(330,470,l),
(330,470,l)
);
},
{
closed = 1;
nodes = (
(396,0,ls),
(401,0,o),
(402,4,o),
(404,9,cs),
(418,53,o),
(426,64,o),
(448,105,cs),
(455,118,o),
(429,129,o),
(421,118,cs),
(373,57,o),
(340,36,o),
(325,36,cs),
(130,32,l),
(423,476,ls),
(430,487,o),
(425,494,o),
(413,494,cs),
(87,494,ls),
(82,494,o),
(81,490,o),
(79,485,cs),
(65,441,o),
(57,430,o),
(35,389,cs),
(28,376,o),
(54,365,o),
(62,376,cs),
(110,437,o),
(143,459,o),
(158,459,cs),
(334,459,l),
(330,470,l),
(30,18,ls),
(23,7,o),
(28,0,o),
(40,0,cs)
);
}
);
width = 476;
},
{
background = {
shapes = (
{
closed = 1;
nodes = (
(165,459,ls),
(150,459,o),
(117,437,o),
(69,376,cs),
(61,365,o),
(35,376,o),
(42,389,cs),
(64,430,o),
(72,441,o),
(86,485,cs),
(88,490,o),
(89,494,o),
(94,494,cs),
(412,494,l),
(107,32,l),
(302,36,ls),
(317,36,o),
(350,57,o),
(398,118,cs),
(406,129,o),
(432,118,o),
(425,105,cs),
(403,64,o),
(395,53,o),
(381,9,cs),
(379,4,o),
(378,0,o),
(373,0,cs),
(11,0,l),
(11,24,l),
(307,470,l),
(311,459,l)
);
}
);
};
backgroundImage = {
imagePath = "specimen-images/12pt-lowerZ.jpg";
locked = 1;
pos = (19,-332);
scale = (10.7,10.7);
};
layerId = m003;
shapes = (
{
closed = 0;
nodes = (
(327,460,l)
);
},
{
closed = 1;
nodes = (
(401,0,l),
(445,102,ls),
(447,108,o),
(447,111,o),
(442,115,cs),
(422,129,ls),
(417,133,o),
(412,131,o),
(408,126,cs),
(366,74,o),
(335,40,o),
(322,40,cs),
(142,40,l),
(420,455,ls),
(423,459,o),
(423,463,o),
(421,468,cs),
(413,486,ls),
(411,492,o),
(407,494,o),
(402,494,cs),
(97,494,l),
(52,392,ls),
(50,386,o),
(51,383,o),
(56,379,cs),
(75,366,ls),
(80,362,o),
(85,363,o),
(89,368,cs),
(129,422,o),
(161,454,o),
(175,454,cs),
(341,454,l),
(328,473,l),
(27,39,ls),
(24,34,o),
(24,31,o),
(26,26,cs),
(34,8,ls),
(36,2,o),
(40,0,o),
(45,0,cs)
);
}
);
width = 471;
}
);
unicode = 122;
},
{
glyphname = zero;
lastChange = "2025-05-17 15:56:00 +0000";
layers = (
{
backgroundImage = {
imagePath = "specimen-images/12pt-num0.jpg";
locked = 1;
pos = (10,-216);
scale = (10.7,10.7);
};
layerId = m01;
shapes = (
{
closed = 1;
nodes = (
(97,-14,o),
(33,192,o),
(33,377,cs),
(33,562,o),
(97,768,o),
(279,768,cs),
(461,768,o),
(525,562,o),
(525,377,cs),
(525,192,o),
(461,-14,o),
(279,-14,cs)
);
},
{
closed = 1;
nodes = (
(118,214,o),
(137,26,o),
(279,26,cs),
(421,26,o),
(440,214,o),
(440,377,cs),
(440,540,o),
(421,728,o),
(279,728,cs),
(137,728,o),
(118,540,o),
(118,377,cs)
);
}
);
width = 558;
},
{
backgroundImage = {
imagePath = "specimen-images/12pt-num0.jpg";
locked = 1;
pos = (10,-216);
scale = (10.7,10.7);
};
layerId = m003;
shapes = (
{
closed = 1;
nodes = (
(97,-14,o),
(33,192,o),
(33,377,cs),
(33,562,o),
(97,768,o),
(279,768,cs),
(461,768,o),
(525,562,o),
(525,377,cs),
(525,192,o),
(461,-14,o),
(279,-14,cs)
);
},
{
closed = 1;
nodes = (
(118,214,o),
(137,26,o),
(279,26,cs),
(421,26,o),
(440,214,o),
(440,377,cs),
(440,540,o),
(421,728,o),
(279,728,cs),
(137,728,o),
(118,540,o),
(118,377,cs)
);
}
);
width = 558;
}
);
unicode = 48;
},
{
glyphname = one;
lastChange = "2025-05-17 15:56:00 +0000";
layers = (
{
backgroundImage = {
imagePath = "specimen-images/12pt-num1.jpg";
locked = 1;
pos = (-22,-333);
scale = (10.7,10.7);
};
guides = (
{
angle = 270;
pos = (33,692);
}
);
hints = (
{
name = _corner.leftBottomSerif;
type = Corner;
},
{
name = _corner.rightBottomSerif;
type = Corner;
},
{
name = _corner.rightBottomSerif;
options = 1;
scale = (1,-1);
type = Corner;
},
{
name = _corner.leftBottomSerif;
options = 1;
scale = (-1,1);
type = Corner;
}
);
layerId = m01;
shapes = (
{
closed = 1;
nodes = (
(152,94,l),
(150,38,o),
(87,32,o),
(48,32,c),
(38,32,o),
(33,24,o),
(33,16,cs),
(33,8,o),
(38,0,o),
(48,0,c),
(87,0,o),
(152,5,o),
(186,5,c),
(186,5,ls),
(221,5,o),
(293,0,o),
(332,0,c),
(343,0,o),
(348,8,o),
(348,16,cs),
(348,24,o),
(343,32,o),
(332,32,c),
(293,32,o),
(230,42,o),
(230,98,c),
(230,652,l),
(230,686,o),
(230,715,o),
(230,736,c),
(230,749,o),
(224,752,o),
(214,752,c),
(194,752,o),
(183,739,o),
(166,726,c),
(143,708,o),
(61,708,o),
(50,708,c),
(39,708,o),
(33,699,o),
(33,692,c),
(33,686,o),
(39,677,o),
(50,677,c),
(133,677,o),
(155,686,o),
(155,597,c)
);
}
);
width = 380;
},
{
backgroundImage = {
imagePath = "specimen-images/12pt-num1.jpg";
locked = 1;
pos = (-22,-333);
scale = (10.7,10.7);
};
guides = (
{
angle = 270;
pos = (33,692);
}
);
hints = (
{
name = _corner.leftBottomSerif;
type = Corner;
},
{
name = _corner.rightBottomSerif;
type = Corner;
},
{
name = _corner.rightBottomSerif;
options = 1;
scale = (1,-1);
type = Corner;
},
{
name = _corner.leftBottomSerif;
options = 1;
scale = (-1,1);
type = Corner;
}
);
layerId = m003;
shapes = (
{
closed = 1;
nodes = (
(152,84,l),
(150,38,o),
(87,32,o),
(48,32,c),
(38,32,o),
(33,24,o),
(33,16,cs),
(33,8,o),
(38,0,o),
(48,0,c),
(87,0,o),
(152,5,o),
(186,5,c),
(186,5,ls),
(221,5,o),
(293,0,o),
(332,0,c),
(343,0,o),
(348,8,o),
(348,16,cs),
(348,24,o),
(343,32,o),
(332,32,c),
(293,32,o),
(230,42,o),
(230,88,c),
(230,652,l),
(230,686,o),
(230,715,o),
(230,736,c),
(230,749,o),
(224,752,o),
(214,752,c),
(194,752,o),
(183,739,o),
(166,726,c),
(143,708,o),
(61,708,o),
(50,708,c),
(39,708,o),
(33,699,o),
(33,692,c),
(33,686,o),
(39,677,o),
(50,677,c),
(133,677,o),
(155,686,o),
(155,597,c)
);
}
);
width = 380;
}
);
unicode = 49;
},
{
glyphname = two;
lastChange = "2025-05-17 15:56:00 +0000";
layers = (
{
background = {
shapes = (
{
closed = 1;
nodes = (
(415,0,l),
(424,30,l),
(441,61,o),
(447,65,o),
(466,100,cs),
(475,118,o),
(447,133,o),
(437,114,cs),
(419,80,o),
(412,80,o),
(366,80,cs),
(137,80,l),
(272,223,o),
(462,359,o),
(462,534,cs),
(462,656,o),
(392,768,o),
(245,768,cs),
(244,768,ls),
(96,768,o),
(9,602,o),
(61,483,cs),
(95,406,o),
(170,466,o),
(137,517,cs),
(119,544,o),
(83,546,o),
(83,571,cs),
(82,627,o),
(136,723,o),
(226,723,cs),
(313,723,o),
(377,667,o),
(377,545,cs),
(377,339,o),
(98,129,o),
(23,18,cs),
(16,8,o),
(22,0,o),
(34,0,cs)
);
}
);
};
backgroundImage = {
imagePath = "specimen-images/10pt-num2.jpg";
locked = 1;
pos = (-106,-287);
scale = (12.84,12.84);
};
layerId = m01;
shapes = (
{
closed = 1;
nodes = (
(424,0,ls),
(432,0,o),
(438,4,o),
(441,12,cs),
(458,52,o),
(474,74,o),
(500,117,cs),
(511,135,o),
(482,149,o),
(471,131,cs),
(441,80,o),
(434,80,o),
(388,80,cs),
(139,80,l),
(274,223,o),
(464,359,o),
(464,534,cs),
(464,656,o),
(394,768,o),
(247,768,cs),
(246,768,ls),
(98,768,o),
(11,602,o),
(63,483,cs),
(97,406,o),
(172,466,o),
(139,517,cs),
(121,544,o),
(85,546,o),
(85,571,cs),
(84,627,o),
(138,723,o),
(234,723,cs),
(315,723,o),
(379,667,o),
(379,545,cs),
(379,339,o),
(100,129,o),
(25,18,cs),
(18,8,o),
(24,0,o),
(36,0,cs)
);
}
);
width = 520;
},
{
backgroundImage = {
imagePath = "specimen-images/10pt-num2.jpg";
locked = 1;
pos = (-106,-287);
scale = (12.84,12.84);
};
layerId = m003;
shapes = (
{
closed = 1;
nodes = (
(415,0,l),
(424,30,l),
(441,61,o),
(447,65,o),
(466,100,cs),
(475,118,o),
(447,133,o),
(437,114,cs),
(419,80,o),
(412,80,o),
(366,80,cs),
(133,80,l),
(273,214,o),
(462,403,o),
(462,544,cs),
(462,546,ls),
(462,690,o),
(363,768,o),
(235,768,cs),
(234,768,ls),
(36,768,o),
(9,602,o),
(61,483,cs),
(95,406,o),
(170,466,o),
(137,517,cs),
(122,540,o),
(100,526,o),
(89,545,cs),
(64,590,o),
(76,723,o),
(216,723,cs),
(296,723,o),
(377,681,o),
(377,545,cs),
(377,320,o),
(98,129,o),
(23,18,cs),
(16,8,o),
(22,0,o),
(34,0,cs)
);
}
);
width = 483;
}
);
unicode = 50;
},
{
glyphname = three;
lastChange = "2025-05-17 15:56:00 +0000";
layers = (
{
backgroundImage = {
imagePath = "specimen-images/10pt-num3.jpg";
locked = 1;
pos = (-32,-285);
scale = (12.84,12.84);
};
layerId = m01;
shapes = (
{
closed = 1;
nodes = (
(343,-16,o),
(478,52,o),
(478,207,cs),
(478,308,o),
(400,378,o),
(312,405,c),
(385,435,o),
(438,510,o),
(438,587,cs),
(438,693,o),
(341,767,o),
(220,767,cs),
(144,767,o),
(44,711,o),
(44,615,cs),
(44,592,o),
(60,572,o),
(84,572,cs),
(107,572,o),
(122,592,o),
(122,615,cs),
(122,640,o),
(114,651,o),
(114,663,cs),
(114,699,o),
(160,725,o),
(220,725,cs),
(265,725,o),
(353,712,o),
(353,587,cs),
(353,462,o),
(288,422,o),
(217,422,cs),
(188,422,ls),
(176,422,o),
(170,412,o),
(170,403,cs),
(170,394,o),
(177,383,o),
(188,383,cs),
(217,383,ls),
(288,383,o),
(393,349,o),
(393,207,cs),
(393,65,o),
(310,26,o),
(231,26,cs),
(145,26,o),
(68,82,o),
(68,132,cs),
(68,170,o),
(93,152,o),
(111,180,cs),
(139,224,o),
(73,264,o),
(41,214,cs),
(28,193,o),
(22,171,o),
(22,149,cs),
(22,61,o),
(116,-16,o),
(231,-16,cs)
);
}
);
width = 503;
},
{
backgroundImage = {
imagePath = "specimen-images/10pt-num3.jpg";
locked = 1;
pos = (-32,-285);
scale = (12.84,12.84);
};
layerId = m003;
shapes = (
{
closed = 1;
nodes = (
(341,-16,o),
(478,70,o),
(478,207,cs),
(478,308,o),
(400,378,o),
(312,405,c),
(385,435,o),
(438,510,o),
(438,587,cs),
(438,693,o),
(337,767,o),
(216,767,cs),
(140,767,o),
(44,711,o),
(44,615,cs),
(44,592,o),
(60,572,o),
(84,572,cs),
(107,572,o),
(122,592,o),
(122,615,cs),
(122,640,o),
(114,651,o),
(114,663,cs),
(114,699,o),
(156,725,o),
(216,725,cs),
(261,725,o),
(353,712,o),
(353,587,cs),
(353,462,o),
(288,422,o),
(217,422,cs),
(188,422,ls),
(176,422,o),
(170,412,o),
(170,403,cs),
(170,394,o),
(177,383,o),
(188,383,cs),
(217,383,ls),
(288,383,o),
(393,349,o),
(393,207,cs),
(393,65,o),
(310,26,o),
(231,26,cs),
(129,26,o),
(41,104,o),
(75,159,cs),
(81,169,o),
(97,159,o),
(107,174,cs),
(121,196,o),
(114,223,o),
(101,231,cs),
(96,234,o),
(89,236,o),
(82,236,cs),
(67,236,o),
(50,229,o),
(41,214,cs),
(28,193,o),
(22,171,o),
(22,149,cs),
(22,61,o),
(116,-16,o),
(231,-16,cs)
);
}
);
width = 503;
}
);
unicode = 51;
},
{
glyphname = four;
lastChange = "2025-05-17 15:56:00 +0000";
layers = (
{
backgroundImage = {
imagePath = "specimen-images/10pt-num4.jpg";
locked = 1;
pos = (2,-283);
scale = (12.84,12.84);
};
layerId = m01;
shapes = (
{
closed = 1;
nodes = (
(38,281,ls),
(35,275,o),
(33,269,o),
(33,262,cs),
(33,247,ls),
(33,238,o),
(39,232,o),
(48,232,cs),
(294,232,l),
(295,80,l),
(293,34,o),
(276,28,o),
(217,27,c),
(197,26,o),
(198,-6,o),
(218,-5,c),
(277,-4,o),
(300,2,o),
(334,2,cs),
(370,2,o),
(392,-4,o),
(431,-4,c),
(452,-4,o),
(452,28,o),
(431,28,c),
(392,28,o),
(374,34,o),
(374,80,c),
(374,232,l),
(463,232,ls),
(472,232,o),
(478,238,o),
(478,247,cs),
(478,257,ls),
(478,266,o),
(472,272,o),
(463,272,cs),
(374,272,l),
(374,737,ls),
(374,746,o),
(368,752,o),
(359,752,cs),
(306,752,ls),
(298,752,o),
(292,749,o),
(288,741,cs)
);
},
{
closed = 1;
nodes = (
(313,709,l),
(294,705,l),
(294,272,l),
(84,272,l)
);
}
);
width = 503;
},
{
backgroundImage = {
imagePath = "specimen-images/10pt-num4.jpg";
locked = 1;
pos = (2,-283);
scale = (12.84,12.84);
};
hints = (
{
name = _corner.leftBottomSerif;
origin = (0,9);
type = Corner;
},
{
name = _corner.rightBottomSerif;
origin = (0,10);
type = Corner;
}
);
layerId = m003;
shapes = (
{
closed = 1;
nodes = (
(38,281,ls),
(35,275,o),
(33,269,o),
(33,262,cs),
(33,247,ls),
(33,238,o),
(39,232,o),
(48,232,cs),
(294,232,l),
(294,0,l),
(374,0,l),
(374,232,l),
(463,232,ls),
(472,232,o),
(478,238,o),
(478,247,cs),
(478,257,ls),
(478,266,o),
(472,272,o),
(463,272,cs),
(374,272,l),
(374,737,ls),
(374,746,o),
(368,752,o),
(359,752,cs),
(306,752,ls),
(298,752,o),
(292,749,o),
(288,741,cs)
);
},
{
closed = 1;
nodes = (
(294,687,l),
(294,272,l),
(68,272,l)
);
}
);
width = 503;
}
);
unicode = 52;
},
{
glyphname = five;
lastChange = "2025-05-17 15:56:00 +0000";
layers = (
{
backgroundImage = {
imagePath = "specimen-images/12pt-num5.jpg";
locked = 1;
pos = (7,-330);
scale = (10.7,10.7);
};
layerId = m01;
shapes = (
{
closed = 1;
nodes = (
(398,672,ls),
(406,672,o),
(412,676,o),
(416,684,cs),
(432,724,o),
(448,746,o),
(474,789,cs),
(485,807,o),
(456,821,o),
(445,803,cs),
(415,752,o),
(408,752,o),
(362,752,cs),
(120,752,ls),
(111,752,o),
(105,746,o),
(105,737,cs),
(95,422,ls),
(95,413,o),
(100,407,o),
(108,405,cs),
(128,400,ls),
(136,398,o),
(142,400,o),
(148,407,cs),
(178,445,o),
(214,459,o),
(263,459,cs),
(305,459,o),
(402,418,o),
(402,240,cs),
(402,95,o),
(334,24,o),
(236,24,cs),
(148,24,o),
(62,83,o),
(93,146,cs),
(98,156,o),
(110,162,o),
(121,184,cs),
(132,205,o),
(128,230,o),
(106,240,cs),
(85,250,o),
(62,239,o),
(51,219,cs),
(-7,101,o),
(89,-16,o),
(236,-16,cs),
(398,-16,o),
(487,107,o),
(487,239,cs),
(487,396,o),
(405,504,o),
(262,504,cs),
(206,504,o),
(163,490,o),
(132,462,c),
(138,672,l)
);
}
);
width = 522;
},
{
backgroundImage = {
imagePath = "specimen-images/12pt-num5.jpg";
locked = 1;
pos = (7,-330);
scale = (10.7,10.7);
};
layerId = m003;
shapes = (
{
closed = 1;
nodes = (
(398,-16,o),
(487,107,o),
(487,239,cs),
(487,387,o),
(391,504,o),
(262,504,cs),
(206,504,o),
(163,490,o),
(132,462,c),
(138,672,l),
(411,672,l),
(420,702,l),
(437,733,o),
(443,737,o),
(462,772,cs),
(471,790,o),
(443,805,o),
(433,786,cs),
(415,752,o),
(408,752,o),
(362,752,cs),
(120,752,ls),
(111,752,o),
(105,746,o),
(105,737,cs),
(95,422,ls),
(95,413,o),
(100,407,o),
(108,405,cs),
(128,400,ls),
(136,398,o),
(142,400,o),
(148,407,cs),
(178,445,o),
(214,459,o),
(263,459,cs),
(305,459,o),
(402,418,o),
(402,240,cs),
(402,87,o),
(345,26,o),
(253,26,cs),
(150,26,o),
(63,104,o),
(97,159,cs),
(103,169,o),
(119,159,o),
(129,174,cs),
(143,196,o),
(144,218,o),
(124,230,cs),
(117,234,o),
(109,236,o),
(101,236,cs),
(86,236,o),
(72,229,o),
(63,214,cs),
(50,193,o),
(44,171,o),
(44,149,cs),
(44,61,o),
(137,-16,o),
(253,-16,cs)
);
}
);
width = 522;
}
);
unicode = 53;
},
{
glyphname = six;
lastChange = "2025-05-17 15:56:00 +0000";
layers = (
{
background = {
shapes = (
{
closed = 1;
nodes = (
(420,64,o),
(336,29,o),
(271,29,cs),
(206,29,o),
(123,69,o),
(123,241,cs),
(123,294,o),
(117,340,o),
(134,367,cs),
(168,419,o),
(226,440,o),
(271,440,cs),
(332,440,o),
(420,418,o),
(420,236,cs)
);
},
{
closed = 1;
nodes = (
(135,564,o),
(151,726,o),
(299,726,cs),
(358,726,o),
(393,701,o),
(393,672,cs),
(393,655,o),
(381,641,o),
(381,615,cs),
(381,592,o),
(396,572,o),
(419,572,cs),
(447,572,o),
(459,593,o),
(459,624,cs),
(459,703,o),
(383,768,o),
(284,768,cs),
(150,768,o),
(88,641,o),
(56,491,cs),
(46,445,o),
(39,378,o),
(39,269,cs),
(39,165,o),
(90,-16,o),
(271,-16,cs),
(389,-16,o),
(505,89,o),
(505,236,cs),
(505,393,o),
(376,485,o),
(271,485,cs),
(206,485,o),
(157,448,o),
(127,403,c)
);
}
);
};
backgroundImage = {
imagePath = "specimen-images/10pt-num6.jpg";
locked = 1;
pos = (-3,-277);
scale = (12.84,12.84);
};
layerId = m01;
shapes = (
{
closed = 1;
nodes = (
(121,329,l),
(126,403,o),
(206,440,o),
(271,440,cs),
(332,440,o),
(420,418,o),
(420,236,cs),
(420,64,o),
(336,29,o),
(271,29,cs),
(206,29,o),
(123,71,o),
(123,241,cs),
(123,261,o),
(89,731,o),
(286,731,cs),
(331,731,o),
(374,710,o),
(381,672,cs),
(384,655,o),
(369,641,o),
(369,615,cs),
(369,592,o),
(384,572,o),
(407,572,cs),
(435,572,o),
(447,593,o),
(447,624,cs),
(447,703,o),
(385,768,o),
(286,768,cs),
(152,768,o),
(88,641,o),
(56,491,cs),
(46,445,o),
(39,378,o),
(39,269,cs),
(39,165,o),
(90,-16,o),
(271,-16,cs),
(389,-16,o),
(505,89,o),
(505,236,cs),
(505,393,o),
(376,485,o),
(271,485,cs),
(165,485,o),
(94,390,o),
(94,350,c)
);
}
);
width = 535;
},
{
backgroundImage = {
imagePath = "specimen-images/10pt-num6.jpg";
locked = 1;
pos = (-3,-277);
scale = (12.84,12.84);
};
layerId = m003;
shapes = (
{
closed = 1;
nodes = (
(420,64,o),
(336,29,o),
(271,29,cs),
(206,29,o),
(123,69,o),
(123,241,cs),
(123,294,o),
(123,337,o),
(134,367,c),
(174,415,o),
(226,440,o),
(271,440,cs),
(332,440,o),
(420,418,o),
(420,236,cs)
);
},
{
closed = 1;
nodes = (
(156,730,o),
(309,730,cs),
(354,730,o),
(387,722,o),
(395,695,cs),
(400,683,o),
(384,677,o),
(385,660,cs),
(386,638,o),
(407,624,o),
(432,632,cs),
(451,638,o),
(460,656,o),
(460,679,cs),
(460,724,o),
(383,768,o),
(314,768,cs),
(160,768,o),
(88,641,o),
(56,491,cs),
(20,320,o),
(25,-16,o),
(271,-16,cs),
(389,-16,o),
(505,89,o),
(505,236,cs),
(505,393,o),
(376,485,o),
(271,485,cs),
(218,485,o),
(157,454,o),
(127,411,c),
(131,536,o)
);
}
);
width = 535;
}
);
unicode = 54;
},
{
glyphname = seven;
lastChange = "2025-05-17 15:56:00 +0000";
layers = (
{
backgroundImage = {
imagePath = "specimen-images/10pt-num7.jpg";
locked = 1;
pos = (-15,-279);
scale = (12.84,12.84);
};
layerId = m01;
shapes = (
{
closed = 1;
nodes = (
(96,752,ls),
(88,752,o),
(82,748,o),
(78,740,cs),
(62,700,o),
(46,678,o),
(20,635,cs),
(9,617,o),
(38,603,o),
(49,621,cs),
(79,672,o),
(86,672,o),
(132,672,cs),
(389,672,l),
(261,460,o),
(175,237,o),
(115,17,cs),
(112,6,o),
(117,0,o),
(127,0,cs),
(182,0,ls),
(191,0,o),
(196,5,o),
(197,14,cs),
(220,285,o),
(332,522,o),
(475,734,cs),
(482,744,o),
(477,752,o),
(465,752,cs)
);
}
);
width = 487;
},
{
backgroundImage = {
imagePath = "specimen-images/10pt-num7.jpg";
locked = 1;
pos = (-15,-279);
scale = (12.84,12.84);
};
layerId = m003;
shapes = (
{
closed = 1;
nodes = (
(132,672,l),
(86,672,o),
(79,672,o),
(61,638,c),
(51,619,o),
(23,634,o),
(32,652,c),
(51,687,o),
(57,691,o),
(74,722,c),
(79,739,ls),
(81,747,o),
(88,752,o),
(96,752,cs),
(465,752,ls),
(477,752,o),
(482,744,o),
(475,734,cs),
(332,522,o),
(228,285,o),
(205,14,cs),
(204,5,o),
(199,0,o),
(190,0,cs),
(107,0,ls),
(97,0,o),
(92,6,o),
(95,17,cs),
(155,237,o),
(242,460,o),
(389,672,c)
);
}
);
width = 487;
}
);
unicode = 55;
},
{
glyphname = eight;
lastChange = "2025-05-17 15:56:00 +0000";
layers = (
{
backgroundImage = {
imagePath = "specimen-images/10pt-num8.jpg";
locked = 1;
pos = (-18,-276);
scale = (12.84,12.84);
};
layerId = m01;
shapes = (
{
closed = 1;
nodes = (
(217,421,l),
(97,341,o),
(40,302,o),
(40,193,cs),
(40,93,o),
(132,-16,o),
(269,-16,cs),
(428,-16,o),
(495,102,o),
(495,195,cs),
(495,418,o),
(140,476,o),
(140,620,cs),
(140,677,o),
(193,725,o),
(269,725,cs),
(338,725,o),
(405,677,o),
(405,602,cs),
(405,527,o),
(372,487,o),
(277,439,c),
(323,417,l),
(425,467,o),
(467,526,o),
(467,600,cs),
(467,673,o),
(383,767,o),
(270,767,cs),
(152,767,o),
(70,678,o),
(70,598,cs),
(70,426,o),
(428,339,o),
(428,177,cs),
(428,126,o),
(393,31,o),
(269,31,cs),
(163,31,o),
(105,114,o),
(105,188,cs),
(105,305,o),
(177,341,o),
(258,390,c)
);
}
);
width = 533;
},
{
backgroundImage = {
imagePath = "specimen-images/10pt-num8.jpg";
locked = 1;
pos = (-18,-276);
scale = (12.84,12.84);
};
layerId = m003;
shapes = (
{
closed = 1;
nodes = (
(409,-16,o),
(493,103,o),
(493,193,cs),
(493,297,o),
(438,351,o),
(338,425,c),
(429,473,o),
(465,530,o),
(465,600,cs),
(465,673,o),
(377,767,o),
(274,767,cs),
(161,767,o),
(70,673,o),
(70,600,cs),
(70,504,o),
(151,456,o),
(202,411,c),
(92,337,o),
(40,297,o),
(40,193,cs),
(40,101,o),
(129,-16,o),
(269,-16,cs)
);
},
{
closed = 1;
nodes = (
(160,24,o),
(109,119,o),
(109,193,c),
(109,304,o),
(174,345,o),
(241,383,c),
(309,338,o),
(428,285,o),
(428,190,cs),
(428,126,o),
(378,24,o),
(269,24,cs)
);
},
{
closed = 1;
nodes = (
(236,484,o),
(140,545,o),
(140,612,cs),
(140,687,o),
(205,727,o),
(274,727,cs),
(343,727,o),
(397,687,o),
(397,612,cs),
(397,541,o),
(376,492,o),
(293,447,c)
);
}
);
width = 533;
}
);
unicode = 56;
},
{
glyphname = nine;
lastChange = "2025-05-17 15:56:00 +0000";
layers = (
{
backgroundImage = {
imagePath = "specimen-images/10pt-num9.jpg";
pos = (-509,-283);
scale = (12.9,12.9);
};
layerId = m01;
shapes = (
{
closed = 1;
nodes = (
(414,423,l),
(409,349,o),
(329,312,o),
(264,312,cs),
(203,312,o),
(115,334,o),
(115,516,cs),
(115,688,o),
(199,723,o),
(264,723,cs),
(329,723,o),
(412,681,o),
(412,511,cs),
(412,491,o),
(446,21,o),
(249,21,cs),
(204,21,o),
(161,42,o),
(154,80,cs),
(151,97,o),
(166,111,o),
(166,137,cs),
(166,160,o),
(151,180,o),
(128,180,cs),
(100,180,o),
(88,159,o),
(88,128,cs),
(88,49,o),
(150,-16,o),
(249,-16,cs),
(383,-16,o),
(447,111,o),
(479,261,cs),
(489,307,o),
(496,374,o),
(496,483,cs),
(496,587,o),
(445,768,o),
(264,768,cs),
(146,768,o),
(30,663,o),
(30,516,cs),
(30,359,o),
(159,267,o),
(264,267,cs),
(370,267,o),
(441,362,o),
(441,402,c)
);
}
);
width = 535;
},
{
backgroundImage = {
imagePath = "specimen-images/10pt-num9.jpg";
pos = (-25,-283);
scale = (12.9,12.9);
};
layerId = m003;
shapes = (
{
closed = 1;
nodes = (
(107,681,o),
(191,716,o),
(256,716,cs),
(321,716,o),
(404,676,o),
(404,504,cs),
(404,451,o),
(404,408,o),
(393,378,c),
(353,330,o),
(301,305,o),
(256,305,cs),
(195,305,o),
(107,327,o),
(107,509,cs)
);
},
{
closed = 1;
nodes = (
(371,15,o),
(218,15,cs),
(173,15,o),
(140,23,o),
(132,50,cs),
(127,62,o),
(143,68,o),
(142,85,cs),
(141,107,o),
(120,121,o),
(95,113,cs),
(76,107,o),
(67,89,o),
(67,66,cs),
(67,21,o),
(144,-23,o),
(213,-23,cs),
(367,-23,o),
(439,104,o),
(471,254,cs),
(507,425,o),
(502,761,o),
(256,761,cs),
(138,761,o),
(22,656,o),
(22,509,cs),
(22,352,o),
(151,260,o),
(256,260,cs),
(309,260,o),
(370,291,o),
(400,334,c),
(396,209,o)
);
}
);
width = 507;
}
);
metricLeft = "=|six";
metricRight = "=|six";
unicode = 57;
},
{
glyphname = period;
lastChange = "2025-05-17 15:56:00 +0000";
layers = (
{
layerId = m01;
shapes = (
{
closed = 1;
nodes = (
(117,-15,o),
(142,10,o),
(142,45,cs),
(142,81,o),
(117,104,o),
(83,104,cs),
(48,104,o),
(23,81,o),
(23,45,cs),
(23,10,o),
(48,-15,o),
(83,-15,cs)
);
}
);
width = 165;
},
{
layerId = m003;
shapes = (
{
closed = 1;
nodes = (
(121,-16,o),
(151,9,o),
(151,50,cs),
(151,91,o),
(121,115,o),
(86,115,cs),
(50,115,o),
(20,91,o),
(20,50,cs),
(20,9,o),
(50,-16,o),
(86,-16,cs)
);
}
);
width = 171;
}
);
unicode = 46;
},
{
glyphname = comma;
lastChange = "2025-05-17 15:56:00 +0000";
layers = (
{
backgroundImage = {
imagePath = "specimen-images/comma.tif";
locked = 1;
pos = (-160,-447);
scale = (9.0082,9.0082);
};
layerId = m01;
shapes = (
{
closed = 1;
nodes = (
(149,-135,o),
(205,-32,o),
(174,56,cs),
(148,128,o),
(43,123,o),
(43,48,cs),
(43,13,o),
(68,-12,o),
(103,-12,c),
(104,-14,ls),
(125,-75,o),
(90,-132,o),
(41,-155,cs),
(22,-164,o),
(31,-186,o),
(51,-178,cs)
);
}
);
width = 201;
},
{
backgroundImage = {
imagePath = "specimen-images/comma.tif";
locked = 1;
pos = (-160,-447);
scale = (9.0082,9.0082);
};
layerId = m003;
shapes = (
{
closed = 1;
nodes = (
(60,-175,o),
(100,-168,o),
(132,-121,cs),
(152,-91,o),
(175,-35,o),
(163,56,cs),
(159,88,o),
(134,107,o),
(103,107,cs),
(68,107,o),
(43,84,o),
(43,48,cs),
(43,13,o),
(68,-12,o),
(103,-12,c),
(104,-14,ls),
(125,-75,o),
(86,-133,o),
(37,-148,cs),
(17,-154,o),
(25,-186,o),
(51,-178,cs)
);
}
);
width = 201;
}
);
unicode = 44;
},
{
glyphname = colon;
lastChange = "2025-05-17 15:56:00 +0000";
layers = (
{
layerId = m01;
shapes = (
{
closed = 1;
nodes = (
(117,-12,o),
(142,13,o),
(142,48,cs),
(142,84,o),
(117,107,o),
(83,107,cs),
(48,107,o),
(23,84,o),
(23,48,cs),
(23,13,o),
(48,-12,o),
(83,-12,cs)
);
},
{
closed = 1;
nodes = (
(117,348,o),
(142,373,o),
(142,408,cs),
(142,444,o),
(117,467,o),
(83,467,cs),
(48,467,o),
(23,444,o),
(23,408,cs),
(23,373,o),
(48,348,o),
(83,348,cs)
);
}
);
width = 165;
},
{
layerId = m003;
shapes = (
{
closed = 1;
nodes = (
(117,-12,o),
(142,13,o),
(142,48,cs),
(142,84,o),
(117,107,o),
(83,107,cs),
(48,107,o),
(23,84,o),
(23,48,cs),
(23,13,o),
(48,-12,o),
(83,-12,cs)
);
},
{
closed = 1;
nodes = (
(117,348,o),
(142,373,o),
(142,408,cs),
(142,444,o),
(117,467,o),
(83,467,cs),
(48,467,o),
(23,444,o),
(23,408,cs),
(23,373,o),
(48,348,o),
(83,348,cs)
);
}
);
width = 165;
}
);
unicode = 58;
},
{
glyphname = semicolon;
lastChange = "2025-05-17 15:56:00 +0000";
layers = (
{
layerId = m01;
shapes = (
{
closed = 1;
nodes = (
(129,-135,o),
(185,-32,o),
(154,56,cs),
(128,128,o),
(23,123,o),
(23,48,cs),
(23,13,o),
(48,-12,o),
(83,-12,c),
(84,-14,ls),
(105,-75,o),
(70,-132,o),
(21,-155,cs),
(2,-164,o),
(11,-186,o),
(31,-178,cs)
);
},
{
closed = 1;
nodes = (
(117,348,o),
(142,373,o),
(142,408,cs),
(142,444,o),
(117,467,o),
(83,467,cs),
(48,467,o),
(23,444,o),
(23,408,cs),
(23,373,o),
(48,348,o),
(83,348,cs)
);
},
{
closed = 1;
nodes = (
(117,348,o),
(142,373,o),
(142,408,cs),
(142,444,o),
(117,467,o),
(83,467,cs),
(48,467,o),
(23,444,o),
(23,408,cs),
(23,373,o),
(48,348,o),
(83,348,cs)
);
}
);
width = 196;
},
{
layerId = m003;
shapes = (
{
closed = 1;
nodes = (
(40,-175,o),
(80,-168,o),
(112,-121,cs),
(132,-91,o),
(155,-35,o),
(143,56,cs),
(139,88,o),
(114,107,o),
(83,107,cs),
(48,107,o),
(23,84,o),
(23,48,cs),
(23,13,o),
(48,-12,o),
(83,-12,c),
(84,-14,ls),
(105,-75,o),
(66,-133,o),
(17,-148,cs),
(-3,-154,o),
(5,-186,o),
(31,-178,cs)
);
},
{
closed = 1;
nodes = (
(117,348,o),
(142,373,o),
(142,408,cs),
(142,444,o),
(117,467,o),
(83,467,cs),
(48,467,o),
(23,444,o),
(23,408,cs),
(23,373,o),
(48,348,o),
(83,348,cs)
);
},
{
closed = 1;
nodes = (
(117,348,o),
(142,373,o),
(142,408,cs),
(142,444,o),
(117,467,o),
(83,467,cs),
(48,467,o),
(23,444,o),
(23,408,cs),
(23,373,o),
(48,348,o),
(83,348,cs)
);
}
);
width = 196;
}
);
unicode = 59;
},
{
glyphname = exclam;
lastChange = "2025-05-17 15:56:00 +0000";
layers = (
{
layerId = m01;
shapes = (
{
closed = 1;
nodes = (
(134,-16,o),
(159,9,o),
(159,44,cs),
(159,80,o),
(134,103,o),
(100,103,cs),
(65,103,o),
(40,80,o),
(40,44,cs),
(40,9,o),
(65,-16,o),
(100,-16,cs)
);
},
{
closed = 1;
nodes = (
(52,588,o),
(68,422,o),
(81,207,cs),
(82,191,o),
(87,181,o),
(100,181,cs),
(113,181,o),
(118,191,o),
(119,207,cs),
(132,422,o),
(148,588,o),
(148,711,cs),
(148,754,o),
(119,768,o),
(101,768,cs),
(81,768,o),
(52,754,o),
(52,711,cs)
);
}
);
width = 199;
},
{
layerId = m003;
width = 600;
}
);
unicode = 33;
},
{
glyphname = exclamdown;
lastChange = "2025-05-17 15:56:00 +0000";
layers = (
{
layerId = m01;
shapes = (
{
closed = 1;
nodes = (
(65,505,o),
(40,480,o),
(40,445,cs),
(40,409,o),
(65,386,o),
(100,386,cs),
(134,386,o),
(159,409,o),
(159,445,cs),
(159,480,o),
(134,505,o),
(100,505,cs)
);
},
{
closed = 1;
nodes = (
(62,-265,o),
(81,-279,o),
(101,-279,cs),
(119,-279,o),
(138,-265,o),
(138,-232,cs),
(138,-59,o),
(128,107,o),
(122,282,cs),
(121,301,o),
(113,311,o),
(100,311,cs),
(100,311,ls),
(87,311,o),
(79,301,o),
(78,282,cs),
(72,107,o),
(62,-59,o),
(62,-232,cs)
);
}
);
width = 189;
},
{
layerId = m003;
width = 600;
}
);
unicode = 161;
},
{
glyphname = question;
lastChange = "2025-05-17 15:56:00 +0000";
layers = (
{
background = {
shapes = (
{
closed = 1;
nodes = (
(241,-12,o),
(266,13,o),
(266,48,cs),
(266,84,o),
(241,107,o),
(207,107,cs),
(172,107,o),
(147,84,o),
(147,48,cs),
(147,13,o),
(172,-12,o),
(207,-12,cs)
);
},
{
closed = 1;
nodes = (
(195,403,o),
(176,389,o),
(176,356,cs),
(176,313,o),
(186,246,o),
(192,211,cs),
(195,192,o),
(201,182,o),
(214,182,cs),
(227,182,o),
(233,192,o),
(236,211,cs),
(240,236,o),
(250,313,o),
(250,356,c),
(408,356,o),
(430,448,o),
(430,540,cs),
(430,563,o),
(427,587,o),
(421,612,cs),
(400,702,o),
(326,743,o),
(249,743,cs),
(200,743,o),
(148,726,o),
(108,696,cs),
(89,682,o),
(82,666,o),
(82,653,cs),
(82,632,o),
(102,615,o),
(124,615,cs),
(136,615,o),
(149,619,o),
(159,630,cs),
(167,638,o),
(168,646,o),
(168,654,cs),
(168,658,o),
(168,661,o),
(168,665,cs),
(168,671,o),
(169,677,o),
(175,683,cs),
(190,697,o),
(220,708,o),
(253,708,cs),
(324,708,o),
(384,666,o),
(384,575,cs),
(384,527,o),
(351,404,o),
(243,404,cs),
(215,403,ls)
);
}
);
};
backgroundImage = {
imagePath = "/Users/aliqadeer/Desktop/screenshots/Screenshot 2025-03-25 at 8.54.08 PM.png";
locked = 1;
pos = (-39,-348);
scale = (3.7783,3.7783);
};
layerId = m01;
shapes = (
{
closed = 1;
nodes = (
(242,-19,o),
(263,2,o),
(263,31,cs),
(263,61,o),
(242,80,o),
(214,80,cs),
(185,80,o),
(164,61,o),
(164,31,cs),
(164,2,o),
(185,-19,o),
(214,-19,cs)
);
},
{
closed = 1;
nodes = (
(233,333,o),
(453,386,o),
(453,574,cs),
(453,634,o),
(393,768,o),
(236,768,cs),
(235,768,ls),
(87,768,o),
(-15,595,o),
(52,483,cs),
(86,426,o),
(161,466,o),
(128,517,cs),
(110,544,o),
(74,546,o),
(74,571,cs),
(73,627,o),
(125,727,o),
(235,727,cs),
(360,727,o),
(383,623,o),
(383,555,cs),
(383,376,o),
(191,369,o),
(191,224,cs),
(191,198,o),
(199,182,o),
(213,182,cs),
(224,182,o),
(233,198,o),
(233,224,c)
);
}
);
width = 474;
},
{
layerId = m003;
width = 600;
}
);
unicode = 63;
},
{
glyphname = questiondown;
lastChange = "2025-05-17 15:56:00 +0000";
layers = (
{
layerId = m01;
shapes = (
{
closed = 1;
nodes = (
(242,768,o),
(221,747,o),
(221,718,cs),
(221,688,o),
(242,669,o),
(270,669,cs),
(299,669,o),
(320,688,o),
(320,718,cs),
(320,747,o),
(299,768,o),
(270,768,cs)
);
},
{
closed = 1;
nodes = (
(251,416,o),
(31,363,o),
(31,175,cs),
(31,115,o),
(91,-19,o),
(248,-19,cs),
(249,-19,ls),
(397,-19,o),
(499,154,o),
(432,266,cs),
(398,323,o),
(323,283,o),
(356,232,cs),
(374,205,o),
(410,203,o),
(410,178,cs),
(411,122,o),
(359,22,o),
(249,22,cs),
(124,22,o),
(101,126,o),
(101,194,cs),
(101,373,o),
(293,380,o),
(293,525,cs),
(293,551,o),
(285,567,o),
(271,567,cs),
(260,567,o),
(251,551,o),
(251,525,c)
);
}
);
width = 484;
},
{
layerId = m003;
width = 600;
}
);
unicode = 191;
},
{
glyphname = periodcentered;
lastChange = "2025-05-17 15:56:00 +0000";
layers = (
{
layerId = m01;
shapes = (
{
closed = 1;
nodes = (
(125,308,o),
(150,333,o),
(150,368,cs),
(150,404,o),
(125,427,o),
(91,427,cs),
(56,427,o),
(31,404,o),
(31,368,cs),
(31,333,o),
(56,308,o),
(91,308,cs)
);
}
);
width = 181;
},
{
layerId = m003;
width = 600;
}
);
unicode = 183;
},
{
glyphname = bullet;
lastChange = "2025-05-17 15:56:00 +0000";
layers = (
{
layerId = m01;
shapes = (
{
closed = 1;
nodes = (
(219,249,o),
(269,299,o),
(269,369,cs),
(269,441,o),
(219,487,o),
(151,487,cs),
(81,487,o),
(31,441,o),
(31,369,cs),
(31,299,o),
(81,249,o),
(151,249,cs)
);
}
);
width = 300;
},
{
layerId = m003;
width = 600;
}
);
unicode = 8226;
},
{
glyphname = asterisk;
lastChange = "2025-05-17 15:56:00 +0000";
layers = (
{
layerId = m01;
shapes = (
{
closed = 1;
nodes = (
(181,340,o),
(210,326,o),
(230,326,cs),
(248,326,o),
(277,340,o),
(277,383,cs),
(277,426,o),
(245,451,o),
(245,547,cs),
(245,643,o),
(277,668,o),
(277,711,cs),
(277,754,o),
(248,768,o),
(230,768,cs),
(210,768,o),
(181,754,o),
(181,711,cs),
(181,668,o),
(213,643,o),
(213,547,cs),
(213,451,o),
(181,426,o),
(181,383,cs)
);
},
{
closed = 1;
nodes = (
(26,485,o),
(28,453,o),
(38,436,cs),
(47,420,o),
(74,402,o),
(111,423,cs),
(148,445,o),
(154,485,o),
(237,533,cs),
(320,581,o),
(358,566,o),
(395,587,cs),
(432,609,o),
(430,641,o),
(421,657,cs),
(411,674,o),
(384,692,o),
(347,671,cs),
(310,649,o),
(304,609,o),
(221,561,cs),
(138,513,o),
(100,528,o),
(63,507,cs)
);
},
{
closed = 1;
nodes = (
(74,692,o),
(47,674,o),
(37,657,cs),
(28,641,o),
(26,609,o),
(63,587,cs),
(100,566,o),
(138,581,o),
(221,533,cs),
(304,485,o),
(310,445,o),
(347,423,cs),
(384,402,o),
(411,420,o),
(420,436,cs),
(430,453,o),
(432,485,o),
(395,507,cs),
(358,528,o),
(320,513,o),
(237,561,cs),
(154,609,o),
(148,649,o),
(111,671,cs)
);
}
);
width = 458;
},
{
layerId = m003;
width = 600;
}
);
unicode = 42;
},
{
glyphname = numbersign;
lastChange = "2025-05-17 15:56:00 +0000";
layers = (
{
layerId = m01;
shapes = (
{
closed = 1;
nodes = (
(286,752,l),
(73,-41,l),
(106,-41,l),
(319,752,l)
);
},
{
closed = 1;
nodes = (
(454,752,l),
(241,-41,l),
(274,-41,l),
(487,752,l)
);
},
{
closed = 1;
nodes = (
(541,494,l),
(20,494,l),
(20,461,l),
(541,461,l)
);
},
{
closed = 1;
nodes = (
(541,251,l),
(20,251,l),
(20,218,l),
(541,218,l)
);
}
);
width = 561;
},
{
layerId = m003;
width = 600;
}
);
unicode = 35;
},
{
glyphname = slash;
lastChange = "2025-05-17 15:56:00 +0000";
layers = (
{
layerId = m01;
shapes = (
{
closed = 1;
nodes = (
(288,752,l),
(30,0,l),
(63,0,l),
(321,752,l)
);
}
);
width = 351;
},
{
layerId = m003;
width = 600;
}
);
unicode = 47;
},
{
glyphname = backslash;
lastChange = "2025-05-17 15:56:00 +0000";
layers = (
{
layerId = m01;
shapes = (
{
closed = 1;
nodes = (
(30,752,l),
(288,0,l),
(321,0,l),
(63,752,l)
);
}
);
width = 351;
},
{
layerId = m003;
width = 600;
}
);
unicode = 92;
},
{
glyphname = hyphen;
lastChange = "2025-05-17 15:56:00 +0000";
layers = (
{
layerId = m01;
shapes = (
{
closed = 1;
nodes = (
(23,242,ls),
(23,236,o),
(27,232,o),
(33,232,cs),
(293,232,ls),
(299,232,o),
(303,236,o),
(303,242,cs),
(303,279,ls),
(303,285,o),
(299,289,o),
(293,289,cs),
(33,289,ls),
(27,289,o),
(23,285,o),
(23,279,cs)
);
}
);
width = 326;
},
{
layerId = m003;
shapes = (
{
closed = 1;
nodes = (
(23,242,ls),
(23,236,o),
(27,232,o),
(33,232,cs),
(293,232,ls),
(299,232,o),
(303,236,o),
(303,242,cs),
(303,279,ls),
(303,285,o),
(299,289,o),
(293,289,cs),
(33,289,ls),
(27,289,o),
(23,285,o),
(23,279,cs)
);
}
);
width = 326;
}
);
unicode = 45;
},
{
glyphname = endash;
lastChange = "2025-05-17 15:56:00 +0000";
layers = (
{
layerId = m01;
shapes = (
{
closed = 1;
nodes = (
(23,256,ls),
(23,248,o),
(28,243,o),
(36,243,cs),
(410,243,ls),
(418,243,o),
(423,248,o),
(423,256,cs),
(423,267,ls),
(423,275,o),
(418,280,o),
(410,280,cs),
(36,280,ls),
(28,280,o),
(23,275,o),
(23,267,cs)
);
}
);
width = 600;
},
{
layerId = m003;
width = 600;
}
);
unicode = 8211;
},
{
glyphname = emdash;
lastChange = "2025-05-17 15:56:00 +0000";
layers = (
{
layerId = m01;
shapes = (
{
closed = 1;
nodes = (
(23,256,ls),
(23,248,o),
(28,243,o),
(36,243,cs),
(773,243,ls),
(781,243,o),
(786,248,o),
(786,256,cs),
(786,267,ls),
(786,275,o),
(781,280,o),
(773,280,cs),
(36,280,ls),
(28,280,o),
(23,275,o),
(23,267,cs)
);
}
);
width = 809;
},
{
layerId = m003;
width = 600;
}
);
unicode = 8212;
},
{
glyphname = underscore;
lastChange = "2025-05-17 15:56:00 +0000";
layers = (
{
layerId = m01;
shapes = (
{
closed = 1;
nodes = (
(30,-241,ls),
(30,-249,o),
(35,-254,o),
(43,-254,cs),
(417,-254,ls),
(425,-254,o),
(430,-249,o),
(430,-241,cs),
(430,-223,ls),
(430,-215,o),
(425,-210,o),
(417,-210,cs),
(43,-210,ls),
(35,-210,o),
(30,-215,o),
(30,-223,cs)
);
}
);
width = 460;
},
{
layerId = m003;
width = 600;
}
);
unicode = 95;
},
{
glyphname = parenleft;
lastChange = "2025-05-17 15:56:00 +0000";
layers = (
{
layerId = m01;
shapes = (
{
closed = 1;
nodes = (
(99,419,o),
(139,621,o),
(208,729,cs),
(217,743,o),
(219,752,o),
(209,759,cs),
(202,765,o),
(192,764,o),
(180,751,cs),
(81,643,o),
(10,458,o),
(10,280,cs),
(10,102,o),
(81,-83,o),
(180,-191,cs),
(192,-204,o),
(202,-205,o),
(209,-199,cs),
(219,-192,o),
(217,-183,o),
(208,-169,cs),
(139,-61,o),
(99,141,o),
(99,280,cs)
);
}
);
width = 226;
},
{
layerId = m003;
width = 600;
}
);
unicode = 40;
},
{
glyphname = parenright;
lastChange = "2025-05-17 15:56:00 +0000";
layers = (
{
layerId = m01;
shapes = (
{
closed = 1;
nodes = (
(127,141,o),
(87,-61,o),
(18,-169,cs),
(9,-183,o),
(7,-192,o),
(17,-199,cs),
(24,-205,o),
(34,-204,o),
(46,-191,cs),
(145,-83,o),
(216,102,o),
(216,280,cs),
(216,458,o),
(145,643,o),
(46,751,cs),
(34,764,o),
(24,765,o),
(17,759,cs),
(7,752,o),
(9,743,o),
(18,729,cs),
(87,621,o),
(127,419,o),
(127,280,cs)
);
}
);
width = 226;
},
{
layerId = m003;
width = 600;
}
);
unicode = 41;
},
{
glyphname = bracketleft;
lastChange = "2025-05-21 01:56:13 +0000";
layers = (
{
layerId = m01;
shapes = (
{
closed = 1;
nodes = (
(30,-126,ls),
(30,-132,o),
(34,-136,o),
(40,-136,cs),
(222,-136,ls),
(228,-136,o),
(232,-132,o),
(232,-126,cs),
(232,-106,ls),
(232,-100,o),
(228,-96,o),
(222,-96,cs),
(119,-96,l),
(119,712,l),
(222,712,ls),
(228,712,o),
(232,716,o),
(232,722,cs),
(232,742,ls),
(232,748,o),
(228,752,o),
(222,752,cs),
(40,752,ls),
(34,752,o),
(30,748,o),
(30,742,cs)
);
}
);
width = 262;
},
{
layerId = m003;
width = 600;
}
);
unicode = 91;
},
{
glyphname = bracketright;
lastChange = "2025-05-21 01:56:28 +0000";
layers = (
{
layerId = m01;
shapes = (
{
closed = 1;
nodes = (
(232,748,o),
(228,752,o),
(222,752,cs),
(40,752,ls),
(34,752,o),
(30,748,o),
(30,742,cs),
(30,722,ls),
(30,716,o),
(34,712,o),
(40,712,cs),
(143,712,l),
(143,-96,l),
(40,-96,ls),
(34,-96,o),
(30,-100,o),
(30,-106,cs),
(30,-126,ls),
(30,-132,o),
(34,-136,o),
(40,-136,cs),
(222,-136,ls),
(228,-136,o),
(232,-132,o),
(232,-126,cs),
(232,742,ls)
);
}
);
width = 262;
},
{
layerId = m003;
width = 600;
}
);
unicode = 93;
},
{
glyphname = quotedblbase;
lastChange = "2025-05-17 15:56:00 +0000";
layers = (
{
layerId = m01;
shapes = (
{
closed = 1;
nodes = (
(149,-135,o),
(205,-32,o),
(174,56,cs),
(148,128,o),
(43,123,o),
(43,48,cs),
(43,13,o),
(68,-12,o),
(103,-12,c),
(104,-14,ls),
(125,-75,o),
(90,-132,o),
(41,-155,cs),
(22,-164,o),
(31,-186,o),
(51,-178,cs)
);
},
{
closed = 1;
nodes = (
(331,-135,o),
(387,-32,o),
(356,56,cs),
(330,128,o),
(225,123,o),
(225,48,cs),
(225,13,o),
(250,-12,o),
(285,-12,c),
(286,-14,ls),
(307,-75,o),
(272,-132,o),
(223,-155,cs),
(204,-164,o),
(213,-186,o),
(233,-178,cs)
);
}
);
width = 396;
},
{
layerId = m003;
shapes = (
{
ref = comma;
},
{
ref = comma;
}
);
width = 201;
}
);
unicode = 8222;
},
{
glyphname = quotedblleft;
lastChange = "2025-05-17 15:56:00 +0000";
layers = (
{
layerId = m01;
shapes = (
{
closed = 1;
nodes = (
(220,691,o),
(172,604,o),
(198,529,cs),
(220,468,o),
(310,472,o),
(310,536,cs),
(310,565,o),
(288,587,o),
(259,587,c),
(238,646,o),
(272,690,o),
(311,708,cs),
(328,716,o),
(320,734,o),
(303,728,cs)
);
},
{
closed = 1;
nodes = (
(60,691,o),
(12,604,o),
(38,529,cs),
(60,468,o),
(150,472,o),
(150,536,cs),
(150,565,o),
(128,587,o),
(99,587,c),
(78,646,o),
(112,690,o),
(151,708,cs),
(168,716,o),
(160,734,o),
(143,728,cs)
);
}
);
width = 351;
},
{
layerId = m003;
width = 600;
}
);
unicode = 8220;
},
{
glyphname = quotedblright;
lastChange = "2025-05-17 15:56:00 +0000";
layers = (
{
layerId = m01;
shapes = (
{
closed = 1;
nodes = (
(131,511,o),
(179,598,o),
(153,673,cs),
(131,734,o),
(41,730,o),
(41,666,cs),
(41,637,o),
(63,615,o),
(92,615,c),
(113,556,o),
(79,512,o),
(40,494,cs),
(23,486,o),
(31,468,o),
(48,474,cs)
);
},
{
closed = 1;
nodes = (
(291,511,o),
(339,598,o),
(313,673,cs),
(291,734,o),
(201,730,o),
(201,666,cs),
(201,637,o),
(223,615,o),
(252,615,c),
(273,556,o),
(239,512,o),
(200,494,cs),
(183,486,o),
(191,468,o),
(208,474,cs)
);
}
);
width = 351;
},
{
layerId = m003;
width = 600;
}
);
unicode = 8221;
},
{
glyphname = quoteleft;
lastChange = "2025-05-17 15:56:00 +0000";
layers = (
{
layerId = m01;
shapes = (
{
closed = 1;
nodes = (
(60,691,o),
(12,604,o),
(38,529,cs),
(60,468,o),
(150,472,o),
(150,536,cs),
(150,565,o),
(128,587,o),
(99,587,c),
(78,646,o),
(112,690,o),
(151,708,cs),
(168,716,o),
(160,734,o),
(143,728,cs)
);
}
);
width = 191;
},
{
layerId = m003;
width = 600;
}
);
unicode = 8216;
},
{
glyphname = quoteright;
lastChange = "2025-05-17 15:56:00 +0000";
layers = (
{
layerId = m01;
shapes = (
{
closed = 1;
nodes = (
(131,511,o),
(179,598,o),
(153,673,cs),
(131,734,o),
(41,730,o),
(41,666,cs),
(41,637,o),
(63,615,o),
(92,615,c),
(113,556,o),
(79,512,o),
(40,494,cs),
(23,486,o),
(31,468,o),
(48,474,cs)
);
}
);
width = 191;
},
{
layerId = m003;
width = 600;
}
);
unicode = 8217;
},
{
glyphname = guillemetleft;
lastChange = "2025-05-17 15:56:00 +0000";
layers = (
{
layerId = m01;
shapes = (
{
closed = 1;
nodes = (
(330,47,o),
(355,59,o),
(344,80,cs),
(257,245,l),
(347,414,ls),
(359,435,o),
(334,447,o),
(322,430,cs),
(193,258,ls),
(187,249,o),
(187,240,o),
(193,231,cs),
(318,64,ls)
);
},
{
closed = 1;
nodes = (
(173,47,o),
(198,59,o),
(187,80,cs),
(99,245,l),
(190,414,ls),
(201,435,o),
(177,447,o),
(165,430,cs),
(36,258,ls),
(29,249,o),
(29,240,o),
(36,231,cs),
(161,64,ls)
);
}
);
width = 381;
},
{
layerId = m003;
width = 600;
}
);
unicode = 171;
},
{
glyphname = guillemetright;
lastChange = "2025-05-17 15:56:00 +0000";
layers = (
{
layerId = m01;
shapes = (
{
closed = 1;
nodes = (
(188,231,ls),
(194,240,o),
(194,249,o),
(188,258,cs),
(59,430,ls),
(47,447,o),
(22,435,o),
(34,414,cs),
(124,245,l),
(37,80,ls),
(26,59,o),
(51,47,o),
(63,64,cs)
);
},
{
closed = 1;
nodes = (
(345,231,ls),
(352,240,o),
(352,249,o),
(345,258,cs),
(216,430,ls),
(204,447,o),
(180,435,o),
(191,414,cs),
(282,245,l),
(194,80,ls),
(183,59,o),
(208,47,o),
(220,64,cs)
);
}
);
width = 381;
},
{
layerId = m003;
width = 600;
}
);
unicode = 187;
},
{
glyphname = guilsinglleft;
lastChange = "2025-05-17 15:56:00 +0000";
layers = (
{
layerId = m01;
shapes = (
{
closed = 1;
nodes = (
(173,47,o),
(198,59,o),
(187,80,cs),
(99,245,l),
(190,414,ls),
(201,435,o),
(177,447,o),
(165,430,cs),
(36,258,ls),
(29,249,o),
(29,240,o),
(36,231,cs),
(161,64,ls)
);
}
);
width = 224;
},
{
layerId = m003;
width = 600;
}
);
unicode = 8249;
},
{
glyphname = guilsinglright;
lastChange = "2025-05-17 15:56:00 +0000";
layers = (
{
layerId = m01;
shapes = (
{
closed = 1;
nodes = (
(188,231,ls),
(194,240,o),
(194,249,o),
(188,258,cs),
(59,430,ls),
(47,447,o),
(22,435,o),
(34,414,cs),
(124,245,l),
(37,80,ls),
(26,59,o),
(51,47,o),
(63,64,cs)
);
}
);
width = 224;
},
{
layerId = m003;
width = 600;
}
);
unicode = 8250;
},
{
glyphname = quotedbl;
lastChange = "2025-05-17 15:56:00 +0000";
layers = (
{
layerId = m01;
shapes = (
{
closed = 1;
nodes = (
(68,558,ls),
(79,558,o),
(85,562,o),
(86,574,cs),
(103,733,ls),
(104,745,o),
(98,752,o),
(86,752,cs),
(48,752,ls),
(36,752,o),
(30,745,o),
(31,733,cs),
(48,574,ls),
(49,562,o),
(55,558,o),
(66,558,cs)
);
},
{
closed = 1;
nodes = (
(190,558,ls),
(201,558,o),
(207,562,o),
(208,574,cs),
(225,733,ls),
(226,745,o),
(220,752,o),
(208,752,cs),
(170,752,ls),
(158,752,o),
(152,745,o),
(153,733,cs),
(170,574,ls),
(171,562,o),
(177,558,o),
(188,558,cs)
);
}
);
width = 256;
},
{
layerId = m003;
width = 600;
}
);
unicode = 34;
},
{
glyphname = quotesingle;
lastChange = "2025-05-17 15:56:00 +0000";
layers = (
{
layerId = m01;
shapes = (
{
closed = 1;
nodes = (
(62,558,ls),
(73,558,o),
(79,562,o),
(80,574,cs),
(97,733,ls),
(98,745,o),
(92,752,o),
(80,752,cs),
(42,752,ls),
(30,752,o),
(24,745,o),
(25,733,cs),
(42,574,ls),
(43,562,o),
(49,558,o),
(60,558,cs)
);
}
);
width = 122;
},
{
layerId = m003;
width = 600;
}
);
unicode = 39;
},
{
glyphname = at;
lastChange = "2025-05-17 15:56:00 +0000";
layers = (
{
backgroundImage = {
imagePath = "../italic-a.tif";
locked = 1;
pos = (-257,-645);
scale = (27.8215,27.8215);
};
layerId = m01;
shapes = (
{
closed = 1;
nodes = (
(521,-15,o),
(611,120,o),
(621,202,c),
(597,216,l),
(580,149,o),
(495,35,o),
(409,35,cs),
(359,35,o),
(291,70,o),
(351,249,cs),
(402,401,o),
(464,466,o),
(548,466,cs),
(613,466,o),
(655,435,o),
(629,332,c),
(667,339,l),
(683,400,o),
(662,505,o),
(545,505,cs),
(393,505,o),
(315,398,o),
(264,249,cs),
(199,58,o),
(307,-15,o),
(386,-15,cs)
);
},
{
closed = 1;
nodes = (
(723,404,ls),
(732,438,o),
(743,467,o),
(748,485,cs),
(753,501,o),
(748,504,o),
(736,504,cs),
(721,504,o),
(702,491,o),
(681,478,cs),
(654,460,o),
(626,457,o),
(615,457,c),
(646,399,l),
(579,147,ls),
(573,125,o),
(479,-15,o),
(639,-15,cs),
(861,-15,o),
(959,178,o),
(951,398,cs),
(945,576,o),
(815,769,o),
(543,769,cs),
(260,769,o),
(31,540,o),
(31,258,cs),
(31,-25,o),
(260,-254,o),
(543,-254,cs),
(731,-254,o),
(896,-152,o),
(985,0,c),
(944,0,l),
(859,-132,o),
(711,-218,o),
(543,-218,cs),
(280,-218,o),
(70,-5,o),
(70,258,cs),
(70,520,o),
(280,733,o),
(543,733,cs),
(795,733,o),
(906,557,o),
(912,398,cs),
(918,229,o),
(846,25,o),
(676,25,cs),
(623,25,o),
(636,81,o),
(652,140,cs)
);
}
);
width = 1016;
},
{
layerId = m003;
width = 600;
}
);
unicode = 64;
},
{
glyphname = ampersand;
lastChange = "2025-05-17 15:56:00 +0000";
layers = (
{
backgroundImage = {
imagePath = "../amp.tif";
locked = 1;
pos = (-155,-334);
scale = (14.5069,14.5069);
};
layerId = m01;
shapes = (
{
closed = 1;
nodes = (
(188,482,ls),
(165,517,o),
(136,569,o),
(136,621,cs),
(136,683,o),
(201,768,o),
(281,768,cs),
(367,768,o),
(429,692,o),
(429,630,cs),
(429,541,o),
(340,476,o),
(267,422,cs),
(188,363,o),
(102,307,o),
(102,188,cs),
(102,128,o),
(148,45,o),
(238,45,cs),
(350,45,o),
(394,120,o),
(428,164,cs),
(456,200,o),
(513,302,o),
(530,344,cs),
(542,373,o),
(548,402,o),
(509,402,cs),
(488,402,o),
(488,434,o),
(509,434,cs),
(548,434,o),
(555,431,o),
(573,431,cs),
(590,431,o),
(595,434,o),
(634,435,cs),
(654,436,o),
(655,404,o),
(635,403,cs),
(596,402,o),
(580,367,o),
(567,336,cs),
(552,301,o),
(486,185,o),
(451,135,cs),
(410,77,o),
(349,-16,o),
(227,-16,cs),
(81,-16,o),
(21,74,o),
(21,164,cs),
(21,289,o),
(159,394,o),
(253,462,cs),
(318,509,o),
(373,540,o),
(373,645,cs),
(373,701,o),
(341,742,o),
(280,742,cs),
(226,742,o),
(192,701,o),
(192,645,cs),
(192,605,o),
(210,564,o),
(248,508,cs),
(544,74,l),
(569,36,o),
(581,32,o),
(620,32,c),
(631,32,o),
(636,23,o),
(636,15,cs),
(636,6,o),
(631,-2,o),
(620,-1,cs),
(604,0,o),
(598,1,o),
(571,1,cs),
(544,1,o),
(539,0,o),
(522,-1,cs),
(513,-2,o),
(507,4,o),
(503,10,cs)
);
}
);
width = 661;
},
{
layerId = m003;
width = 600;
}
);
unicode = 38;
},
{
glyphname = copyright;
lastChange = "2025-05-17 15:56:00 +0000";
layers = (
{
anchors = (
{
name = _bottom;
pos = (444,93);
},
{
name = bottom;
pos = (427,93);
},
{
name = top;
pos = (427,661);
}
);
layerId = m01;
shapes = (
{
closed = 1;
nodes = (
(640,-16,o),
(816,160,o),
(816,377,cs),
(816,593,o),
(640,769,o),
(424,769,cs),
(207,769,o),
(31,593,o),
(31,377,cs),
(31,160,o),
(207,-16,o),
(424,-16,cs)
);
},
{
closed = 1;
nodes = (
(226,17,o),
(64,179,o),
(64,377,cs),
(64,574,o),
(226,736,o),
(424,736,cs),
(621,736,o),
(783,574,o),
(783,377,cs),
(783,179,o),
(621,17,o),
(424,17,cs)
);
},
{
closed = 1;
nodes = (
(490,103,o),
(552,118,o),
(609,163,c),
(609,260,ls),
(609,275,o),
(599,282,o),
(588,282,cs),
(580,282,o),
(569,275,o),
(566,265,cs),
(546,191,o),
(496,150,o),
(417,150,cs),
(314,150,o),
(240,245,o),
(240,377,cs),
(240,509,o),
(314,604,o),
(417,604,cs),
(497,604,o),
(547,564,o),
(566,489,cs),
(569,479,o),
(580,472,o),
(588,472,cs),
(599,472,o),
(609,479,o),
(609,494,cs),
(609,588,l),
(555,630,o),
(495,651,o),
(430,651,cs),
(280,651,o),
(160,535,o),
(160,377,cs),
(160,219,o),
(276,103,o),
(434,103,cs)
);
}
);
width = 847;
},
{
layerId = m003;
width = 600;
}
);
unicode = 169;
},
{
glyphname = registered;
lastChange = "2025-05-17 15:56:00 +0000";
layers = (
{
layerId = m01;
shapes = (
{
closed = 1;
nodes = (
(640,-16,o),
(816,160,o),
(816,377,cs),
(816,593,o),
(640,769,o),
(424,769,cs),
(207,769,o),
(31,593,o),
(31,377,cs),
(31,160,o),
(207,-16,o),
(424,-16,cs)
);
},
{
closed = 1;
nodes = (
(226,17,o),
(64,179,o),
(64,377,cs),
(64,574,o),
(226,736,o),
(424,736,cs),
(621,736,o),
(783,574,o),
(783,377,cs),
(783,179,o),
(621,17,o),
(424,17,cs)
);
},
{
closed = 1;
nodes = (
(328,615,l),
(429,615,ls),
(504,615,o),
(555,586,o),
(555,507,cs),
(555,416,o),
(497,387,o),
(443,387,cs),
(319,387,l),
(319,359,l),
(443,359,ls),
(524,359,o),
(615,408,o),
(615,507,cs),
(615,606,o),
(524,643,o),
(429,643,cs),
(296,642,l),
(273,642,o),
(260,645,o),
(233,645,c),
(220,645,o),
(220,624,o),
(233,624,c),
(260,624,o),
(272,606,o),
(273,582,c),
(273,197,l),
(272,173,o),
(260,155,o),
(233,155,c),
(220,155,o),
(220,134,o),
(233,134,c),
(260,134,o),
(273,137,o),
(296,137,c),
(303,138,l),
(328,137,o),
(340,135,o),
(366,135,c),
(380,135,o),
(380,156,o),
(366,156,c),
(340,156,o),
(328,174,o),
(328,198,c)
);
},
{
closed = 1;
nodes = (
(677,110,l),
(600,189,o),
(535,297,o),
(485,383,c),
(418,373,l),
(475,279,o),
(566,149,o),
(657,89,c)
);
}
);
width = 847;
},
{
layerId = m003;
width = 600;
}
);
unicode = 174;
},
{
glyphname = trademark;
lastChange = "2025-05-17 15:56:00 +0000";
layers = (
{
layerId = m01;
shapes = (
{
closed = 1;
nodes = (
(263,726,ls),
(288,726,o),
(312,721,o),
(353,669,cs),
(361,659,o),
(376,669,o),
(371,680,cs),
(361,702,o),
(355,732,o),
(353,745,cs),
(352,750,o),
(349,752,o),
(343,752,cs),
(59,752,ls),
(54,752,o),
(50,750,o),
(49,745,cs),
(47,732,o),
(41,702,o),
(31,680,cs),
(26,669,o),
(41,659,o),
(49,669,cs),
(91,721,o),
(114,726,o),
(140,726,cs),
(174,726,l),
(176,504,ls),
(176,465,o),
(164,449,o),
(140,448,c),
(127,448,o),
(127,428,o),
(140,429,c),
(165,430,o),
(174,434,o),
(201,434,cs),
(232,434,o),
(239,431,o),
(264,431,c),
(277,431,o),
(277,450,o),
(264,450,c),
(239,450,o),
(228,465,o),
(228,504,cs),
(228,726,l)
);
},
{
closed = 1;
nodes = (
(583,542,l),
(500,742,ls),
(497,749,o),
(491,752,o),
(484,752,cs),
(452,752,l),
(410,440,l),
(441,440,l),
(475,696,l),
(571,461,ls),
(572,458,o),
(576,456,o),
(578,456,cs),
(582,456,o),
(583,458,o),
(585,461,c),
(670,692,l),
(702,444,l),
(745,444,l),
(705,752,l),
(674,752,ls),
(667,752,o),
(662,750,o),
(659,742,cs)
);
},
{
closed = 1;
nodes = (
(414,465,o),
(403,449,o),
(378,448,c),
(366,448,o),
(366,428,o),
(379,429,c),
(404,430,o),
(398,434,o),
(426,434,cs),
(440,434,o),
(456,431,o),
(481,431,c),
(494,431,o),
(494,450,o),
(481,450,c),
(456,450,o),
(445,465,o),
(450,504,c),
(419,504,l)
);
},
{
closed = 1;
nodes = (
(414,465,o),
(403,449,o),
(378,448,c),
(366,448,o),
(366,428,o),
(379,429,c),
(404,430,o),
(398,434,o),
(426,434,cs),
(440,434,o),
(456,431,o),
(481,431,c),
(494,431,o),
(494,450,o),
(481,450,c),
(456,450,o),
(445,465,o),
(450,504,c),
(419,504,l)
);
},
{
closed = 1;
nodes = (
(694,504,l),
(699,465,o),
(688,450,o),
(663,450,c),
(650,450,o),
(650,431,o),
(663,431,c),
(688,431,o),
(711,434,o),
(724,434,cs),
(752,434,o),
(753,430,o),
(778,429,c),
(791,428,o),
(791,448,o),
(779,448,c),
(754,449,o),
(742,465,o),
(737,504,c)
);
},
{
closed = 1;
nodes = (
(466,752,l),
(453,752,o),
(436,754,o),
(411,754,c),
(398,754,o),
(398,735,o),
(411,735,c),
(436,735,o),
(447,720,o),
(442,681,c),
(473,681,l)
);
},
{
closed = 1;
nodes = (
(714,681,l),
(709,720,o),
(720,735,o),
(745,735,c),
(758,735,o),
(758,754,o),
(745,754,c),
(720,754,o),
(704,752,o),
(690,752,c),
(683,681,l)
);
}
);
width = 961;
},
{
layerId = m003;
shapes = (
{
ref = T;
},
{
pos = (643,0);
ref = M;
}
);
width = 1593;
}
);
unicode = 8482;
},
{
glyphname = second;
lastChange = "2025-05-17 15:56:00 +0000";
layers = (
{
layerId = m01;
shapes = (
{
closed = 1;
nodes = (
(263,668,ls),
(270,682,o),
(263,692,o),
(248,692,cs),
(193,692,ls),
(181,692,o),
(173,685,o),
(172,673,cs),
(159,520,ls),
(157,501,o),
(173,497,o),
(182,514,cs)
);
},
{
closed = 1;
nodes = (
(135,668,ls),
(142,682,o),
(135,692,o),
(120,692,cs),
(65,692,ls),
(53,692,o),
(45,685,o),
(44,673,cs),
(31,520,ls),
(29,501,o),
(45,497,o),
(54,514,cs)
);
}
);
width = 297;
},
{
layerId = m003;
width = 600;
}
);
unicode = 8243;
},
{
glyphname = bar;
lastChange = "2025-05-17 15:56:00 +0000";
layers = (
{
layerId = m01;
shapes = (
{
closed = 1;
nodes = (
(20,800,l),
(20,-254,l),
(53,-254,l),
(53,800,l)
);
}
);
width = 73;
},
{
layerId = m003;
width = 600;
}
);
unicode = 124;
},
{
glyphname = dollar;
lastChange = "2025-05-17 15:56:00 +0000";
layers = (
{
layerId = m01;
shapes = (
{
closed = 1;
nodes = (
(64,15,o),
(154,-16,o),
(241,-16,cs),
(344,-16,o),
(484,38,o),
(484,199,cs),
(484,301,o),
(416,380,o),
(294,433,cs),
(234,459,ls),
(114,510,o),
(113,562,o),
(113,614,cs),
(113,657,o),
(153,723,o),
(240,723,cs),
(325,723,o),
(367,680,o),
(410,573,cs),
(414,562,o),
(422,558,o),
(429,558,cs),
(436,558,o),
(444,562,o),
(444,576,cs),
(444,711,l),
(412,728,o),
(356,768,o),
(256,768,cs),
(118,768,o),
(34,700,o),
(34,589,cs),
(34,503,o),
(57,450,o),
(195,385,cs),
(255,357,ls),
(374,301,o),
(406,246,o),
(406,178,cs),
(406,103,o),
(344,34,o),
(241,34,cs),
(151,34,o),
(82,93,o),
(65,195,cs),
(62,211,o),
(55,214,o),
(49,214,cs),
(39,214,o),
(28,208,o),
(28,194,cs),
(28,51,l)
);
},
{
closed = 1;
nodes = (
(230,800,l),
(230,-56,l),
(269,-56,l),
(269,800,l)
);
}
);
width = 503;
},
{
layerId = m003;
width = 600;
}
);
metricLeft = "=S";
metricRight = "=S";
unicode = 36;
},
{
glyphname = euro;
lastChange = "2025-05-17 15:56:00 +0000";
layers = (
{
layerId = m01;
shapes = (
{
closed = 1;
nodes = (
(478,-14,o),
(522,6,o),
(603,68,c),
(603,203,ls),
(603,217,o),
(595,221,o),
(588,221,cs),
(581,221,o),
(572,217,o),
(569,206,cs),
(538,91,o),
(498,26,o),
(374,26,cs),
(242,26,o),
(187,174,o),
(187,377,cs),
(187,580,o),
(242,728,o),
(374,728,cs),
(498,728,o),
(539,664,o),
(569,548,cs),
(572,537,o),
(581,533,o),
(588,533,cs),
(595,533,o),
(603,537,o),
(603,551,cs),
(603,683,l),
(526,740,o),
(485,768,o),
(394,768,cs),
(207,768,o),
(98,602,o),
(98,377,cs),
(98,152,o),
(204,-14,o),
(399,-14,cs)
);
},
{
closed = 0;
nodes = (
(603,71,l),
(603,189,l)
);
},
{
closed = 1;
nodes = (
(43,416,ls),
(41,409,o),
(45,405,o),
(52,405,cs),
(481,405,ls),
(487,405,o),
(491,409,o),
(492,414,cs),
(496,427,ls),
(498,434,o),
(494,438,o),
(487,438,cs),
(58,438,ls),
(52,438,o),
(48,434,o),
(47,429,cs)
);
},
{
closed = 1;
nodes = (
(21,333,ls),
(19,326,o),
(22,322,o),
(29,322,cs),
(458,322,ls),
(464,322,o),
(468,326,o),
(469,331,cs),
(473,344,ls),
(475,351,o),
(471,355,o),
(464,355,cs),
(35,355,ls),
(29,355,o),
(25,352,o),
(24,346,cs)
);
}
);
width = 600;
},
{
layerId = m003;
width = 600;
}
);
unicode = 8364;
},
{
glyphname = sterling;
lastChange = "2025-05-17 15:56:00 +0000";
layers = (
{
backgroundImage = {
imagePath = "../pound.tif";
locked = 1;
pos = (-9,-77);
scale = (23.2053,23.2053);
};
layerId = m01;
shapes = (
{
closed = 1;
nodes = (
(277,217,o),
(277,158,cs),
(277,56,o),
(224,21,o),
(154,21,cs),
(100,21,o),
(60,36,o),
(60,73,cs),
(60,109,o),
(103,118,o),
(144,118,cs),
(282,118,o),
(278,-16,o),
(417,-16,cs),
(540,-16,o),
(586,75,o),
(586,190,cs),
(586,215,o),
(552,220,o),
(552,188,cs),
(552,93,o),
(503,52,o),
(420,52,cs),
(308,52,o),
(297,153,o),
(142,153,cs),
(81,153,o),
(19,130,o),
(19,73,cs),
(19,11,o),
(92,-16,o),
(154,-16,cs),
(206,-16,o),
(253,5,o),
(281,34,cs),
(313,69,o),
(321,139,o),
(320,197,cs),
(320,243,o),
(303,284,o),
(282,321,cs),
(240,395,o),
(193,469,o),
(193,545,cs),
(193,667,o),
(257,723,o),
(338,723,cs),
(434,723,o),
(478,627,o),
(477,571,cs),
(477,546,o),
(451,544,o),
(433,517,cs),
(400,466,o),
(475,406,o),
(509,483,cs),
(561,602,o),
(474,768,o),
(326,768,cs),
(325,768,ls),
(178,768,o),
(108,656,o),
(108,534,cs),
(108,454,o),
(155,391,o),
(203,315,cs),
(231,271,o)
);
},
{
closed = 1;
nodes = (
(66,302,ls),
(66,293,o),
(72,287,o),
(81,287,cs),
(433,287,ls),
(442,287,o),
(448,293,o),
(448,302,cs),
(448,312,ls),
(448,321,o),
(442,327,o),
(433,327,cs),
(81,327,ls),
(72,327,o),
(66,321,o),
(66,312,cs)
);
}
);
width = 600;
},
{
layerId = m003;
width = 600;
}
);
unicode = 163;
},
{
glyphname = plus;
lastChange = "2025-05-17 15:56:00 +0000";
layers = (
{
layerId = m01;
shapes = (
{
closed = 1;
nodes = (
(20,367,l),
(153,367,l),
(153,233,l),
(188,233,l),
(188,367,l),
(320,367,l),
(320,400,l),
(188,400,l),
(188,534,l),
(153,534,l),
(153,400,l),
(20,400,l)
);
}
);
width = 340;
},
{
layerId = m003;
width = 600;
}
);
unicode = 43;
},
{
glyphname = minus;
lastChange = "2025-05-17 15:56:00 +0000";
layers = (
{
layerId = m01;
shapes = (
{
closed = 1;
nodes = (
(20,367,l),
(320,367,l),
(320,400,l),
(20,400,l)
);
}
);
width = 340;
},
{
layerId = m003;
width = 600;
}
);
unicode = 8722;
},
{
glyphname = multiply;
lastChange = "2025-05-17 15:56:00 +0000";
layers = (
{
layerId = m01;
shapes = (
{
closed = 1;
nodes = (
(20,478,l),
(114,384,l),
(20,289,l),
(44,264,l),
(139,359,l),
(232,266,l),
(256,289,l),
(162,382,l),
(257,477,l),
(232,502,l),
(138,407,l),
(44,501,l)
);
}
);
width = 277;
},
{
layerId = m003;
width = 600;
}
);
unicode = 215;
},
{
glyphname = divide;
lastChange = "2025-05-17 15:56:00 +0000";
layers = (
{
layerId = m01;
shapes = (
{
closed = 1;
nodes = (
(20,367,l),
(320,367,l),
(320,400,l),
(20,400,l)
);
},
{
closed = 1;
nodes = (
(188,436,o),
(200,450,o),
(200,470,cs),
(200,490,o),
(188,502,o),
(168,502,cs),
(147,502,o),
(135,490,o),
(135,470,cs),
(135,450,o),
(147,436,o),
(168,436,cs)
);
},
{
closed = 1;
nodes = (
(188,267,o),
(200,281,o),
(200,301,cs),
(200,321,o),
(188,333,o),
(168,333,cs),
(147,333,o),
(135,321,o),
(135,301,cs),
(135,281,o),
(147,267,o),
(168,267,cs)
);
}
);
width = 600;
},
{
layerId = m003;
width = 600;
}
);
unicode = 247;
},
{
glyphname = equal;
lastChange = "2025-05-17 15:56:00 +0000";
layers = (
{
layerId = m01;
shapes = (
{
closed = 1;
nodes = (
(20,437,l),
(320,437,l),
(320,470,l),
(20,470,l)
);
},
{
closed = 1;
nodes = (
(20,297,l),
(320,297,l),
(320,330,l),
(20,330,l)
);
}
);
width = 340;
},
{
layerId = m003;
width = 600;
}
);
unicode = 61;
},
{
glyphname = greater;
lastChange = "2025-05-17 15:56:00 +0000";
layers = (
{
layerId = m01;
shapes = (
{
closed = 1;
nodes = (
(49,603,l),
(31,570,l),
(409,352,l),
(31,133,l),
(49,100,l),
(456,335,l),
(456,368,l)
);
}
);
width = 487;
},
{
layerId = m003;
width = 600;
}
);
unicode = 62;
},
{
glyphname = less;
lastChange = "2025-05-17 15:56:00 +0000";
layers = (
{
layerId = m01;
shapes = (
{
closed = 1;
nodes = (
(31,335,l),
(438,100,l),
(456,133,l),
(78,352,l),
(456,570,l),
(438,603,l),
(31,368,l)
);
}
);
width = 487;
},
{
layerId = m003;
width = 600;
}
);
unicode = 60;
},
{
glyphname = percent;
lastChange = "2025-05-17 15:56:00 +0000";
layers = (
{
layerId = m01;
shapes = (
{
closed = 1;
nodes = (
(530,752,l),
(30,0,l),
(73,0,l),
(573,752,l)
);
},
{
closed = 1;
nodes = (
(44,405,o),
(1,500,o),
(1,585,cs),
(1,671,o),
(44,766,o),
(128,766,cs),
(211,766,o),
(254,671,o),
(254,585,cs),
(254,500,o),
(211,405,o),
(128,405,cs)
);
},
{
closed = 1;
nodes = (
(57,530,o),
(62,435,o),
(128,435,cs),
(193,435,o),
(199,530,o),
(199,585,cs),
(199,641,o),
(193,736,o),
(128,736,cs),
(62,736,o),
(57,641,o),
(57,585,cs)
);
},
{
closed = 1;
nodes = (
(389,-16,o),
(346,79,o),
(346,164,cs),
(346,250,o),
(389,345,o),
(473,345,cs),
(556,345,o),
(599,250,o),
(599,164,cs),
(599,79,o),
(556,-16,o),
(473,-16,cs)
);
},
{
closed = 1;
nodes = (
(402,109,o),
(407,14,o),
(473,14,cs),
(538,14,o),
(544,109,o),
(544,164,cs),
(544,220,o),
(538,315,o),
(473,315,cs),
(407,315,o),
(402,220,o),
(402,164,cs)
);
}
);
width = 600;
},
{
layerId = m003;
width = 600;
}
);
unicode = 37;
},
{
glyphname = upArrow;
lastChange = "2025-05-17 15:56:00 +0000";
layers = (
{
layerId = m01;
shapes = (
{
closed = 1;
nodes = (
(400,568,o),
(399,575,o),
(391,581,cs),
(334,622,o),
(278,679,o),
(221,752,cs),
(216,758,o),
(210,758,o),
(205,752,cs),
(148,679,o),
(92,622,o),
(35,581,cs),
(27,575,o),
(27,567,o),
(34,560,cs),
(40,554,ls),
(46,548,o),
(54,546,o),
(61,552,c),
(106,583,o),
(148,623,o),
(193,673,c),
(193,15,ls),
(193,6,o),
(199,0,o),
(208,0,cs),
(218,0,ls),
(227,0,o),
(233,6,o),
(233,15,cs),
(233,673,l),
(278,623,o),
(320,583,o),
(365,552,c),
(372,546,o),
(379,547,o),
(386,554,cs),
(392,560,ls)
);
}
);
width = 428;
},
{
layerId = m003;
width = 600;
}
);
unicode = 8593;
},
{
glyphname = rightArrow;
lastChange = "2025-05-17 15:56:00 +0000";
layers = (
{
layerId = m01;
shapes = (
{
closed = 1;
nodes = (
(598,72,o),
(605,73,o),
(611,81,cs),
(652,138,o),
(709,194,o),
(782,251,cs),
(788,256,o),
(788,262,o),
(782,267,cs),
(709,324,o),
(652,380,o),
(611,437,cs),
(605,445,o),
(597,445,o),
(590,438,cs),
(584,432,ls),
(578,426,o),
(576,418,o),
(582,411,c),
(613,366,o),
(653,324,o),
(703,279,c),
(45,279,ls),
(36,279,o),
(30,273,o),
(30,264,cs),
(30,254,ls),
(30,245,o),
(36,239,o),
(45,239,cs),
(703,239,l),
(653,194,o),
(613,152,o),
(582,107,c),
(576,100,o),
(577,93,o),
(584,86,cs),
(590,80,ls)
);
}
);
width = 819;
},
{
layerId = m003;
width = 600;
}
);
unicode = 8594;
},
{
glyphname = downArrow;
lastChange = "2025-05-17 15:56:00 +0000";
layers = (
{
layerId = m01;
shapes = (
{
closed = 1;
nodes = (
(386,198,ls),
(379,205,o),
(372,206,o),
(365,200,c),
(320,169,o),
(278,130,o),
(233,80,c),
(233,737,ls),
(233,746,o),
(227,752,o),
(218,752,cs),
(208,752,ls),
(199,752,o),
(193,746,o),
(193,737,cs),
(193,80,l),
(148,130,o),
(106,169,o),
(61,200,c),
(54,206,o),
(46,204,o),
(40,198,cs),
(34,192,ls),
(27,185,o),
(27,177,o),
(35,171,cs),
(92,130,o),
(148,73,o),
(205,0,cs),
(210,-6,o),
(216,-6,o),
(221,0,cs),
(278,73,o),
(334,130,o),
(391,171,cs),
(399,177,o),
(400,184,o),
(392,192,cs)
);
}
);
width = 426;
},
{
layerId = m003;
width = 600;
}
);
unicode = 8595;
},
{
glyphname = leftArrow;
lastChange = "2025-05-17 15:56:00 +0000";
layers = (
{
layerId = m01;
shapes = (
{
closed = 1;
nodes = (
(234,86,ls),
(241,93,o),
(242,100,o),
(236,107,c),
(205,152,o),
(165,194,o),
(115,239,c),
(773,239,ls),
(782,239,o),
(788,245,o),
(788,254,cs),
(788,264,ls),
(788,273,o),
(782,279,o),
(773,279,cs),
(115,279,l),
(165,324,o),
(205,366,o),
(236,411,c),
(242,418,o),
(240,426,o),
(234,432,cs),
(228,438,ls),
(221,445,o),
(213,445,o),
(207,437,cs),
(166,380,o),
(109,324,o),
(36,267,cs),
(30,262,o),
(30,256,o),
(36,251,cs),
(109,194,o),
(166,138,o),
(207,81,cs),
(213,73,o),
(220,72,o),
(228,80,cs)
);
}
);
width = 817;
},
{
layerId = m003;
width = 600;
}
);
unicode = 8592;
},
{
glyphname = dieresiscomb;
lastChange = "2025-05-17 15:56:00 +0000";
layers = (
{
anchors = (
{
name = _top;
pos = (154,507);
}
);
layerId = m01;
shapes = (
{
closed = 1;
nodes = (
(101,589,o),
(120,607,o),
(120,633,cs),
(120,660,o),
(101,676,o),
(77,676,cs),
(51,676,o),
(32,660,o),
(32,633,cs),
(32,607,o),
(51,589,o),
(77,589,cs)
);
},
{
closed = 1;
nodes = (
(259,589,o),
(278,607,o),
(278,633,c),
(278,660,o),
(259,676,o),
(234,676,cs),
(209,676,o),
(190,660,o),
(190,633,cs),
(190,607,o),
(209,589,o),
(234,589,cs)
);
}
);
width = 292;
},
{
layerId = m003;
width = 300;
}
);
unicode = 776;
},
{
glyphname = dotaccentcomb;
lastChange = "2025-05-17 15:56:00 +0000";
layers = (
{
anchors = (
{
name = _top;
pos = (54,494);
},
{
name = top;
pos = (54,706);
}
);
layerId = m01;
shapes = (
{
closed = 1;
nodes = (
(85,599,o),
(108,621,o),
(108,653,c),
(108,686,o),
(85,706,o),
(54,706,cs),
(23,706,o),
(0,686,o),
(0,653,cs),
(0,621,o),
(23,599,o),
(54,599,cs)
);
}
);
width = 108;
},
{
layerId = m003;
width = 300;
}
);
unicode = 775;
},
{
glyphname = gravecomb;
lastChange = "2025-05-17 15:56:00 +0000";
layers = (
{
anchors = (
{
name = _top;
pos = (155,494);
},
{
name = top;
pos = (127,716);
}
);
layerId = m01;
shapes = (
{
closed = 1;
nodes = (
(190,549,ls),
(200,542,o),
(212,547,o),
(204,559,cs),
(131,671,ls),
(127,677,o),
(123,681,o),
(116,681,cs),
(41,681,ls),
(29,681,o),
(26,673,o),
(36,665,cs)
);
}
);
width = 300;
},
{
layerId = m003;
width = 300;
}
);
unicode = 768;
},
{
glyphname = acutecomb;
lastChange = "2025-05-17 15:56:00 +0000";
layers = (
{
anchors = (
{
name = _top;
pos = (155,494);
},
{
name = top;
pos = (127,716);
}
);
layerId = m01;
shapes = (
{
closed = 1;
nodes = (
(273,673,o),
(270,681,o),
(258,681,cs),
(183,681,ls),
(176,681,o),
(172,677,o),
(168,671,cs),
(95,559,ls),
(87,547,o),
(99,542,o),
(109,549,cs),
(263,665,ls)
);
}
);
width = 300;
},
{
layerId = m003;
width = 300;
}
);
unicode = 769;
},
{
glyphname = hungarumlautcomb;
lastChange = "2025-05-17 15:56:00 +0000";
layers = (
{
anchors = (
{
name = _top;
pos = (69,506);
},
{
name = top;
pos = (105,681);
}
);
layerId = m01;
shapes = (
{
closed = 1;
nodes = (
(84,670,ls),
(92,680,o),
(88,688,o),
(76,688,cs),
(26,688,ls),
(19,688,o),
(12,685,o),
(10,677,cs),
(-30,565,ls),
(-35,552,o),
(-25,545,o),
(-16,556,cs)
);
},
{
closed = 1;
nodes = (
(237,670,ls),
(245,680,o),
(241,688,o),
(229,688,cs),
(179,688,ls),
(172,688,o),
(165,685,o),
(163,677,cs),
(123,565,ls),
(118,552,o),
(128,545,o),
(137,556,cs)
);
}
);
width = 210;
},
{
layerId = m003;
width = 300;
}
);
unicode = 779;
},
{
glyphname = caroncomb.alt;
lastChange = "2025-05-17 15:56:00 +0000";
layers = (
{
anchors = (
{
name = _topright;
pos = (283,800);
}
);
layerId = m01;
shapes = (
{
closed = 1;
nodes = (
(335,734,ls),
(340,744,o),
(335,752,o),
(324,752,cs),
(273,752,ls),
(264,752,o),
(258,746,o),
(258,737,cs),
(258,626,ls),
(258,611,o),
(269,607,o),
(276,621,cs)
);
}
);
width = 300;
},
{
layerId = m003;
width = 300;
}
);
},
{
glyphname = circumflexcomb;
lastChange = "2025-05-17 15:56:00 +0000";
layers = (
{
anchors = (
{
name = _top;
pos = (155,494);
},
{
name = top;
pos = (127,716);
}
);
layerId = m01;
shapes = (
{
closed = 1;
nodes = (
(29,559,ls),
(21,550,o),
(27,541,o),
(38,547,cs),
(150,603,l),
(256,553,ls),
(268,547,o),
(274,555,o),
(265,565,cs),
(159,676,ls),
(153,683,o),
(147,683,o),
(141,676,cs)
);
}
);
width = 300;
},
{
layerId = m003;
width = 300;
}
);
unicode = 770;
},
{
glyphname = ringcomb;
lastChange = "2025-05-17 15:56:00 +0000";
layers = (
{
anchors = (
{
name = _top;
pos = (93,494);
},
{
name = top;
pos = (93,720);
}
);
layerId = m01;
shapes = (
{
closed = 1;
nodes = (
(144,535,o),
(185,576,o),
(185,628,cs),
(185,679,o),
(144,720,o),
(93,720,cs),
(41,720,o),
(0,679,o),
(0,628,cs),
(0,576,o),
(41,535,o),
(93,535,cs)
);
},
{
closed = 1;
nodes = (
(60,569,o),
(34,595,o),
(34,628,cs),
(34,660,o),
(60,686,o),
(93,686,cs),
(125,686,o),
(151,660,o),
(151,628,cs),
(151,595,o),
(125,569,o),
(93,569,cs)
);
}
);
width = 185;
},
{
layerId = m003;
width = 300;
}
);
unicode = 778;
},
{
glyphname = tildecomb;
lastChange = "2025-05-17 15:56:00 +0000";
layers = (
{
anchors = (
{
name = _top;
pos = (155,494);
},
{
name = top;
pos = (155,708);
}
);
backgroundImage = {
imagePath = "/Users/aliqadeer/Desktop/tilde.jpg";
locked = 1;
pos = (-161,421);
scale = (5.2609,5.2609);
};
layerId = m01;
shapes = (
{
closed = 1;
nodes = (
(136,587,o),
(86,591,cs),
(57,593,o),
(41,584,o),
(26,571,cs),
(15,561,o),
(0,572,o),
(11,584,cs),
(36,614,o),
(66,650,o),
(108,647,cs),
(168,642,o),
(180,602,o),
(217,599,cs),
(237,597,o),
(267,630,o),
(278,643,cs),
(291,655,o),
(311,638,o),
(298,624,cs),
(271,597,o),
(239,545,o),
(182,550,cs),
(138,552,o)
);
}
);
width = 300;
},
{
layerId = m003;
width = 300;
}
);
unicode = 771;
},
{
glyphname = cedillacomb;
lastChange = "2025-05-17 15:56:00 +0000";
layers = (
{
anchors = (
{
name = bottom;
pos = (280,0);
}
);
backgroundImage = {
imagePath = "../cedilla.tif";
locked = 1;
pos = (5,-380);
scale = (9.0497,9.0497);
};
layerId = m01;
shapes = (
{
closed = 1;
nodes = (
(287,-253,o),
(351,-197,o),
(351,-142,cs),
(351,-78,o),
(293,-46,o),
(249,-46,c),
(300,0,l),
(264,1,l),
(176,-75,ls),
(166,-84,o),
(170,-92,o),
(184,-93,cs),
(332,-107,o),
(306,-230,o),
(198,-230,cs),
(176,-230,o),
(177,-253,o),
(198,-253,cs)
);
}
);
width = 300;
},
{
layerId = m003;
width = 300;
}
);
unicode = 807;
},
{
glyphname = ogonekcomb;
lastChange = "2025-05-17 15:56:00 +0000";
layers = (
{
anchors = (
{
name = _ogonek;
pos = (293,11);
}
);
layerId = m01;
shapes = (
{
closed = 1;
nodes = (
(242,-217,o),
(239,-208,o),
(225,-208,cs),
(187,-208,o),
(144,-191,o),
(144,-142,cs),
(144,-93,o),
(188,-27,o),
(208,10,c),
(180,10,l),
(153,-20,o),
(78,-115,o),
(78,-174,cs),
(78,-270,o),
(175,-269,o),
(233,-224,cs)
);
}
);
width = 300;
},
{
layerId = m003;
width = 300;
}
);
unicode = 808;
},
{
glyphname = caron;
lastChange = "2025-05-17 15:56:00 +0000";
layers = (
{
anchors = (
{
name = _top;
pos = (129,509);
}
);
layerId = m01;
shapes = (
{
closed = 1;
nodes = (
(250,677,ls),
(258,686,o),
(252,695,o),
(241,689,cs),
(129,633,l),
(23,683,ls),
(11,689,o),
(5,681,o),
(14,671,cs),
(120,560,ls),
(126,553,o),
(132,553,o),
(138,560,cs)
);
}
);
width = 244;
},
{
layerId = m003;
width = 300;
}
);
unicode = 711;
},
{
glyphname = _cap.flag;
lastChange = "2025-05-17 15:56:00 +0000";
layers = (
{
anchors = (
{
name = origin;
pos = (187,505);
}
);
layerId = m01;
shapes = (
{
closed = 0;
nodes = (
(187,405,ls),
(187,439,o),
(187,468,o),
(187,489,cs),
(187,502,o),
(181,505,o),
(171,505,cs),
(156,505,o),
(140,492,o),
(123,479,cs),
(100,461,o),
(68,458,o),
(57,458,cs),
(46,458,o),
(40,449,o),
(40,442,cs),
(40,436,o),
(46,427,o),
(57,427,cs),
(96,427,o),
(112,416,o),
(112,380,cs)
);
}
);
width = 241;
},
{
anchors = (
{
name = origin;
pos = (192,505);
}
);
layerId = m003;
shapes = (
{
closed = 0;
nodes = (
(192,405,l),
(192,495,ls),
(192,501,o),
(188,505,o),
(182,505,cs),
(148,505,ls),
(144,505,o),
(140,504,o),
(136,502,cs),
(65,470,ls),
(60,468,o),
(57,464,o),
(57,459,cs),
(57,427,ls),
(57,421,o),
(61,417,o),
(67,417,cs),
(83,417,o),
(107,416,o),
(107,380,c)
);
}
);
width = 241;
}
);
},
